<svg width="40" height="40" viewBox="0 0 40 40" fill="none" xmlns="http://www.w3.org/2000/svg">
<path fill-rule="evenodd" clip-rule="evenodd" d="M23.858 12.5842C22.6184 17.095 17.669 25.307 12.5369 25.307C7.30467 25.307 2.39471 16.8731 1.21612 12.5842C0.507811 12.5842 0 13.0209 0 13.7558V35.2508C0 35.8978 0.482482 36.4223 1.07757 36.4223H3.84215C4.26818 38.4829 6.09191 39.9999 8.24034 39.9999C10.3888 39.9999 12.2128 38.4829 12.6385 36.4223H23.9962C24.5916 36.4223 25.0741 35.8978 25.0741 35.2508V13.7558C25.0741 13.0209 24.5663 12.5842 23.858 12.5842ZM9.7592 37.0278C8.41002 38.377 6.09221 37.4172 6.09221 35.5087C6.09221 33.6004 8.41002 32.6406 9.7592 33.9898C10.5981 34.8284 10.5981 36.1889 9.7592 37.0278Z" fill="#E20613"/>
<path fill-rule="evenodd" clip-rule="evenodd" d="M36.3591 24.5346H30.926C30.279 24.5346 29.7545 24.0103 29.7545 23.363C29.7545 22.716 30.279 22.1914 30.926 22.1914H34.9626L34.0617 20.6799C32.8331 18.6178 30.9535 17.1985 28.7227 16.6217C28.3598 16.528 28.0082 16.6003 27.7119 16.8298C27.4159 17.0593 27.2578 17.3816 27.2578 17.756V35.2355C27.2578 35.8807 27.7839 36.4071 28.4294 36.4071H29.2216C29.6415 38.475 31.4686 39.9999 33.6229 39.9999C35.7771 39.9999 37.6042 38.475 38.0241 36.4071H38.8163C39.4633 36.4071 39.9879 35.8825 39.9879 35.2355V28.2058C39.9879 26.1578 38.3958 24.5797 36.3591 24.5346ZM35.1417 37.0278C33.7925 38.377 31.4747 37.4172 31.4747 35.5087C31.4747 33.6004 33.7925 32.6406 35.1417 33.9898C35.9806 34.8284 35.9806 36.1889 35.1417 37.0278Z" fill="#E20613"/>
<path fill-rule="evenodd" clip-rule="evenodd" d="M13.5357 10.4483C14.089 9.895 14.089 8.99778 13.5357 8.4445C12.6461 7.55492 11.1172 8.18754 11.1172 9.44639C11.1172 10.7052 12.6461 11.3379 13.5357 10.4483Z" fill="#E20613"/>
<path fill-rule="evenodd" clip-rule="evenodd" d="M12.5398 22.9635C14.395 22.9635 16.8816 20.7193 18.8087 17.8442C20.5901 15.1867 21.9862 11.9266 21.9862 9.44639C21.9862 4.22942 17.7568 0 12.5398 0C7.32317 0 3.09375 4.22942 3.09375 9.44639C3.09375 11.9266 4.48993 15.1867 6.27123 17.8442C8.19811 20.7193 10.685 22.9635 12.5398 22.9635ZM12.5398 5.68633C14.6163 5.68633 16.2999 7.36998 16.2999 9.44639C16.2999 11.5225 14.6163 13.2062 12.5398 13.2062C10.4637 13.2062 8.78008 11.5225 8.78008 9.44639C8.78008 7.36998 10.4637 5.68633 12.5398 5.68633Z" fill="#E20613"/>
</svg>
