<svg width="40" height="40" viewBox="0 0 40 40" fill="none" xmlns="http://www.w3.org/2000/svg">
<g clip-path="url(#clip0_2_48584)">
<path d="M40 9.95836C40 7.90539 38.334 6.27609 36.3177 6.27609H3.68227C1.6293 6.27601 0 7.94211 0 9.95836V11.2969H40V9.95836Z" fill="#E20613"/>
<path d="M0 13.6406H40V16.3177H0V13.6406Z" fill="#E20613"/>
<path d="M31.1276 28.7031H33.638C34.3868 28.7031 34.9765 28.0941 34.9765 27.3646C34.9765 26.6158 34.3674 26.0261 33.638 26.0261H31.1276C30.3786 26.0261 29.7891 26.6354 29.7891 27.3646C29.789 28.1134 30.3981 28.7031 31.1276 28.7031Z" fill="#E20613"/>
<path d="M0 30.0416C0 32.0946 1.66602 33.7239 3.68227 33.7239H36.3177C38.3706 33.7239 39.9999 32.0579 39.9999 30.0416V18.6615H0L0 30.0416ZM31.1302 23.6823H33.6406C35.6548 23.6823 37.3229 25.3095 37.3229 27.3645C37.3229 29.3787 35.6956 31.0468 33.6406 31.0468H31.1302C29.116 31.0468 27.448 29.4195 27.448 27.3645C27.4479 25.3503 29.0752 23.6823 31.1302 23.6823Z" fill="#E20613"/>
</g>
<defs>
<clipPath id="clip0_2_48584">
<rect width="40" height="40" fill="white"/>
</clipPath>
</defs>
</svg>
