<svg width="40" height="40" viewBox="0 0 40 40" fill="none" xmlns="http://www.w3.org/2000/svg">
<path d="M33.75 7.5C26.8 7.5 20.8375 2.825 20.775 2.775C20.5543 2.60061 20.2813 2.50575 20 2.50575C19.7187 2.50575 19.4457 2.60061 19.225 2.775C19.1625 2.825 13.225 7.5 6.25 7.5C5.91848 7.5 5.60054 7.6317 5.36612 7.86612C5.1317 8.10054 5 8.41848 5 8.75V20C5 28.3875 8.3875 32.5 19.4875 37.3875C19.6486 37.4599 19.8233 37.4974 20 37.4974C20.1767 37.4974 20.3514 37.4599 20.5125 37.3875C31.6125 32.5 35 28.3875 35 20V8.75C35 8.41848 34.8683 8.10054 34.6339 7.86612C34.3995 7.6317 34.0815 7.5 33.75 7.5ZM27.1375 15.8875L18.3875 24.6375C18.2713 24.7547 18.133 24.8477 17.9807 24.9111C17.8284 24.9746 17.665 25.0072 17.5 25.0072C17.335 25.0072 17.1716 24.9746 17.0193 24.9111C16.867 24.8477 16.7287 24.7547 16.6125 24.6375L12.8625 20.8875C12.6271 20.6521 12.4949 20.3329 12.4949 20C12.4949 19.6671 12.6271 19.3479 12.8625 19.1125C13.0979 18.8771 13.4171 18.7449 13.75 18.7449C14.0829 18.7449 14.4021 18.8771 14.6375 19.1125L17.5 21.9875L25.3625 14.1125C25.5979 13.8771 25.9171 13.7449 26.25 13.7449C26.5829 13.7449 26.9021 13.8771 27.1375 14.1125C27.3729 14.3479 27.5051 14.6671 27.5051 15C27.5051 15.3329 27.3729 15.6521 27.1375 15.8875Z" fill="#E20613"/>
</svg>
