<svg width="28" height="23" viewBox="0 0 28 23" fill="none" xmlns="http://www.w3.org/2000/svg">
<path d="M15.1267 23C14.9164 23 14.7053 22.9383 14.5371 22.8136C14.178 22.5468 14.1512 22.0921 14.4769 21.7982L25.9346 11.4609L14.479 1.20369C14.1519 0.91073 14.1766 0.456048 14.5345 0.188241C14.8923 -0.0794227 15.4477 -0.0592977 15.7748 0.233666L27.7698 10.974C28.0755 11.2478 28.0766 11.6671 27.7721 11.942L15.7773 22.7642C15.604 22.9205 15.3657 23 15.1267 23Z" fill="white"/>
<path d="M27.1221 12.1776H0.87793C0.393137 12.1776 0 11.8559 0 11.4589C0 11.0618 0.393137 10.7401 0.87793 10.7401H27.1221C27.607 10.7401 28 11.0618 28 11.4589C28 11.8559 27.607 12.1776 27.1221 12.1776Z" fill="white"/>
</svg>
