<svg width="24" height="25" viewBox="0 0 24 25" fill="none" xmlns="http://www.w3.org/2000/svg">
<path d="M12 0C8.65753 0 5.93913 2.6875 5.93913 5.99028V6.94444H3.53981C2.47157 6.94444 1.47079 7.41528 0.794707 8.23611C0.118622 9.05695 -0.142816 10.1194 0.0750493 11.1556L2.40691 22.2181C2.74846 23.8292 4.20605 25 5.87307 25H18.1283C19.7954 25 21.2529 23.8292 21.5931 22.2153L23.9249 11.1542C24.1428 10.1194 23.8814 9.05556 23.2053 8.23472C22.5292 7.41389 21.5284 6.94444 20.4602 6.94444H18.0623V5.99028C18.0623 2.6875 15.3425 0 12 0ZM7.34471 5.99028C7.34471 3.45278 9.43341 1.38889 12 1.38889C14.5666 1.38889 16.6567 3.45278 16.6567 5.99028V6.94444H7.34471V5.99028ZM22.1146 9.1125C22.5208 9.60695 22.6782 10.2486 22.5489 10.8736L20.217 21.9333C20.0104 22.9056 19.1319 23.6111 18.1269 23.6111H5.87307C4.86808 23.6111 3.98959 22.9056 3.78438 21.9333L1.45252 10.8722C1.3218 10.2486 1.48063 9.60695 1.88684 9.11111C2.29306 8.61667 2.89464 8.33333 3.53981 8.33333H6.64052H17.3581H20.4588C21.1054 8.33333 21.7069 8.61667 22.1146 9.1125Z" fill="#1C1C1C"/>
<path d="M22.1146 9.1125C22.5208 9.60695 22.6782 10.2486 22.5489 10.8736L20.217 21.9333C20.0104 22.9056 19.1319 23.6111 18.1269 23.6111H5.87307C4.86808 23.6111 3.98959 22.9056 3.78438 21.9333L1.45252 10.8722C1.3218 10.2486 1.48063 9.60695 1.88684 9.11111C2.29306 8.61667 2.89464 8.33333 3.53981 8.33333H6.64052H17.3581H20.4588C21.1054 8.33333 21.7069 8.61667 22.1146 9.1125Z" fill="#1C1C1C"/>
</svg>
