<svg width="40" height="40" viewBox="0 0 40 40" fill="none" xmlns="http://www.w3.org/2000/svg">
<path d="M31.25 9.99999H36.7625L30 3.23749V8.74999C30 9.08151 30.1317 9.39945 30.3661 9.63387C30.6005 9.86829 30.9185 9.99999 31.25 9.99999Z" fill="#E20613"/>
<path d="M31.25 12.5C30.2554 12.5 29.3016 12.1049 28.5983 11.4017C27.8951 10.6984 27.5 9.74456 27.5 8.75V2.5H13.75C12.7554 2.5 11.8016 2.89509 11.0983 3.59835C10.3951 4.30161 10 5.25544 10 6.25V15.25C12.7822 14.681 15.6753 15.0763 18.2029 16.3708C20.7305 17.6654 22.7419 19.782 23.9061 22.3723C25.0702 24.9625 25.3177 27.8719 24.6077 30.6216C23.8977 33.3712 22.2727 35.7972 20 37.5H33.75C34.7446 37.5 35.6984 37.1049 36.4017 36.4016C37.1049 35.6984 37.5 34.7446 37.5 33.75V12.5H31.25ZM23.75 12.5H16.25C15.9185 12.5 15.6005 12.3683 15.3661 12.1339C15.1317 11.8995 15 11.5815 15 11.25C15 10.9185 15.1317 10.6005 15.3661 10.3661C15.6005 10.1317 15.9185 10 16.25 10H23.75C24.0815 10 24.3995 10.1317 24.6339 10.3661C24.8683 10.6005 25 10.9185 25 11.25C25 11.5815 24.8683 11.8995 24.6339 12.1339C24.3995 12.3683 24.0815 12.5 23.75 12.5ZM31.25 31.25H28.75C28.4185 31.25 28.1005 31.1183 27.8661 30.8839C27.6317 30.6495 27.5 30.3315 27.5 30C27.5 29.6685 27.6317 29.3505 27.8661 29.1161C28.1005 28.8817 28.4185 28.75 28.75 28.75H31.25C31.5815 28.75 31.8995 28.8817 32.1339 29.1161C32.3683 29.3505 32.5 29.6685 32.5 30C32.5 30.3315 32.3683 30.6495 32.1339 30.8839C31.8995 31.1183 31.5815 31.25 31.25 31.25ZM31.25 25H28.75C28.4185 25 28.1005 24.8683 27.8661 24.6339C27.6317 24.3995 27.5 24.0815 27.5 23.75C27.5 23.4185 27.6317 23.1005 27.8661 22.8661C28.1005 22.6317 28.4185 22.5 28.75 22.5H31.25C31.5815 22.5 31.8995 22.6317 32.1339 22.8661C32.3683 23.1005 32.5 23.4185 32.5 23.75C32.5 24.0815 32.3683 24.3995 32.1339 24.6339C31.8995 24.8683 31.5815 25 31.25 25ZM31.25 18.75H26.25C25.9185 18.75 25.6005 18.6183 25.3661 18.3839C25.1317 18.1495 25 17.8315 25 17.5C25 17.1685 25.1317 16.8505 25.3661 16.6161C25.6005 16.3817 25.9185 16.25 26.25 16.25H31.25C31.5815 16.25 31.8995 16.3817 32.1339 16.6161C32.3683 16.8505 32.5 17.1685 32.5 17.5C32.5 17.8315 32.3683 18.1495 32.1339 18.3839C31.8995 18.6183 31.5815 18.75 31.25 18.75Z" fill="#E20613"/>
<path d="M12.5 17.5C10.5222 17.5 8.58879 18.0865 6.9443 19.1853C5.29981 20.2841 4.01809 21.8459 3.26121 23.6732C2.50433 25.5004 2.3063 27.5111 2.69215 29.4509C3.078 31.3907 4.03041 33.1725 5.42894 34.5711C6.82746 35.9696 8.60929 36.922 10.5491 37.3079C12.4889 37.6937 14.4996 37.4957 16.3268 36.7388C18.1541 35.9819 19.7159 34.7002 20.8147 33.0557C21.9135 31.4112 22.5 29.4778 22.5 27.5C22.5 24.8478 21.4464 22.3043 19.5711 20.4289C17.6957 18.5536 15.1522 17.5 12.5 17.5ZM10 23.75C10.2472 23.75 10.4889 23.8233 10.6945 23.9607C10.9 24.098 11.0602 24.2932 11.1549 24.5216C11.2495 24.7501 11.2742 25.0014 11.226 25.2439C11.1778 25.4863 11.0587 25.7091 10.8839 25.8839C10.7091 26.0587 10.4863 26.1778 10.2439 26.226C10.0014 26.2742 9.75006 26.2495 9.52165 26.1549C9.29324 26.0602 9.09802 25.9 8.96067 25.6945C8.82332 25.4889 8.75 25.2472 8.75 25C8.75 24.6685 8.8817 24.3505 9.11612 24.1161C9.35054 23.8817 9.66848 23.75 10 23.75ZM15 31.25C14.7528 31.25 14.5111 31.1767 14.3055 31.0393C14.1 30.902 13.9398 30.7068 13.8452 30.4784C13.7505 30.2499 13.7258 29.9986 13.774 29.7561C13.8223 29.5137 13.9413 29.2909 14.1161 29.1161C14.2909 28.9413 14.5137 28.8222 14.7561 28.774C14.9986 28.7258 15.25 28.7505 15.4784 28.8451C15.7068 28.9398 15.902 29.1 16.0393 29.3055C16.1767 29.5111 16.25 29.7528 16.25 30C16.25 30.3315 16.1183 30.6495 15.8839 30.8839C15.6495 31.1183 15.3315 31.25 15 31.25ZM15.8875 25.8875L10.8875 30.8875C10.7713 31.0047 10.633 31.0977 10.4807 31.1611C10.3284 31.2246 10.165 31.2572 10 31.2572C9.83499 31.2572 9.67161 31.2246 9.51928 31.1611C9.36696 31.0977 9.22871 31.0047 9.1125 30.8875C8.99534 30.7713 8.90235 30.633 8.83889 30.4807C8.77543 30.3284 8.74276 30.165 8.74276 30C8.74276 29.835 8.77543 29.6716 8.83889 29.5193C8.90235 29.367 8.99534 29.2287 9.1125 29.1125L14.1125 24.1125C14.3479 23.8771 14.6671 23.7449 15 23.7449C15.3329 23.7449 15.6521 23.8771 15.8875 24.1125C16.1229 24.3479 16.2551 24.6671 16.2551 25C16.2551 25.3329 16.1229 25.6521 15.8875 25.8875Z" fill="#E20613"/>
</svg>
