<svg width="40" height="40" viewBox="0 0 40 40" fill="none" xmlns="http://www.w3.org/2000/svg">
<path d="M39.9101 31.8276L39.057 29.7529C38.9623 29.5227 38.7967 29.3285 38.5843 29.1987L37.365 28.4534L37.7429 27.2905C37.8288 27.0261 37.818 26.7398 37.7122 26.4827L36.628 23.8461C36.5331 23.6152 36.3669 23.4208 36.1538 23.2909L34.9617 22.5649L35.292 21.1776C35.3489 20.9386 35.3293 20.6877 35.2358 20.4605L34.5904 18.8909C35.6453 17.675 36.3759 16.2152 36.7193 14.6255C37.1298 12.7254 36.9547 10.7675 36.213 8.9636C34.2427 4.17199 28.8115 1.82779 23.9934 3.62989C25.2011 4.26918 26.2299 5.2573 26.9013 6.53893C27.3564 7.40783 27.6157 8.35282 27.6694 9.31695C28.1824 9.5332 28.6136 9.94367 28.8416 10.498C29.2997 11.6121 28.766 12.8912 27.6519 13.3493C26.5378 13.8075 25.2587 13.2738 24.8006 12.1597C24.4447 11.2942 24.6876 10.3294 25.3359 9.72695C25.3414 8.99969 25.1679 8.28071 24.8252 7.62658C24.1039 6.24979 22.7596 5.3837 21.2903 5.17917C18.1039 7.7797 16.8389 12.2587 18.482 16.2546C19.2238 18.0585 20.4766 19.5733 22.105 20.635C23.4674 21.5233 25.0136 22.0468 26.6187 22.1689L31.9384 35.1057C32.0659 35.4159 32.3202 35.6565 32.6369 35.7668L36.5964 37.145C36.8763 37.2424 37.1704 37.2278 37.4273 37.1221C37.6841 37.0165 37.9035 36.8199 38.0339 36.5539L39.8785 32.7891C40.0262 32.4876 40.0376 32.1377 39.9101 31.8276Z" fill="#E20613"/>
<path d="M23.7039 3.74336C23.8008 3.70351 23.898 3.66609 23.9953 3.62961C22.0092 2.57821 19.539 2.4704 17.3766 3.55508C16.6367 3.92617 15.9835 4.40999 15.4246 4.99444L8.89492 3.0061C8.59711 2.91547 8.27515 2.94696 8.00055 3.09399C7.72586 3.24094 7.5211 3.49125 7.43141 3.78961L0.0499852 28.33C-0.136029 28.9482 0.213187 29.6004 0.830838 29.7885L17.3123 34.8073C17.6093 34.8977 17.9317 34.8666 18.2066 34.7194C18.4813 34.5724 18.6861 34.3221 18.7758 34.0238L22.0088 23.2753C21.6032 23.0724 21.2083 22.8467 20.8269 22.5981C18.8328 21.2979 17.2927 19.4521 16.3642 17.2563C16.3517 17.2617 16.3397 17.2678 16.3271 17.2731C14.5301 18.0294 12.4182 17.1434 11.6818 15.3457C10.9763 13.6234 11.7643 11.6023 13.4449 10.8067C14.1351 10.4799 14.8899 10.4016 15.6011 10.5356C15.7541 9.68151 16.0015 8.83761 16.3439 8.01692C16.511 7.61645 16.6985 7.22849 16.9042 6.85341C17.3206 6.35412 17.8316 5.94881 18.4273 5.65006C19.3455 5.18952 20.3448 5.04702 21.2922 5.17889C22.0041 4.59804 22.8113 4.11046 23.7039 3.74336ZM16.7322 20.6224C17.03 20.7131 17.2795 20.9186 17.4256 21.1935C17.5717 21.4685 17.6025 21.7902 17.511 22.0877L15.6397 28.1762C15.4849 28.68 15.0211 29.0041 14.5199 29.0041C14.4069 29.0041 14.292 28.9876 14.1782 28.953L6.66525 26.6652C6.36744 26.5745 6.11791 26.369 5.97181 26.0941C5.82564 25.8192 5.79494 25.4975 5.88642 25.1998L7.75781 19.1114C7.94766 18.4939 8.60125 18.1464 9.21929 18.3346L16.7322 20.6224Z" fill="#E20613"/>
<path d="M13.7435 26.3704L14.9263 22.5223L9.65539 20.9172L8.47266 24.7654L13.7435 26.3704Z" fill="#E20613"/>
<path d="M14.9382 12.8168C14.7658 12.8168 14.6014 12.8532 14.4497 12.925C13.8936 13.1883 13.6202 13.89 13.8525 14.4572C14.0317 14.8947 14.4975 15.2002 14.9851 15.2002C15.1358 15.2002 15.2822 15.1708 15.4198 15.1129C15.51 15.0749 15.5883 15.0284 15.6572 14.9775C15.5178 14.2949 15.4391 13.6047 15.4217 12.9133C15.2711 12.8509 15.1067 12.8168 14.9382 12.8168Z" fill="#E20613"/>
</svg>
