<svg width="40" height="40" viewBox="0 0 40 40" fill="none" xmlns="http://www.w3.org/2000/svg">
<path d="M11.9727 9.05121C10.9366 10.195 10.9689 11.9617 12.0663 13.0679C12.6382 13.6438 13.3896 13.9316 14.1406 13.9316C14.8962 13.9316 15.6522 13.6398 16.2247 13.0569L20.1993 9.01062H25.6162L34.762 18.1558L39.9985 13.2971L27.9688 1.01562L25.6162 3.35632H19.3393C18.5077 3.35632 17.7017 3.60687 17.0236 4.06616C16.8015 4.21539 16.5933 4.38751 16.4023 4.58008L12.0657 8.95264C12.0337 8.98468 12.0023 9.01764 11.9727 9.05121Z" fill="#E20613"/>
<path d="M24.6465 11.3577H21.1855L17.9009 14.7015C16.9027 15.7187 15.5682 16.2787 14.1427 16.2787C12.7273 16.2787 11.3995 15.7257 10.4028 14.7211C9.41705 13.7283 8.87414 12.4109 8.87414 11.011C8.87323 9.61151 9.41644 8.29407 10.4012 7.30041L14.7381 2.92786C14.7918 2.87384 14.8467 2.82043 14.9023 2.76886L13.2217 1.74255L0.726562 15.8023L2.35773 18.8708C3.06116 18.5022 3.84821 18.3066 4.66516 18.3066C5.99817 18.3066 7.25 18.8263 8.19116 19.7696C8.85858 20.4379 9.31238 21.264 9.51868 22.1637C10.4177 22.3718 11.2423 22.8281 11.9106 23.497C12.5918 24.1806 13.0331 25.014 13.2351 25.8917C14.1357 26.0989 14.9618 26.5561 15.6307 27.2266C16.2972 27.8946 16.7516 28.7207 16.9583 29.6204C17.8573 29.8285 18.6819 30.2847 19.3493 30.9537C21.2896 32.8979 21.2856 36.0577 19.3414 37.998L19.2584 38.0811C19.9633 38.717 20.8544 39.0347 21.7455 39.0347C22.6986 39.0347 23.6514 38.6716 24.3759 37.9456C24.822 37.4988 25.1293 36.9653 25.2999 36.3989C25.6878 36.5305 26.0931 36.5967 26.4984 36.5967C27.4505 36.5967 28.4036 36.2338 29.128 35.5078C29.6398 34.9954 29.9691 34.3695 30.1183 33.71C30.3658 33.7616 30.6191 33.7881 30.8773 33.7881H30.8813C31.8734 33.7872 32.806 33.3993 33.507 32.6974C34.3707 31.8314 34.7173 30.6439 34.5489 29.5181C35.2798 29.3817 35.9518 29.0289 36.4886 28.4915C37.9351 27.0419 37.9327 24.6854 36.4831 23.2379L24.6465 11.3577Z" fill="#E20613"/>
<path d="M17.6697 32.5919C17.2174 32.1381 16.6394 31.8863 16.048 31.8369C15.8975 31.8237 15.7468 31.8237 15.5963 31.8369C15.0638 31.8838 14.5419 32.0935 14.1147 32.4692C14.1037 32.4768 14.0936 32.4863 14.0833 32.4957C14.0652 32.5107 14.0482 32.5269 14.0311 32.5433C14.0292 32.5449 14.0271 32.5464 14.0256 32.5482C14.0137 32.5583 14.0027 32.5693 13.9911 32.5803C14.404 32.1561 14.646 31.6281 14.7147 31.0812C14.7272 30.9927 14.7342 30.9042 14.7357 30.8151C14.7375 30.791 14.7375 30.7675 14.7375 30.7431C14.7375 30.0711 14.4809 29.3982 13.9685 28.8843C13.4543 28.3688 12.7792 28.1107 12.1039 28.1107C12.0828 28.1107 12.0624 28.1107 12.0413 28.1122C11.8161 28.1168 11.5909 28.1503 11.3724 28.2138C10.9741 28.3279 10.5988 28.5376 10.2802 28.8452C10.2786 28.8458 10.2771 28.8474 10.274 28.8498C10.271 28.8522 10.2676 28.8553 10.2655 28.8593C10.2576 28.8654 10.2505 28.8727 10.2435 28.8797C10.5557 28.5681 10.7733 28.1982 10.896 27.8046C10.9775 27.5479 11.0171 27.2812 11.0171 27.0145C11.0171 26.9455 11.015 26.8759 11.0086 26.8069C10.9616 26.2045 10.7083 25.6155 10.2481 25.1547C9.73328 24.6393 9.05914 24.3817 8.3847 24.3817C8.36426 24.3817 8.3432 24.3817 8.32275 24.3832C7.94495 24.3912 7.56775 24.4812 7.22137 24.6524C6.98334 24.7684 6.76117 24.9216 6.56097 25.1147C6.56342 25.1126 6.56555 25.1093 6.56708 25.1077C6.56952 25.1047 6.57196 25.1031 6.5741 25.1001C6.58112 25.0928 6.58752 25.0858 6.59302 25.0797C6.60156 25.0711 6.6095 25.0626 6.61804 25.0531C6.62598 25.0446 6.63452 25.0357 6.64215 25.0265C6.7926 24.856 6.91681 24.6704 7.01477 24.4757C7.19299 24.1245 7.28699 23.7418 7.29645 23.3569C7.29797 23.3334 7.29797 23.3099 7.29797 23.2864C7.29797 22.6135 7.04193 21.9415 6.52893 21.4276C6.01471 20.9113 5.33966 20.6537 4.66461 20.6537C4.25049 20.6537 3.83667 20.7507 3.45947 20.9439C3.25378 21.0504 3.05756 21.1859 2.87903 21.3501C2.86041 21.3657 2.84302 21.3831 2.82501 21.4011L0.77301 23.4491C0.257263 23.9633 0 24.6384 0 25.3134C0 26.666 1.13403 27.8644 2.47925 27.9422C2.53021 27.9456 2.58179 27.9471 2.63275 27.9471C3.27026 27.9471 3.90564 27.7179 4.40796 27.2592C4.41009 27.2577 4.41162 27.2552 4.41406 27.2537L4.41803 27.2498C4.41894 27.2491 4.41956 27.2482 4.42261 27.2452C4.4281 27.2406 4.43298 27.2357 4.43848 27.2311L4.15283 27.5153C4.11926 27.5488 4.0863 27.5824 4.0567 27.6175C4.05426 27.6199 4.05182 27.623 4.04938 27.6254C4.04785 27.627 4.04633 27.6279 4.04571 27.6294C4.01977 27.6575 3.99567 27.6865 3.97125 27.7155C3.64258 28.1082 3.44879 28.576 3.38928 29.0564C3.21259 30.4825 4.3631 31.8951 5.79254 32.0154C6.52344 32.0786 7.27447 31.8338 7.83783 31.2805L7.84943 31.2689L7.85431 31.265C7.36847 31.7578 7.11792 32.3956 7.10144 33.0386C7.09991 33.0621 7.09991 33.0856 7.09991 33.1088C7.09991 34.5355 8.31116 35.7425 9.73328 35.7425C10.123 35.7425 10.5118 35.657 10.8701 35.4858C11.1316 35.3607 11.3763 35.1901 11.5939 34.9734L12.7682 33.8022C12.7673 33.8028 12.7667 33.8037 12.7667 33.8046C12.7643 33.8062 12.7628 33.8077 12.7618 33.8092C12.7518 33.8202 12.7417 33.8318 12.7292 33.8458C12.7133 33.8617 12.7002 33.8773 12.6868 33.8928C12.6828 33.8968 12.6797 33.9008 12.6773 33.9047C12.1298 34.5337 11.9351 35.3629 12.0923 36.1343C12.3386 37.3425 13.4518 38.2556 14.6832 38.2565C15.3699 38.2571 16.0385 37.9806 16.5244 37.4957L17.5 36.5231L17.7066 36.3165C18.7253 35.3012 18.7268 33.652 17.7103 32.6334L17.6697 32.5919Z" fill="#E20613"/>
</svg>
