<svg width="40" height="40" viewBox="0 0 40 40" fill="none" xmlns="http://www.w3.org/2000/svg">
<path d="M25.0814 14.0229C26.3411 14.0229 27.3658 12.9981 27.3658 11.7384C27.3658 10.4788 26.3411 9.45392 25.0814 9.45392C23.8217 9.45392 22.7969 10.4788 22.7969 11.7384C22.7969 12.9981 23.8217 14.0229 25.0814 14.0229Z" fill="#E20613"/>
<path d="M17.8633 19.1674L19.9213 18.5492C20.4908 18.9821 21.1075 19.3386 21.7649 19.6152L22.258 21.7047H27.9065L28.3997 19.6152C29.0571 19.3387 29.6739 18.9821 30.2433 18.5492L32.3013 19.1674L35.1255 14.2757L33.5614 12.8028C33.6052 12.4503 33.6273 12.0943 33.6273 11.7384C33.6273 11.3825 33.6052 11.0265 33.5614 10.6741L35.1255 9.2012L32.3013 4.30946L30.2433 4.9277C29.6739 4.49476 29.0571 4.13823 28.3997 3.86168L27.9065 1.77216H22.258L21.7649 3.86168C21.1075 4.13823 20.4908 4.49476 19.9213 4.9277L17.8633 4.30946L15.0391 9.20112L16.6032 10.6741C16.5594 11.0264 16.5373 11.3824 16.5373 11.7384C16.5373 12.0944 16.5594 12.4504 16.6032 12.8028L15.0391 14.2757L17.8633 19.1674ZM25.0822 7.11034C27.6341 7.11034 29.7102 9.18651 29.7102 11.7384C29.7102 14.2903 27.6341 16.3665 25.0822 16.3665C22.5303 16.3665 20.4541 14.2903 20.4541 11.7384C20.4541 9.18651 22.5303 7.11034 25.0822 7.11034Z" fill="#E20613"/>
<path d="M39.2131 23.1132C38.6582 22.4886 37.8932 22.12 37.0591 22.0752C36.2247 22.0306 35.4247 22.3151 34.8062 22.8769L29.3268 27.8531C29.0466 30.3427 26.9293 32.2844 24.3661 32.2844H16.9164V29.9408H24.3135C25.7671 29.9408 27.0118 28.7521 27.0158 27.2986C27.0189 26.1651 26.3062 25.195 25.3053 24.8142C25.157 24.7578 24.9987 24.7299 24.8401 24.7298C24.8391 24.7298 24.8381 24.7298 24.8371 24.7298H18.5188C16.9907 23.1779 14.9048 22.298 12.7138 22.298C11.1436 22.298 9.62764 22.7503 8.33203 23.5775V36.4148L13.4472 38.1437H27.9155L39.0472 27.4084C40.2496 26.2487 40.3225 24.3621 39.2131 23.1132Z" fill="#E20613"/>
<path d="M3.07266 20.9458H0V38.2278H3.07266C4.31991 38.2278 5.40974 37.5441 5.98915 36.5321V22.6415C5.40974 21.6297 4.31991 20.9458 3.07266 20.9458Z" fill="#E20613"/>
</svg>
