<svg width="12" height="12" viewBox="0 0 12 12" fill="none" xmlns="http://www.w3.org/2000/svg">
<path fill-rule="evenodd" clip-rule="evenodd" d="M12 6C12 9.31371 9.31371 12 6 12C2.68629 12 0 9.31371 0 6C0 2.68629 2.68629 0 6 0C9.31371 0 12 2.68629 12 6ZM6 11C8.76142 11 11 8.76142 11 6C11 3.23858 8.76142 1 6 1C3.23858 1 1 3.23858 1 6C1 8.76142 3.23858 11 6 11Z" fill="#6D778B"/>
<path fill-rule="evenodd" clip-rule="evenodd" d="M6 2.75C6.41421 2.75 6.75 3.08579 6.75 3.5C6.75 3.91421 6.41421 4.25 6 4.25C5.58579 4.25 5.25 3.91421 5.25 3.5C5.25 3.08579 5.58579 2.75 6 2.75Z" fill="#6D778B"/>
<path fill-rule="evenodd" clip-rule="evenodd" d="M7 8.5C7 8.77614 6.77614 9 6.5 9H5.5C5.22386 9 5 8.77614 5 8.5C5 8.22386 5.22386 8 5.5 8L5.5 6C5.22386 6 5 5.77614 5 5.5C5 5.22386 5.22386 5 5.5 5L6.5 5L6.5 8C6.77614 8 7 8.22386 7 8.5Z" fill="#6D778B"/>
</svg>
