<svg width="40" height="40" viewBox="0 0 40 40" fill="none" xmlns="http://www.w3.org/2000/svg">
<rect width="40" height="40" rx="10" fill="#F4F4F4"/>
<g clip-path="url(#clip0_1_2810)">
<path d="M22.1142 22.1155C20.3907 23.8938 20.2654 26.1109 20.1165 30.968C24.6446 30.968 27.7704 30.9523 29.3842 29.3855C30.9511 27.7717 30.9667 24.497 30.9667 20.1178C26.1096 20.2745 23.8925 20.392 22.1142 22.1155ZM9.03125 20.1178C9.03125 24.497 9.04692 27.7717 10.6137 29.3855C12.2276 30.9523 15.3534 30.968 19.8815 30.968C19.7248 26.1109 19.6073 23.8938 17.8838 22.1155C16.1054 20.392 13.8884 20.2666 9.03125 20.1178ZM19.8815 9.03253C15.3612 9.03253 12.2276 9.0482 10.6137 10.615C9.04692 12.2288 9.03125 15.5035 9.03125 19.8828C13.8884 19.7261 16.1054 19.6086 17.8838 17.8851C19.6073 16.1067 19.7326 13.8897 19.8815 9.03253ZM22.1142 17.8851C20.3907 16.1067 20.2654 13.8897 20.1165 9.03253C24.6446 9.03253 27.7704 9.0482 29.3842 10.615C30.9511 12.2288 30.9667 15.5035 30.9667 19.8828C26.1096 19.7261 23.8925 19.6086 22.1142 17.8851Z" fill="#E20613"/>
<path d="M30.9667 20.1178V19.8828C26.1096 19.7261 23.8925 19.6086 22.1142 17.8851C20.3907 16.1067 20.2654 13.8897 20.1165 9.03253H19.8815C19.7248 13.8897 19.6073 16.1067 17.8838 17.8851C16.1054 19.6086 13.8884 19.7339 9.03125 19.8828V20.1178C13.8884 20.2745 16.1054 20.392 17.8838 22.1155C19.6073 23.8938 19.7326 26.1109 19.8815 30.968H20.1165C20.2732 26.1109 20.3907 23.8938 22.1142 22.1155C23.8925 20.392 26.1096 20.2666 30.9667 20.1178Z" fill="white"/>
</g>
<defs>
<clipPath id="clip0_1_2810">
<rect width="21.9355" height="21.9355" fill="white" transform="translate(9.03125 9.03229)"/>
</clipPath>
</defs>
</svg>
