<svg width="48" height="48" viewBox="0 0 48 48" fill="none" xmlns="http://www.w3.org/2000/svg">
<rect width="48" height="48" rx="10.8667" fill="#F4F4F4"/>
<g clip-path="url(#clip0_1_587)">
<path d="M26.5071 26.5071C24.4643 28.615 24.3157 31.2429 24.1393 37C29.5064 37 33.2114 36.9814 35.1243 35.1243C36.9814 33.2114 37 29.33 37 24.1393C31.2429 24.325 28.615 24.4643 26.5071 26.5071ZM11 24.1393C11 29.33 11.0186 33.2114 12.8757 35.1243C14.7886 36.9814 18.4936 37 23.8607 37C23.675 31.2429 23.5357 28.615 21.4929 26.5071C19.385 24.4643 16.7571 24.3157 11 24.1393ZM23.8607 11C18.5029 11 14.7886 11.0186 12.8757 12.8757C11.0186 14.7886 11 18.67 11 23.8607C16.7571 23.675 19.385 23.5357 21.4929 21.4929C23.5357 19.385 23.6843 16.7571 23.8607 11ZM26.5071 21.4929C24.4643 19.385 24.3157 16.7571 24.1393 11C29.5064 11 33.2114 11.0186 35.1243 12.8757C36.9814 14.7886 37 18.67 37 23.8607C31.2429 23.675 28.615 23.5357 26.5071 21.4929Z" fill="#E20613"/>
<path d="M37 24.1393V23.8607C31.2429 23.675 28.615 23.5357 26.5071 21.4929C24.4643 19.385 24.3157 16.7571 24.1393 11H23.8607C23.675 16.7571 23.5357 19.385 21.4929 21.4929C19.385 23.5357 16.7571 23.6843 11 23.8607V24.1393C16.7571 24.325 19.385 24.4643 21.4929 26.5071C23.5357 28.615 23.6843 31.2429 23.8607 37H24.1393C24.325 31.2429 24.4643 28.615 26.5071 26.5071C28.615 24.4643 31.2429 24.3157 37 24.1393Z" fill="white"/>
</g>
<defs>
<clipPath id="clip0_1_587">
<rect width="26" height="26" fill="white" transform="translate(11 11)"/>
</clipPath>
</defs>
</svg>
