<svg width="22" height="22" viewBox="0 0 22 22" fill="none" xmlns="http://www.w3.org/2000/svg">
<path d="M22 1.41935V7.09677H0V1.41935C0 1.04292 0.149539 0.6819 0.415719 0.415719C0.6819 0.149539 1.04292 0 1.41935 0H20.5806C20.9571 0 21.3181 0.149539 21.5843 0.415719C21.8505 0.6819 22 1.04292 22 1.41935Z" fill="#EEF2FA"/>
<path d="M0 7.09668H22V14.9031H0V7.09668Z" fill="#2448A8"/>
<path d="M22 14.9033V20.5807C22 20.9572 21.8505 21.3182 21.5843 21.5844C21.3181 21.8506 20.9571 22.0001 20.5806 22.0001H1.41935C1.04292 22.0001 0.6819 21.8506 0.415719 21.5844C0.149539 21.3182 0 20.9572 0 20.5807V14.9033H22Z" fill="#E21743"/>
<path d="M0 5.67773V7.09709H0.13129C0.0444475 6.62895 0.000501886 6.15386 0 5.67773Z" fill="#CDD2E1"/>
<path d="M21.9985 7.09709V5.67773C21.998 6.15386 21.954 6.62895 21.8672 7.09709H21.9985Z" fill="#CDD2E1"/>
<path d="M14.1935 13.4838H7.80645C5.98247 13.4835 4.21617 12.8445 2.81415 11.6778C1.41213 10.5111 0.462923 8.89026 0.13129 7.09668H0V14.9031H22V7.09668H21.8687C21.5371 8.89026 20.5879 10.5111 19.1858 11.6778C17.7838 12.8445 16.0175 13.4835 14.1935 13.4838Z" fill="#1F3D8F"/>
<path d="M0 20.5807C0 20.9572 0.149539 21.3182 0.415719 21.5844C0.6819 21.8506 1.04292 22.0001 1.41935 22.0001H20.5806C20.9571 22.0001 21.3181 21.8506 21.5843 21.5844C21.8505 21.3182 22 20.9572 22 20.5807V14.9033H0V20.5807Z" fill="#C7002B"/>
<path d="M20.5806 20.5805H1.41935C1.04292 20.5805 0.6819 20.4309 0.415719 20.1648C0.149539 19.8986 0 19.5376 0 19.1611V20.5805C0 20.9569 0.149539 21.3179 0.415719 21.5841C0.6819 21.8503 1.04292 21.9998 1.41935 21.9998H20.5806C20.9571 21.9998 21.3181 21.8503 21.5843 21.5841C21.8505 21.3179 22 20.9569 22 20.5805V19.1611C22 19.5376 21.8505 19.8986 21.5843 20.1648C21.3181 20.4309 20.9571 20.5805 20.5806 20.5805Z" fill="#960E2C"/>
<path d="M20.5806 0H1.41935C1.04292 0 0.6819 0.149539 0.415719 0.415719C0.149539 0.6819 0 1.04292 0 1.41935V2.83871C0 2.46227 0.149539 2.10125 0.415719 1.83507C0.6819 1.56889 1.04292 1.41935 1.41935 1.41935H20.5806C20.9571 1.41935 21.3181 1.56889 21.5843 1.83507C21.8505 2.10125 22 2.46227 22 2.83871V1.41935C22 1.04292 21.8505 0.6819 21.5843 0.415719C21.3181 0.149539 20.9571 0 20.5806 0Z" fill="#F7FAFF"/>
</svg>
