<svg width="20" height="18" viewBox="0 0 20 18" fill="none" xmlns="http://www.w3.org/2000/svg">
<path d="M14.5 0C12.7083 0.00271664 11.0299 0.860697 10 2.30004C8.97005 0.860697 7.29167 0.00271664 5.5 0C2.56999 0 0 2.67653 0 5.72732C0 8.70061 1.70996 11.7629 4.94531 14.5834C6.44434 15.8877 8.08871 17.0215 9.84701 17.9636C9.94303 18.0121 10.057 18.0121 10.153 17.9636C11.9106 17.0215 13.5545 15.8876 15.0531 14.5834C18.29 11.7629 20 8.70061 20 5.72732C20 2.67653 17.43 0 14.5 0ZM10 17.3007C8.77572 16.6374 0.666667 12.0031 0.666667 5.72732C0.666667 3.02506 2.92497 0.654551 5.5 0.654551C7.24447 0.657588 8.85254 1.58157 9.70964 3.07348C9.77376 3.16968 9.88298 3.22753 10 3.22753C10.117 3.22753 10.2262 3.16968 10.2904 3.07348C11.1475 1.58157 12.7555 0.657588 14.5 0.654551C17.075 0.654551 19.3333 3.02506 19.3333 5.72732C19.3333 12.0031 11.2243 16.6374 10 17.3007Z" fill="#888888"/>
<path d="M10 17.3007C8.77572 16.6374 0.666667 12.0031 0.666667 5.72732C0.666667 3.02506 2.92497 0.654551 5.5 0.654551C7.24447 0.657588 8.85254 1.58157 9.70964 3.07348C9.77376 3.16968 9.88298 3.22753 10 3.22753C10.117 3.22753 10.2262 3.16968 10.2904 3.07348C11.1475 1.58157 12.7555 0.657588 14.5 0.654551C17.075 0.654551 19.3333 3.02506 19.3333 5.72732C19.3333 12.0031 11.2243 16.6374 10 17.3007Z" fill="#888888"/>
</svg>
