<svg width="28" height="25" viewBox="0 0 28 25" fill="none" xmlns="http://www.w3.org/2000/svg">
<path d="M19.7781 0.200195C17.3594 0.203818 15.0936 1.34779 13.7031 3.26691C12.3127 1.34779 10.0469 0.203818 7.62813 0.200195C3.67261 0.200195 0.203125 3.76891 0.203125 7.83663C0.203125 11.801 2.51157 15.8841 6.8793 19.6448C8.90298 21.3838 11.1229 22.8956 13.4966 24.1516C13.6262 24.2164 13.78 24.2164 13.9097 24.1516C16.2825 22.8956 18.5017 21.3836 20.5248 19.6448C24.8947 15.8841 27.2031 11.801 27.2031 7.83663C27.2031 3.76891 23.7336 0.200195 19.7781 0.200195ZM13.7031 23.2678C12.0503 22.3833 1.10313 16.2043 1.10313 7.83663C1.10313 4.23361 4.15183 1.07293 7.62813 1.07293C9.98315 1.07698 12.1541 2.30895 13.3111 4.29817C13.3977 4.42644 13.5451 4.50357 13.7031 4.50357C13.8611 4.50357 14.0085 4.42644 14.0951 4.29817C15.2522 2.30895 17.4231 1.07698 19.7781 1.07293C23.2544 1.07293 26.3031 4.23361 26.3031 7.83663C26.3031 16.2043 15.3559 22.3833 13.7031 23.2678Z" fill="#1C1C1C"/>
<path d="M13.7031 23.2678C12.0503 22.3833 1.10313 16.2043 1.10313 7.83663C1.10313 4.23361 4.15183 1.07293 7.62813 1.07293C9.98315 1.07698 12.1541 2.30895 13.3111 4.29817C13.3977 4.42644 13.5451 4.50357 13.7031 4.50357C13.8611 4.50357 14.0085 4.42644 14.0951 4.29817C15.2522 2.30895 17.4231 1.07698 19.7781 1.07293C23.2544 1.07293 26.3031 4.23361 26.3031 7.83663C26.3031 16.2043 15.3559 22.3833 13.7031 23.2678Z" fill="#1C1C1C"/>
<path d="M19.7781 0.200195C17.3594 0.203818 15.0936 1.34779 13.7031 3.26691C12.3127 1.34779 10.0469 0.203818 7.62813 0.200195C3.67261 0.200195 0.203125 3.76891 0.203125 7.83663C0.203125 11.801 2.51157 15.8841 6.8793 19.6448C8.90298 21.3838 11.1229 22.8956 13.4966 24.1516C13.6262 24.2164 13.78 24.2164 13.9097 24.1516C16.2825 22.8956 18.5017 21.3836 20.5248 19.6448C24.8947 15.8841 27.2031 11.801 27.2031 7.83663C27.2031 3.76891 23.7336 0.200195 19.7781 0.200195ZM13.7031 23.2678C12.0503 22.3833 1.10313 16.2043 1.10313 7.83663C1.10313 4.23361 4.15183 1.07293 7.62813 1.07293C9.98315 1.07698 12.1541 2.30895 13.3111 4.29817C13.3977 4.42644 13.5451 4.50357 13.7031 4.50357C13.8611 4.50357 14.0085 4.42644 14.0951 4.29817C15.2522 2.30895 17.4231 1.07698 19.7781 1.07293C23.2544 1.07293 26.3031 4.23361 26.3031 7.83663C26.3031 16.2043 15.3559 22.3833 13.7031 23.2678Z" stroke="#1C1C1C" stroke-width="0.4"/>
<path d="M13.7031 23.2678C12.0503 22.3833 1.10313 16.2043 1.10313 7.83663C1.10313 4.23361 4.15183 1.07293 7.62813 1.07293C9.98315 1.07698 12.1541 2.30895 13.3111 4.29817C13.3977 4.42644 13.5451 4.50357 13.7031 4.50357C13.8611 4.50357 14.0085 4.42644 14.0951 4.29817C15.2522 2.30895 17.4231 1.07698 19.7781 1.07293C23.2544 1.07293 26.3031 4.23361 26.3031 7.83663C26.3031 16.2043 15.3559 22.3833 13.7031 23.2678Z" stroke="#1C1C1C" stroke-width="0.4"/>
</svg>
