<svg width="22" height="22" viewBox="0 0 22 22" fill="none" xmlns="http://www.w3.org/2000/svg">
<path d="M22 1.41935V7.09677H0V1.41935C0 1.04292 0.149539 0.6819 0.415719 0.415719C0.6819 0.149539 1.04292 0 1.41935 0H20.5806C20.9571 0 21.3181 0.149539 21.5843 0.415719C21.8505 0.6819 22 1.04292 22 1.41935Z" fill="#FF9933"/>
<path d="M0 7.0968H22V14.9033H0V7.0968Z" fill="#EEF2FA"/>
<path d="M22 14.9032V20.5806C22 20.9571 21.8505 21.3181 21.5843 21.5843C21.3181 21.8505 20.9571 22 20.5806 22H1.41935C1.04292 22 0.6819 21.8505 0.415719 21.5843C0.149539 21.3181 0 20.9571 0 20.5806V14.9032H22Z" fill="#009B3A"/>
<path d="M10.9982 14.1936C10.3666 14.1936 9.74917 14.0063 9.224 13.6553C8.69882 13.3044 8.2895 12.8057 8.04778 12.2221C7.80607 11.6386 7.74283 10.9965 7.86605 10.377C7.98928 9.75749 8.29343 9.18845 8.74006 8.74183C9.18668 8.2952 9.75572 7.99105 10.3752 7.86782C10.9947 7.7446 11.6368 7.80784 12.2204 8.04955C12.8039 8.29127 13.3027 8.70059 13.6536 9.22577C14.0045 9.75094 14.1918 10.3684 14.1918 11C14.1908 11.8467 13.8541 12.6584 13.2554 13.2572C12.6567 13.8559 11.8449 14.1926 10.9982 14.1936ZM10.9982 8.51614C10.507 8.51614 10.0267 8.66181 9.61827 8.93474C9.2098 9.20768 8.89144 9.5956 8.70344 10.0495C8.51544 10.5033 8.46625 11.0028 8.56209 11.4846C8.65793 11.9664 8.8945 12.409 9.24188 12.7564C9.58925 13.1037 10.0318 13.3403 10.5137 13.4362C10.9955 13.532 11.4949 13.4828 11.9488 13.2948C12.4026 13.1068 12.7906 12.7884 13.0635 12.38C13.3364 11.9715 13.4821 11.4913 13.4821 11C13.4814 10.3415 13.2194 9.71013 12.7538 9.24448C12.2881 8.77882 11.6568 8.51689 10.9982 8.51614Z" fill="#1F3D8F"/>
<path d="M12.7704 10.6452H11.9954C11.9835 10.6107 11.9697 10.5769 11.9539 10.544L12.3116 10.1864C12.3762 10.1194 12.412 10.0298 12.4112 9.93676C12.4104 9.84373 12.3731 9.75473 12.3073 9.68894C12.2415 9.62315 12.1525 9.58583 12.0595 9.58502C11.9664 9.58421 11.8768 9.61998 11.8099 9.68462L11.4522 10.0419C11.4193 10.0263 11.3855 10.0126 11.3511 10.0008V9.22581C11.3511 9.1317 11.3137 9.04145 11.2471 8.9749C11.1806 8.90836 11.0903 8.87097 10.9962 8.87097C10.9021 8.87097 10.8119 8.90836 10.7453 8.9749C10.6788 9.04145 10.6414 9.1317 10.6414 9.22581V10.0008C10.6069 10.0127 10.5732 10.0266 10.5403 10.0423L10.1826 9.68462C10.1157 9.61998 10.026 9.58421 9.93298 9.58502C9.83994 9.58583 9.75095 9.62315 9.68516 9.68894C9.61937 9.75473 9.58205 9.84373 9.58124 9.93676C9.58043 10.0298 9.6162 10.1194 9.68083 10.1864L10.0382 10.544C10.0224 10.5769 10.0086 10.6107 9.99664 10.6452H9.22203C9.12792 10.6452 9.03766 10.6825 8.97112 10.7491C8.90457 10.8156 8.86719 10.9059 8.86719 11C8.86719 11.0941 8.90457 11.1844 8.97112 11.2509C9.03766 11.3175 9.12792 11.3548 9.22203 11.3548H9.99699C10.0089 11.3893 10.0228 11.4231 10.0385 11.456L9.68083 11.8136C9.64694 11.8464 9.61991 11.8855 9.60131 11.9288C9.58272 11.9721 9.57293 12.0187 9.57252 12.0658C9.57211 12.1129 9.58109 12.1596 9.59893 12.2032C9.61677 12.2469 9.64312 12.2865 9.67643 12.3198C9.70975 12.3531 9.74937 12.3795 9.79298 12.3973C9.83659 12.4151 9.88331 12.4241 9.93043 12.4237C9.97754 12.4233 10.0241 12.4135 10.0674 12.3949C10.1107 12.3763 10.1498 12.3493 10.1826 12.3154L10.5403 11.9581C10.5732 11.9738 10.6069 11.9876 10.6414 11.9996V12.7742C10.6414 12.8683 10.6788 12.9586 10.7453 13.0251C10.8119 13.0917 10.9021 13.129 10.9962 13.129C11.0903 13.129 11.1806 13.0917 11.2471 13.0251C11.3137 12.9586 11.3511 12.8683 11.3511 12.7742V11.9992C11.3855 11.9873 11.4193 11.9734 11.4522 11.9577L11.8099 12.3154C11.8768 12.38 11.9664 12.4158 12.0595 12.415C12.1525 12.4142 12.2415 12.3769 12.3073 12.3111C12.3731 12.2453 12.4104 12.1563 12.4112 12.0632C12.412 11.9702 12.3762 11.8806 12.3116 11.8136L11.9543 11.456C11.9699 11.4231 11.9836 11.3893 11.9954 11.3548H12.7704C12.8645 11.3548 12.9548 11.3175 13.0213 11.2509C13.0879 11.1844 13.1253 11.0941 13.1253 11C13.1253 10.9059 13.0879 10.8156 13.0213 10.7491C12.9548 10.6825 12.8645 10.6452 12.7704 10.6452Z" fill="#1F3D8F"/>
<path d="M0 5.67743V7.09678H0.13129C0.0444475 6.62864 0.000501886 6.15356 0 5.67743Z" fill="#FF8000"/>
<path d="M21.9985 7.09678V5.67743C21.998 6.15356 21.954 6.62864 21.8672 7.09678H21.9985Z" fill="#FF8000"/>
<path d="M14.1935 13.4839H7.80645C5.98247 13.4836 4.21617 12.8447 2.81415 11.6779C1.41213 10.5112 0.462923 8.89038 0.13129 7.0968H0V14.9033H22V7.0968H21.8687C21.5371 8.89038 20.5879 10.5112 19.1858 11.6779C17.7838 12.8447 16.0175 13.4836 14.1935 13.4839Z" fill="#CDD2E1"/>
<path d="M0 20.5806C0 20.9571 0.149539 21.3181 0.415719 21.5843C0.6819 21.8505 1.04292 22 1.41935 22H20.5806C20.9571 22 21.3181 21.8505 21.5843 21.5843C21.8505 21.3181 22 20.9571 22 20.5806V14.9032H0V20.5806Z" fill="#128807"/>
<path d="M20.5806 20.5806H1.41935C1.04292 20.5806 0.6819 20.4311 0.415719 20.1649C0.149539 19.8987 0 19.5377 0 19.1613V20.5806C0 20.9571 0.149539 21.3181 0.415719 21.5843C0.6819 21.8505 1.04292 22 1.41935 22H20.5806C20.9571 22 21.3181 21.8505 21.5843 21.5843C21.8505 21.3181 22 20.9571 22 20.5806V19.1613C22 19.5377 21.8505 19.8987 21.5843 20.1649C21.3181 20.4311 20.9571 20.5806 20.5806 20.5806Z" fill="#006927"/>
<path d="M20.5806 0H1.41935C1.04292 0 0.6819 0.149539 0.415719 0.415719C0.149539 0.6819 0 1.04292 0 1.41935V2.83871C0 2.46227 0.149539 2.10125 0.415719 1.83507C0.6819 1.56889 1.04292 1.41935 1.41935 1.41935H20.5806C20.9571 1.41935 21.3181 1.56889 21.5843 1.83507C21.8505 2.10125 22 2.46227 22 2.83871V1.41935C22 1.04292 21.8505 0.6819 21.5843 0.415719C21.3181 0.149539 20.9571 0 20.5806 0Z" fill="#FFBA75"/>
<path d="M13.0054 13.4839H9C9.56649 13.943 10.2735 14.1935 11.0027 14.1935C11.7319 14.1935 12.4389 13.943 13.0054 13.4839Z" fill="#172E6B"/>
</svg>
