<svg width="22" height="22" viewBox="0 0 22 22" fill="none" xmlns="http://www.w3.org/2000/svg">
<path d="M22.003 1.41935V20.5806C22.003 20.9571 21.8535 21.3181 21.5873 21.5843C21.3211 21.8505 20.9601 22 20.5837 22H14.9062V0H20.5837C20.9601 0 21.3211 0.149539 21.5873 0.415719C21.8535 0.6819 22.003 1.04292 22.003 1.41935Z" fill="#E21743"/>
<path d="M7.09375 0H14.9002V22H7.09375V0Z" fill="#EEF2FA"/>
<path d="M7.09677 0V22H1.41935C1.04292 22 0.6819 21.8505 0.415719 21.5843C0.149539 21.3181 0 20.9571 0 20.5806V1.41935C0 1.04292 0.149539 0.6819 0.415719 0.415719C0.6819 0.149539 1.04292 0 1.41935 0H7.09677Z" fill="#009E60"/>
<path d="M14.9062 13.4502V22H20.5837C20.9601 22 21.3211 21.8505 21.5873 21.5843C21.8535 21.3181 22.003 20.9571 22.003 20.5807V5.67743C22.0027 7.62473 21.2746 9.5016 19.9616 10.9397C18.6486 12.3777 16.8455 13.2731 14.9062 13.4502Z" fill="#C7002B"/>
<path d="M14.1905 13.4839H7.80343C7.56391 13.4839 7.32759 13.4715 7.09375 13.4502V22H14.9002V13.4502C14.6664 13.4715 14.43 13.4839 14.1905 13.4839Z" fill="#DCE1EB"/>
<path d="M0 5.67743V20.5807C0 20.9571 0.149539 21.3181 0.415719 21.5843C0.6819 21.8505 1.04292 22 1.41935 22H7.09677V13.4502C5.15753 13.2731 3.35447 12.3777 2.04147 10.9397C0.728472 9.5016 0.00034541 7.62473 0 5.67743Z" fill="#008F57"/>
<path d="M1.41935 20.5806C1.04292 20.5806 0.6819 20.4311 0.415719 20.1649C0.149539 19.8987 0 19.5377 0 19.1613V20.5806C0 20.9571 0.149539 21.3181 0.415719 21.5843C0.6819 21.8505 1.04292 22 1.41935 22H7.09677V20.5806H1.41935Z" fill="#007145"/>
<path d="M7.09375 20.5807H14.9002V22H7.09375V20.5807Z" fill="#CDD2E1"/>
<path d="M20.5837 22C20.9601 22 21.3211 21.8505 21.5873 21.5843C21.8535 21.3181 22.003 20.9571 22.003 20.5806V19.1613C22.003 19.5377 21.8535 19.8987 21.5873 20.1649C21.3211 20.4311 20.9601 20.5806 20.5837 20.5806H14.9062V22H20.5837Z" fill="#B51135"/>
<path d="M20.5837 1.41935C20.9601 1.41935 21.3211 1.56889 21.5873 1.83507C21.8535 2.10125 22.003 2.46227 22.003 2.83871V1.41935C22.003 1.04292 21.8535 0.6819 21.5873 0.415719C21.3211 0.149539 20.9601 0 20.5837 0H14.9062V1.41935H20.5837Z" fill="#EA5172"/>
<path d="M1.41935 0C1.04292 0 0.6819 0.149539 0.415719 0.415719C0.149539 0.6819 0 1.04292 0 1.41935V2.83871C0 2.46227 0.149539 2.10125 0.415719 1.83507C0.6819 1.56889 1.04292 1.41935 1.41935 1.41935H7.09677V0H1.41935Z" fill="#00E088"/>
<path d="M7.09375 0H14.9002V1.41935H7.09375V0Z" fill="#F7FAFF"/>
</svg>
