<svg width="25" height="25" viewBox="0 0 25 25" fill="none" xmlns="http://www.w3.org/2000/svg">
<path d="M12.2033 0.200195C9.80786 0.202399 7.46778 0.920149 5.48375 2.26122C3.49971 3.6023 1.96236 5.50543 1.06922 7.72609C0.176086 9.94676 -0.0320367 12.3835 0.471597 14.7232C0.97523 17.063 2.16761 19.1988 3.89554 20.8564L3.94358 20.9004C6.17084 23.0187 9.12819 24.2002 12.2033 24.2002C15.2784 24.2002 18.2358 23.0187 20.4631 20.9004L20.5111 20.8564C22.239 19.1988 23.4314 17.063 23.935 14.7232C24.4387 12.3835 24.2305 9.94676 23.3374 7.72609C22.4443 5.50543 20.9069 3.6023 18.9229 2.26122C16.9389 0.920149 14.5988 0.202399 12.2033 0.200195ZM4.59619 20.4164V17.8003C4.59619 16.8456 4.97583 15.9299 5.6516 15.2547C6.32736 14.5796 7.24389 14.2003 8.19957 14.2003H16.2071C17.1627 14.2003 18.0793 14.5796 18.755 15.2547C19.4308 15.9299 19.8104 16.8456 19.8104 17.8003V20.4164C17.7423 22.3341 15.025 23.3998 12.2033 23.3998C9.38168 23.3998 6.66434 22.3341 4.59619 20.4164ZM20.6112 19.5964V17.8003C20.6112 16.6334 20.1472 15.5142 19.3213 14.689C18.4953 13.8639 17.3751 13.4003 16.2071 13.4003H8.19957C7.03152 13.4003 5.91131 13.8639 5.08538 14.689C4.25945 15.5142 3.79544 16.6334 3.79544 17.8003V19.5964C2.36843 17.9798 1.43863 15.9862 1.11762 13.8547C0.796596 11.7233 1.09799 9.54459 1.98564 7.58005C2.87329 5.61551 4.30948 3.94859 6.12188 2.77932C7.93428 1.61005 10.0459 0.988098 12.2033 0.988098C14.3607 0.988098 16.4724 1.61005 18.2848 2.77932C20.0971 3.94859 21.5333 5.61551 22.421 7.58005C23.3086 9.54459 23.61 11.7233 23.289 13.8547C22.968 15.9862 22.0382 17.9798 20.6112 19.5964Z" fill="#1C1C1C"/>
<path d="M4.59619 20.4164V17.8003C4.59619 16.8456 4.97583 15.9299 5.6516 15.2547C6.32736 14.5796 7.24389 14.2003 8.19957 14.2003H16.2071C17.1627 14.2003 18.0793 14.5796 18.755 15.2547C19.4308 15.9299 19.8104 16.8456 19.8104 17.8003V20.4164C17.7423 22.3341 15.025 23.3998 12.2033 23.3998C9.38168 23.3998 6.66434 22.3341 4.59619 20.4164Z" fill="#1C1C1C"/>
<path d="M12.2033 0.200195C9.80786 0.202399 7.46778 0.920149 5.48375 2.26122C3.49971 3.6023 1.96236 5.50543 1.06922 7.72609C0.176086 9.94676 -0.0320367 12.3835 0.471597 14.7232C0.97523 17.063 2.16761 19.1988 3.89554 20.8564L3.94358 20.9004C6.17084 23.0187 9.12819 24.2002 12.2033 24.2002C15.2784 24.2002 18.2358 23.0187 20.4631 20.9004L20.5111 20.8564C22.239 19.1988 23.4314 17.063 23.935 14.7232C24.4387 12.3835 24.2305 9.94676 23.3374 7.72609C22.4443 5.50543 20.9069 3.6023 18.9229 2.26122C16.9389 0.920149 14.5988 0.202399 12.2033 0.200195ZM4.59619 20.4164V17.8003C4.59619 16.8456 4.97583 15.9299 5.6516 15.2547C6.32736 14.5796 7.24389 14.2003 8.19957 14.2003H16.2071C17.1627 14.2003 18.0793 14.5796 18.755 15.2547C19.4308 15.9299 19.8104 16.8456 19.8104 17.8003V20.4164C17.7423 22.3341 15.025 23.3998 12.2033 23.3998C9.38168 23.3998 6.66434 22.3341 4.59619 20.4164ZM20.6112 19.5964V17.8003C20.6112 16.6334 20.1472 15.5142 19.3213 14.689C18.4953 13.8639 17.3751 13.4003 16.2071 13.4003H8.19957C7.03152 13.4003 5.91131 13.8639 5.08538 14.689C4.25945 15.5142 3.79544 16.6334 3.79544 17.8003V19.5964C2.36843 17.9798 1.43863 15.9862 1.11762 13.8547C0.796596 11.7233 1.09799 9.54459 1.98564 7.58005C2.87329 5.61551 4.30948 3.94859 6.12188 2.77932C7.93428 1.61005 10.0459 0.988098 12.2033 0.988098C14.3607 0.988098 16.4724 1.61005 18.2848 2.77932C20.0971 3.94859 21.5333 5.61551 22.421 7.58005C23.3086 9.54459 23.61 11.7233 23.289 13.8547C22.968 15.9862 22.0382 17.9798 20.6112 19.5964Z" stroke="#1C1C1C" stroke-width="0.4"/>
<path d="M4.59619 20.4164V17.8003C4.59619 16.8456 4.97583 15.9299 5.6516 15.2547C6.32736 14.5796 7.24389 14.2003 8.19957 14.2003H16.2071C17.1627 14.2003 18.0793 14.5796 18.755 15.2547C19.4308 15.9299 19.8104 16.8456 19.8104 17.8003V20.4164C17.7423 22.3341 15.025 23.3998 12.2033 23.3998C9.38168 23.3998 6.66434 22.3341 4.59619 20.4164Z" stroke="#1C1C1C" stroke-width="0.4"/>
<path d="M12.2031 3.2002C11.2142 3.2002 10.2475 3.49344 9.42528 4.04285C8.60303 4.59225 7.96217 5.37315 7.58373 6.28678C7.20529 7.20041 7.10627 8.20574 7.2992 9.17564C7.49213 10.1455 7.96833 11.0365 8.66759 11.7357C9.36686 12.435 10.2578 12.9112 11.2277 13.1041C12.1976 13.297 13.2029 13.198 14.1165 12.8196C15.0302 12.4412 15.8111 11.8003 16.3605 10.978C16.9099 10.1558 17.2031 9.1891 17.2031 8.20019C17.2031 6.87411 16.6763 5.60234 15.7387 4.66466C14.801 3.72698 13.5292 3.2002 12.2031 3.2002ZM12.2031 12.3669C11.379 12.3669 10.5735 12.1225 9.88825 11.6646C9.20305 11.2068 8.66899 10.5561 8.35363 9.79471C8.03826 9.03335 7.95575 8.19557 8.11652 7.38732C8.27729 6.57906 8.67413 5.83663 9.25685 5.25392C9.83957 4.6712 10.582 4.27436 11.3903 4.11359C12.1985 3.95282 13.0363 4.03533 13.7976 4.3507C14.559 4.66606 15.2097 5.20011 15.6676 5.88532C16.1254 6.57052 16.3698 7.37611 16.3698 8.20019C16.3698 9.30526 15.9308 10.3651 15.1494 11.1465C14.368 11.9279 13.3082 12.3669 12.2031 12.3669Z" fill="#1C1C1C"/>
<path d="M12.2031 12.3669C11.379 12.3669 10.5735 12.1225 9.88825 11.6646C9.20305 11.2068 8.66899 10.5561 8.35363 9.79471C8.03826 9.03335 7.95575 8.19557 8.11652 7.38732C8.27729 6.57906 8.67413 5.83663 9.25685 5.25392C9.83957 4.6712 10.582 4.27436 11.3903 4.11359C12.1985 3.95282 13.0363 4.03533 13.7976 4.3507C14.559 4.66606 15.2097 5.20011 15.6676 5.88532C16.1254 6.57052 16.3698 7.37611 16.3698 8.20019C16.3698 9.30526 15.9308 10.3651 15.1494 11.1465C14.368 11.9279 13.3082 12.3669 12.2031 12.3669Z" fill="#1C1C1C"/>
<path d="M12.2031 3.2002C11.2142 3.2002 10.2475 3.49344 9.42528 4.04285C8.60303 4.59225 7.96217 5.37315 7.58373 6.28678C7.20529 7.20041 7.10627 8.20574 7.2992 9.17564C7.49213 10.1455 7.96833 11.0365 8.66759 11.7357C9.36686 12.435 10.2578 12.9112 11.2277 13.1041C12.1976 13.297 13.2029 13.198 14.1165 12.8196C15.0302 12.4412 15.8111 11.8003 16.3605 10.978C16.9099 10.1558 17.2031 9.1891 17.2031 8.20019C17.2031 6.87411 16.6763 5.60234 15.7387 4.66466C14.801 3.72698 13.5292 3.2002 12.2031 3.2002ZM12.2031 12.3669C11.379 12.3669 10.5735 12.1225 9.88825 11.6646C9.20305 11.2068 8.66899 10.5561 8.35363 9.79471C8.03826 9.03335 7.95575 8.19557 8.11652 7.38732C8.27729 6.57906 8.67413 5.83663 9.25685 5.25392C9.83957 4.6712 10.582 4.27436 11.3903 4.11359C12.1985 3.95282 13.0363 4.03533 13.7976 4.3507C14.559 4.66606 15.2097 5.20011 15.6676 5.88532C16.1254 6.57052 16.3698 7.37611 16.3698 8.20019C16.3698 9.30526 15.9308 10.3651 15.1494 11.1465C14.368 11.9279 13.3082 12.3669 12.2031 12.3669Z" stroke="#1C1C1C" stroke-width="0.4"/>
<path d="M12.2031 12.3669C11.379 12.3669 10.5735 12.1225 9.88825 11.6646C9.20305 11.2068 8.66899 10.5561 8.35363 9.79471C8.03826 9.03335 7.95575 8.19557 8.11652 7.38732C8.27729 6.57906 8.67413 5.83663 9.25685 5.25392C9.83957 4.6712 10.582 4.27436 11.3903 4.11359C12.1985 3.95282 13.0363 4.03533 13.7976 4.3507C14.559 4.66606 15.2097 5.20011 15.6676 5.88532C16.1254 6.57052 16.3698 7.37611 16.3698 8.20019C16.3698 9.30526 15.9308 10.3651 15.1494 11.1465C14.368 11.9279 13.3082 12.3669 12.2031 12.3669Z" stroke="#1C1C1C" stroke-width="0.4"/>
</svg>
