<svg width="48" height="48" viewBox="0 0 48 48" fill="none" xmlns="http://www.w3.org/2000/svg">
<g filter="url(#filter0_d_1_2694)">
<g clip-path="url(#clip0_1_2694)">
<path d="M37.75 2.39999H10.25C6.79822 2.39999 4 5.19821 4 8.64999V36.15C4 39.6018 6.79822 42.4 10.25 42.4H37.75C41.2018 42.4 44 39.6018 44 36.15V8.64999C44 5.19821 41.2018 2.39999 37.75 2.39999Z" fill="#4BC2FD"/>
<g filter="url(#filter1_f_1_2694)">
<circle cx="24.0034" cy="7.61735" r="26.9565" fill="#2245FA"/>
</g>
<g filter="url(#filter2_f_1_2694)">
<circle cx="47.0428" cy="31.5304" r="25.6522" fill="#A361DF"/>
</g>
<g filter="url(#filter3_f_1_2694)">
<circle cx="28.3505" cy="13.7043" r="13.913" fill="#1E3CD4"/>
</g>
<g filter="url(#filter4_f_1_2694)">
<circle cx="38.3485" cy="8.05221" r="11.7391" fill="#8C4CE7"/>
</g>
<g filter="url(#filter5_f_1_2694)">
<circle cx="40.9586" cy="23.7043" r="9.13043" fill="#9840DB"/>
</g>
</g>
<path d="M23.757 12.8432C24.0624 12.8315 24.4091 12.8326 24.7149 12.8432C24.852 12.848 25.0505 12.8549 25.1823 12.864C25.3827 12.8782 25.5578 12.8899 25.7494 12.9162C28.3118 13.2639 30.9547 14.771 32.4923 16.7458C35.1391 20.1456 35.2578 24.9854 32.7222 28.4531C31.8275 29.6767 30.4639 30.8164 29.0827 31.5169C27.995 32.0681 26.8536 32.4001 25.6348 32.5745C25.4628 32.599 24.7528 32.6354 24.6831 32.6406C24.4647 32.6562 23.8494 32.6449 23.8494 32.6449L23.4156 32.6406L23.0815 32.6147L22.9087 32.5953L22.7337 32.5628L22.6179 32.5406C22.6179 32.5406 21.7566 32.3735 21.267 32.1736C20.9463 32.0426 20.6432 31.8741 20.3474 31.6993C19.834 31.3961 19.4157 31.4991 18.9256 31.8385C18.761 31.9525 18.5902 32.0537 18.4317 32.1371C18.0731 32.3261 17.6103 32.4997 17.2141 32.6008C17.201 32.6041 17.1771 32.6087 17.1462 32.6143C16.8581 32.6658 16.3962 32.7205 16.1036 32.7205C16.0471 32.7205 15.9909 32.7117 15.9374 32.6937C15.7528 32.6317 15.5177 32.5437 15.3865 32.4286C15.3827 32.4253 15.379 32.4219 15.3753 32.4184C15.0389 32.1044 15.0866 31.5754 15.0605 31.1159C15.0543 31.0065 15.0417 30.8952 15.0221 30.7876C15.0175 30.761 14.9842 30.7537 14.9838 30.7511C14.9791 30.7272 14.9829 30.7024 14.981 30.6781C14.8809 29.4443 14.4223 28.261 14.1286 27.0609C13.8455 25.904 13.7072 24.772 13.5662 23.6027C13.5455 22.6126 13.6095 21.6188 13.8141 20.6472C14.034 19.602 14.2831 19.0562 14.7394 18.1161C16.0693 15.8541 18.334 14.1135 20.9222 13.3175C21.1666 13.2423 21.4402 13.1537 21.6884 13.0986C22.2076 12.9833 22.8038 12.9191 23.336 12.8797C23.4773 12.8691 23.6168 12.8487 23.7574 12.8432H23.757ZM23.3532 17.7697C23.3529 17.7698 23.3527 17.7699 23.3524 17.7699C23.1418 17.7911 22.6653 17.9027 22.4551 17.9672C20.8532 18.4601 19.6355 19.7766 19.1728 21.2969C19.165 21.3225 19.1328 21.335 19.1221 21.3594C18.6608 22.9657 18.6539 24.8209 19.0708 26.4403C19.1451 26.7293 19.4486 27.7351 19.7616 27.8252C20.8315 28.1335 21.8726 27.3578 22.9501 27.6384C23.1882 27.7004 23.4317 27.7429 23.6804 27.7595C23.7183 27.7621 23.7574 27.7577 23.7953 27.7595C23.9766 27.7679 24.1884 27.7672 24.3701 27.7595C24.9425 27.7351 25.3317 27.6472 25.8643 27.4677C26.4137 27.2827 26.6973 27.128 27.167 26.8114C29.6218 25.1561 30.1578 22.1106 28.3705 19.7753C28.185 19.5331 27.9498 19.2018 27.667 19.0106C27.631 18.98 27.6107 18.9654 27.5804 18.942C27.4961 18.8928 27.4318 18.8402 27.359 18.7873C26.816 18.3922 25.8923 17.9362 25.2298 17.8399C24.8279 17.7815 24.0566 17.7385 24.0566 17.7385C24.0566 17.7385 23.7287 17.7275 23.636 17.7381C23.5434 17.7487 23.4143 17.7632 23.354 17.7694C23.3537 17.7695 23.3534 17.7695 23.3532 17.7697Z" fill="white"/>
</g>
<defs>
<filter id="filter0_d_1_2694" x="0" y="-6.07967e-06" width="48" height="48" filterUnits="userSpaceOnUse" color-interpolation-filters="sRGB">
<feFlood flood-opacity="0" result="BackgroundImageFix"/>
<feColorMatrix in="SourceAlpha" type="matrix" values="0 0 0 0 0 0 0 0 0 0 0 0 0 0 0 0 0 0 127 0" result="hardAlpha"/>
<feOffset dy="1.6"/>
<feGaussianBlur stdDeviation="2"/>
<feComposite in2="hardAlpha" operator="out"/>
<feColorMatrix type="matrix" values="0 0 0 0 0 0 0 0 0 0 0 0 0 0 0 0 0 0 0.2 0"/>
<feBlend mode="normal" in2="BackgroundImageFix" result="effect1_dropShadow_1_2694"/>
<feBlend mode="normal" in="SourceGraphic" in2="effect1_dropShadow_1_2694" result="shape"/>
</filter>
<filter id="filter1_f_1_2694" x="-18.1531" y="-34.5392" width="84.3141" height="84.3131" filterUnits="userSpaceOnUse" color-interpolation-filters="sRGB">
<feFlood flood-opacity="0" result="BackgroundImageFix"/>
<feBlend mode="normal" in="SourceGraphic" in2="BackgroundImageFix" result="shape"/>
<feGaussianBlur stdDeviation="7.6" result="effect1_foregroundBlur_1_2694"/>
</filter>
<filter id="filter2_f_1_2694" x="6.19063" y="-9.3218" width="81.7047" height="81.7044" filterUnits="userSpaceOnUse" color-interpolation-filters="sRGB">
<feFlood flood-opacity="0" result="BackgroundImageFix"/>
<feBlend mode="normal" in="SourceGraphic" in2="BackgroundImageFix" result="shape"/>
<feGaussianBlur stdDeviation="7.6" result="effect1_foregroundBlur_1_2694"/>
</filter>
<filter id="filter3_f_1_2694" x="-0.7625" y="-15.4087" width="58.2281" height="58.2261" filterUnits="userSpaceOnUse" color-interpolation-filters="sRGB">
<feFlood flood-opacity="0" result="BackgroundImageFix"/>
<feBlend mode="normal" in="SourceGraphic" in2="BackgroundImageFix" result="shape"/>
<feGaussianBlur stdDeviation="7.6" result="effect1_foregroundBlur_1_2694"/>
</filter>
<filter id="filter4_f_1_2694" x="11.4094" y="-18.8869" width="53.8766" height="53.8783" filterUnits="userSpaceOnUse" color-interpolation-filters="sRGB">
<feFlood flood-opacity="0" result="BackgroundImageFix"/>
<feBlend mode="normal" in="SourceGraphic" in2="BackgroundImageFix" result="shape"/>
<feGaussianBlur stdDeviation="7.6" result="effect1_foregroundBlur_1_2694"/>
</filter>
<filter id="filter5_f_1_2694" x="22.2281" y="4.97391" width="37.4578" height="37.4609" filterUnits="userSpaceOnUse" color-interpolation-filters="sRGB">
<feFlood flood-opacity="0" result="BackgroundImageFix"/>
<feBlend mode="normal" in="SourceGraphic" in2="BackgroundImageFix" result="shape"/>
<feGaussianBlur stdDeviation="4.8" result="effect1_foregroundBlur_1_2694"/>
</filter>
<clipPath id="clip0_1_2694">
<rect x="4" y="2.39999" width="40" height="40" rx="9.6" fill="white"/>
</clipPath>
</defs>
</svg>
