<svg width="40" height="40" viewBox="0 0 40 40" fill="none" xmlns="http://www.w3.org/2000/svg">
<g clip-path="url(#clip0_1_596)">
<path d="M25.0814 14.0229C26.3411 14.0229 27.3658 12.998 27.3658 11.7384C27.3658 10.4787 26.3411 9.45386 25.0814 9.45386C23.8217 9.45386 22.7969 10.4787 22.7969 11.7384C22.7969 12.998 23.8217 14.0229 25.0814 14.0229Z" fill="#E20613"/>
<path d="M17.8633 19.1675L19.9213 18.5492C20.4908 18.9822 21.1075 19.3387 21.7649 19.6152L22.258 21.7048H27.9065L28.3997 19.6152C29.0571 19.3388 29.6739 18.9822 30.2433 18.5492L32.3013 19.1675L35.1255 14.2757L33.5614 12.8029C33.6052 12.4504 33.6273 12.0944 33.6273 11.7385C33.6273 11.3826 33.6052 11.0266 33.5614 10.6741L35.1255 9.20126L32.3013 4.30952L30.2433 4.92776C29.6739 4.49482 29.0571 4.13829 28.3997 3.86175L27.9065 1.77222H22.258L21.7649 3.86175C21.1075 4.13829 20.4908 4.49482 19.9213 4.92776L17.8633 4.30952L15.0391 9.20118L16.6032 10.6741C16.5594 11.0264 16.5373 11.3825 16.5373 11.7385C16.5373 12.0945 16.5594 12.4505 16.6032 12.8029L15.0391 14.2758L17.8633 19.1675ZM25.0822 7.1104C27.6341 7.1104 29.7102 9.18657 29.7102 11.7385C29.7102 14.2904 27.6341 16.3666 25.0822 16.3666C22.5303 16.3666 20.4541 14.2904 20.4541 11.7385C20.4541 9.18657 22.5303 7.1104 25.0822 7.1104Z" fill="#E20613"/>
<path d="M39.217 23.1133C38.6621 22.4888 37.8971 22.1201 37.063 22.0754C36.2286 22.0307 35.4286 22.3153 34.8101 22.877L29.3307 27.8533C29.0505 30.3428 26.9332 32.2845 24.37 32.2845H16.9203V29.9409H24.3175C25.771 29.9409 27.0157 28.7523 27.0197 27.2987C27.0228 26.1652 26.3101 25.1951 25.3092 24.8144C25.1609 24.758 25.0026 24.7301 24.844 24.7299C24.843 24.7299 24.842 24.7299 24.841 24.7299H18.5227C16.9946 23.178 14.9087 22.2981 12.7177 22.2981C11.1475 22.2981 9.63154 22.7504 8.33594 23.5777V36.415L13.4511 38.1438H27.9194L39.0511 27.4085C40.2535 26.2489 40.3264 24.3622 39.217 23.1133Z" fill="#E20613"/>
<path d="M3.07266 20.9458H0V38.2278H3.07266C4.31991 38.2278 5.40974 37.5441 5.98915 36.5321V22.6415C5.40974 21.6297 4.31991 20.9458 3.07266 20.9458Z" fill="#E20613"/>
</g>
<defs>
<clipPath id="clip0_1_596">
<rect width="40" height="40" fill="white"/>
</clipPath>
</defs>
</svg>
