<svg width="40" height="40" viewBox="0 0 40 40" fill="none" xmlns="http://www.w3.org/2000/svg">
<g clip-path="url(#clip0_1_618)">
<path d="M11.9727 9.05121C10.9366 10.195 10.9689 11.9617 12.0663 13.0679C12.6382 13.6438 13.3896 13.9316 14.1406 13.9316C14.8962 13.9316 15.6522 13.6398 16.2247 13.0569L20.1993 9.01062H25.6162L34.762 18.1558L39.9985 13.2971L27.9688 1.01562L25.6162 3.35632H19.3393C18.5077 3.35632 17.7017 3.60687 17.0236 4.06616C16.8015 4.21539 16.5933 4.38751 16.4023 4.58008L12.0657 8.95264C12.0337 8.98468 12.0023 9.01764 11.9727 9.05121Z" fill="#E20613"/>
<path d="M24.6465 11.3578H21.1855L17.9009 14.7017C16.9027 15.7188 15.5682 16.2788 14.1427 16.2788C12.7273 16.2788 11.3995 15.7258 10.4028 14.7212C9.41705 13.7285 8.87414 12.411 8.87414 11.0112C8.87323 9.61163 9.41644 8.29419 10.4012 7.30054L14.7381 2.92798C14.7918 2.87396 14.8467 2.82056 14.9023 2.76898L13.2217 1.74268L0.726562 15.8024L2.35773 18.871C3.06116 18.5023 3.84821 18.3067 4.66516 18.3067C5.99817 18.3067 7.25 18.8264 8.19116 19.7697C8.85858 20.438 9.31238 21.2642 9.51868 22.1638C10.4177 22.3719 11.2423 22.8282 11.9106 23.4971C12.5918 24.1807 13.0331 25.0142 13.2351 25.8918C14.1357 26.0991 14.9618 26.5562 15.6307 27.2267C16.2972 27.8947 16.7516 28.7208 16.9583 29.6205C17.8573 29.8286 18.6819 30.2848 19.3493 30.9538C21.2896 32.8981 21.2856 36.0579 19.3414 37.9982L19.2584 38.0812C19.9633 38.7172 20.8544 39.0348 21.7455 39.0348C22.6986 39.0348 23.6514 38.6717 24.3759 37.9457C24.822 37.4989 25.1293 36.9655 25.2999 36.399C25.6878 36.5306 26.0931 36.5968 26.4984 36.5968C27.4505 36.5968 28.4036 36.2339 29.128 35.5079C29.6398 34.9955 29.9691 34.3696 30.1183 33.7101C30.3658 33.7617 30.6191 33.7883 30.8773 33.7883H30.8813C31.8734 33.7873 32.806 33.3995 33.507 32.6976C34.3707 31.8315 34.7173 30.644 34.5489 29.5182C35.2798 29.3818 35.9518 29.0291 36.4886 28.4916C37.9351 27.0421 37.9327 24.6855 36.4831 23.238L24.6465 11.3578Z" fill="#E20613"/>
<path d="M17.6697 32.5917C17.2174 32.1379 16.6394 31.8862 16.048 31.8367C15.8975 31.8236 15.7468 31.8236 15.5963 31.8367C15.0638 31.8837 14.5419 32.0934 14.1147 32.4691C14.1037 32.4767 14.0936 32.4861 14.0833 32.4956C14.0652 32.5106 14.0482 32.5267 14.0311 32.5432C14.0292 32.5447 14.0271 32.5463 14.0256 32.5481C14.0137 32.5582 14.0027 32.5692 13.9911 32.5801C14.404 32.1559 14.646 31.628 14.7147 31.0811C14.7272 30.9926 14.7342 30.9041 14.7357 30.815C14.7375 30.7909 14.7375 30.7674 14.7375 30.743C14.7375 30.071 14.4809 29.3981 13.9685 28.8842C13.4543 28.3687 12.7792 28.1105 12.1039 28.1105C12.0828 28.1105 12.0624 28.1105 12.0413 28.1121C11.8161 28.1166 11.5909 28.1502 11.3724 28.2137C10.9741 28.3278 10.5988 28.5375 10.2802 28.8451C10.2786 28.8457 10.2771 28.8472 10.274 28.8497C10.271 28.8521 10.2676 28.8552 10.2655 28.8591C10.2576 28.8652 10.2505 28.8726 10.2435 28.8796C10.5557 28.568 10.7733 28.1981 10.896 27.8044C10.9775 27.5478 11.0171 27.2811 11.0171 27.0143C11.0171 26.9454 11.015 26.8758 11.0086 26.8068C10.9616 26.2044 10.7083 25.6154 10.2481 25.1546C9.73328 24.6392 9.05914 24.3816 8.3847 24.3816C8.36426 24.3816 8.3432 24.3816 8.32275 24.3831C7.94495 24.3911 7.56775 24.4811 7.22137 24.6523C6.98334 24.7682 6.76117 24.9214 6.56097 25.1146C6.56342 25.1125 6.56555 25.1091 6.56708 25.1076C6.56952 25.1046 6.57196 25.103 6.5741 25.1C6.58112 25.0927 6.58752 25.0856 6.59302 25.0795C6.60156 25.071 6.6095 25.0624 6.61804 25.053C6.62598 25.0444 6.63452 25.0356 6.64215 25.0264C6.7926 24.8558 6.91681 24.6703 7.01477 24.4756C7.19299 24.1243 7.28699 23.7416 7.29645 23.3568C7.29797 23.3333 7.29797 23.3098 7.29797 23.2863C7.29797 22.6134 7.04193 21.9414 6.52893 21.4275C6.01471 20.9111 5.33966 20.6536 4.66461 20.6536C4.25049 20.6536 3.83667 20.7506 3.45947 20.9438C3.25378 21.0503 3.05756 21.1858 2.87903 21.35C2.86041 21.3655 2.84302 21.3829 2.82501 21.4009L0.77301 23.449C0.257263 23.9632 0 24.6382 0 25.3133C0 26.6658 1.13403 27.8643 2.47925 27.9421C2.53021 27.9454 2.58179 27.947 2.63275 27.947C3.27026 27.947 3.90564 27.7178 4.40796 27.2591C4.41009 27.2576 4.41162 27.2551 4.41406 27.2536L4.41803 27.2496C4.41894 27.249 4.41956 27.2481 4.42261 27.2451C4.4281 27.2405 4.43298 27.2356 4.43848 27.231L4.15283 27.5151C4.11926 27.5487 4.0863 27.5823 4.0567 27.6174C4.05426 27.6198 4.05182 27.6229 4.04938 27.6253C4.04785 27.6268 4.04633 27.6277 4.04571 27.6293C4.01977 27.6573 3.99567 27.6863 3.97125 27.7153C3.64258 28.1081 3.44879 28.5759 3.38928 29.0563C3.21259 30.4824 4.3631 31.895 5.79254 32.0153C6.52344 32.0784 7.27447 31.8337 7.83783 31.2804L7.84943 31.2688L7.85431 31.2648C7.36847 31.7577 7.11792 32.3955 7.10144 33.0385C7.09991 33.062 7.09991 33.0855 7.09991 33.1087C7.09991 34.5354 8.31116 35.7424 9.73328 35.7424C10.123 35.7424 10.5118 35.6569 10.8701 35.4857C11.1316 35.3606 11.3763 35.19 11.5939 34.9733L12.7682 33.8021C12.7673 33.8027 12.7667 33.8036 12.7667 33.8045C12.7643 33.806 12.7628 33.8076 12.7618 33.8091C12.7518 33.8201 12.7417 33.8317 12.7292 33.8457C12.7133 33.8616 12.7002 33.8771 12.6868 33.8927C12.6828 33.8967 12.6797 33.9006 12.6773 33.9046C12.1298 34.5336 11.9351 35.3627 12.0923 36.1342C12.3386 37.3424 13.4518 38.2555 14.6832 38.2564C15.3699 38.257 16.0385 37.9805 16.5244 37.4956L17.5 36.523L17.7066 36.3164C18.7253 35.3011 18.7268 33.6519 17.7103 32.6332L17.6697 32.5917Z" fill="#E20613"/>
</g>
<defs>
<clipPath id="clip0_1_618">
<rect width="40" height="40" fill="white"/>
</clipPath>
</defs>
</svg>
