<svg width="40" height="40" viewBox="0 0 40 40" fill="none" xmlns="http://www.w3.org/2000/svg">
<path d="M6.98332 10.1343H11.6276C13.0643 10.0809 13.0632 8.01913 11.6276 7.96631H6.98332C5.54668 8.01964 5.54777 10.0815 6.98332 10.1343Z" fill="#E20613"/>
<path d="M27.9609 9.05029C27.9609 9.64894 28.4463 10.1343 29.0449 10.1343H33.6892C35.1259 10.0809 35.1248 8.01913 33.6892 7.96631H29.0449C28.4463 7.96631 27.9609 8.45164 27.9609 9.05029Z" fill="#E20613"/>
<path d="M28.1887 4.76451L31.2051 3.02291C31.7236 2.72359 31.9012 2.06062 31.6018 1.54219C31.3025 1.02368 30.6396 0.846056 30.1211 1.14545L27.1047 2.88705C26.5862 3.18637 26.4086 3.84934 26.708 4.36777C26.9626 4.80888 27.5965 5.10647 28.1887 4.76451Z" fill="#E20613"/>
<path d="M9.47188 3.02296L12.4883 4.76455C13.0699 5.10044 13.7095 4.81745 13.969 4.36782C14.2684 3.84938 14.0908 3.18635 13.5723 2.8871L10.5559 1.1455C10.0374 0.846031 9.37439 1.02366 9.07514 1.54224C8.77574 2.0606 8.95337 2.72363 9.47188 3.02296Z" fill="#E20613"/>
<path d="M3 17.1777V36.9159C3 37.5145 3.48534 37.9999 4.08398 37.9999H8.95953V22.9831C8.95953 20.3208 9.37252 18.0716 9.9995 16.0938H4.08398C3.48534 16.0938 3 16.5791 3 17.1777Z" fill="#E20613"/>
<path d="M36.4269 21.0476C37.9126 19.282 38.1105 16.818 36.7793 15.2019C36.031 14.2931 34.8818 13.7718 33.626 13.7718H23.9242C24.2477 12.6721 24.9037 11.3318 24.9037 9.05049C24.9037 5.87132 23.5389 2.16113 19.1754 2.16113C18.6455 2.16113 18.1932 2.54421 18.1061 3.06691C17.0008 9.69806 11.125 13.4092 11.125 22.9833V38H29.7365C30.9372 38 32.1386 37.5408 33.1194 36.7069C34.8919 35.2006 35.4805 32.8405 34.6644 31.0428C35.9088 29.5641 36.2498 27.5958 35.5456 26.0455C36.79 24.5667 37.131 22.598 36.4269 21.0476Z" fill="#E20613"/>
</svg>
