<svg width="40" height="40" viewBox="0 0 40 40" fill="none" xmlns="http://www.w3.org/2000/svg">
<path d="M15.4559 26.5885C15.4559 27.1999 15.1119 27.7419 14.559 28.002C14.0055 28.2629 13.3695 28.1827 12.8984 27.7932L10.4117 25.7387L7.92578 27.7932C6.90893 28.6338 5.3683 27.9118 5.3683 26.5885V17.1138H3.35426C2.60775 17.1138 2 17.7208 2 18.4673V36.6464C2 37.3929 2.60775 38 3.35426 38H18.8234V17.1138H15.4559V26.5885Z" fill="#E20613"/>
<path d="M15.4551 7.87463C15.4551 9.19629 13.917 9.92054 12.8984 9.08002L10.4117 7.02551L7.92578 9.0793C6.90763 9.9209 5.3683 9.19709 5.3683 7.87463V1H3.35426C2.60775 1 2 1.60703 2 2.35353V13.5916C2 14.3381 2.60775 14.9451 3.35426 14.9451H18.8242V1H15.4551V7.87463Z" fill="#E20613"/>
<path d="M11.4103 23.7485L13.2907 25.3022V17.1138H7.53906V25.3022L9.41941 23.7485C10.0018 23.2683 10.8382 23.2767 11.4103 23.7485Z" fill="#E20613"/>
<path d="M11.4111 5.03676L13.29 6.58902V1H7.53906V6.5883L9.41941 5.03531C9.9966 4.55793 10.8344 4.55836 11.4111 5.03676Z" fill="#E20613"/>
<path d="M36.4621 24.0549H34.448V30.9296C34.448 32.2508 32.9084 32.9757 31.8906 32.1342L29.4039 30.0797L26.918 32.1342C25.9029 32.9734 24.3612 32.2535 24.3612 30.9296V24.0549H20.9922V38H36.4621C37.2086 38 37.8163 37.393 37.8163 36.6465V25.4085C37.8163 24.662 37.2086 24.0549 36.4621 24.0549Z" fill="#E20613"/>
<path d="M36.4614 1H34.4473V10.4755C34.4473 11.802 32.9037 12.5182 31.8898 11.6801L29.4039 9.62562L26.9172 11.6801C25.8977 12.5214 24.3598 11.7961 24.3598 10.4755V1H20.9922V21.8869H36.4614C37.2079 21.8869 37.8156 21.2792 37.8156 20.5327V2.35426C37.8156 1.60775 37.2079 1 36.4614 1Z" fill="#E20613"/>
<path d="M30.4025 7.63543L32.2829 9.18914V1H26.5312V9.18914L28.4116 7.63543C28.9871 7.15949 29.8246 7.15746 30.4025 7.63543Z" fill="#E20613"/>
<path d="M30.4032 28.091L32.2821 29.644V24.0549H26.5312V29.6432L28.4109 28.0902C28.9837 27.6165 29.8219 27.6099 30.4032 28.091Z" fill="#E20613"/>
</svg>
