<svg width="40" height="40" viewBox="0 0 40 40" fill="none" xmlns="http://www.w3.org/2000/svg">
<rect width="40" height="40" rx="10" fill="#F4F4F4"/>
<g style="mix-blend-mode:multiply">
<path d="M9.16412 15.3469C9.16412 14.5155 9.32845 13.7071 9.65254 12.9443C9.96475 12.2093 10.4109 11.5488 10.9787 10.9811C11.5464 10.4134 12.2069 9.9672 12.9418 9.65499C13.7047 9.3309 14.5131 9.16657 15.3445 9.16657L24.6503 9.1665C25.4817 9.1665 26.2901 9.33084 27.053 9.65493C27.7879 9.96715 28.4484 10.4133 29.0162 10.9811C29.5839 11.5488 30.0301 12.2093 30.3423 12.9442C30.6664 13.7071 30.8307 14.5155 30.8307 15.3469L30.8307 24.6528C30.8307 25.4842 30.6663 26.2926 30.3422 27.0554C30.03 27.7904 29.5839 28.4508 29.0161 29.0186C28.4484 29.5863 27.7879 30.0325 27.053 30.3447C26.2901 30.6688 25.4817 30.8331 24.6503 30.8331L15.3445 30.8332C14.5131 30.8332 13.7047 30.6688 12.9418 30.3447C12.2069 30.0325 11.5464 29.5863 10.9786 29.0186C10.4109 28.4509 9.96471 27.7904 9.65249 27.0555C9.3284 26.2926 9.16406 25.4842 9.16406 24.6528L9.16412 15.3469Z" fill="#E20613"/>
</g>
<path d="M19.7995 13.0053C20.0031 12.9977 20.2344 12.9984 20.4383 13.0053C20.5298 13.0084 20.6622 13.013 20.7501 13.0189C20.8838 13.0282 21.0005 13.0359 21.1283 13.053C22.8374 13.2803 24.6002 14.2656 25.6257 15.5566C27.391 17.7792 27.4702 20.9432 25.779 23.2101C25.1823 24.0101 24.2728 24.7551 23.3516 25.2131C22.6261 25.5734 21.8648 25.7905 21.0519 25.9045C20.9372 25.9205 20.4636 25.9443 20.4171 25.9476C20.2715 25.9579 19.8611 25.9505 19.8611 25.9505L19.5718 25.9476L19.349 25.9307L19.2337 25.9181L19.1169 25.8968L19.0397 25.8823C19.0397 25.8823 18.4653 25.7731 18.1387 25.6424C17.9248 25.5567 17.7227 25.4466 17.5254 25.3323C17.1831 25.1342 16.9026 25.2027 16.5752 25.4246C16.466 25.4986 16.3527 25.5643 16.2476 25.6185C16.0085 25.7421 15.6998 25.8556 15.4355 25.9216C15.4269 25.9238 15.4114 25.9267 15.3914 25.9302C15.1987 25.9641 14.8896 25.9999 14.6939 25.9999C14.6568 25.9999 14.62 25.9942 14.5848 25.9826C14.4615 25.9421 14.3042 25.8845 14.2166 25.8091C14.2135 25.8065 14.2105 25.8038 14.2076 25.801C13.987 25.5966 14.0165 25.2512 13.9991 24.9509C13.995 24.8794 13.9866 24.8067 13.9735 24.7363C13.9705 24.7189 13.9482 24.7141 13.948 24.7124C13.9448 24.6968 13.9474 24.6806 13.9461 24.6647C13.8793 23.8581 13.5735 23.0846 13.3776 22.3C13.1888 21.5437 13.0965 20.8036 13.0025 20.0392C12.9887 19.3919 13.0313 18.7423 13.1678 18.1071C13.3145 17.4238 13.4806 17.067 13.7849 16.4524C14.6719 14.9737 16.1825 13.8358 17.9087 13.3154C18.0717 13.2663 18.2542 13.2083 18.4198 13.1723C18.7661 13.0969 19.1637 13.0549 19.5186 13.0292C19.6129 13.0223 19.7059 13.0089 19.7997 13.0053H19.7995ZM19.5301 16.2259C19.53 16.226 19.5298 16.2261 19.5296 16.2261C19.3892 16.24 19.0713 16.3129 18.9311 16.3551C17.8629 16.6773 17.0507 17.5377 16.742 18.5315C16.7368 18.5484 16.7154 18.5565 16.7081 18.5727C16.4005 19.6228 16.3959 20.8356 16.6739 21.8943C16.7235 22.0832 16.9259 22.7407 17.1346 22.7997C17.8473 23.0009 18.5409 22.4929 19.2582 22.6767C19.418 22.7177 19.5815 22.7458 19.7484 22.7567C19.7737 22.7584 19.7997 22.7555 19.825 22.7567C19.9459 22.7622 20.0872 22.7617 20.2084 22.7567C20.5901 22.7407 20.8498 22.6833 21.205 22.5659C21.5714 22.445 21.7605 22.3439 22.0738 22.1369C23.7111 21.0548 24.0686 19.0638 22.8765 17.5371C22.7528 17.3787 22.5959 17.1622 22.4073 17.0372C22.3833 17.0172 22.3698 17.0076 22.3496 16.9924C22.2934 16.9602 22.2504 16.9258 22.2019 16.8912C21.8398 16.633 21.2236 16.3348 20.7818 16.2719C20.5137 16.2337 19.9993 16.2056 19.9993 16.2056C19.9993 16.2056 19.7806 16.1984 19.7187 16.2053C19.657 16.2122 19.5709 16.2217 19.5307 16.2258C19.5305 16.2258 19.5303 16.2259 19.5301 16.2259Z" fill="white"/>
</svg>
