<svg width="32" height="32" viewBox="0 0 32 32" fill="none" xmlns="http://www.w3.org/2000/svg">
<g filter="url(#filter0_d_31_3902)">
<g clip-path="url(#clip0_31_3902)">
<path d="M24.25 2.3999H7.75C5.67893 2.3999 4 4.07883 4 6.1499V22.6499C4 24.721 5.67893 26.3999 7.75 26.3999H24.25C26.3211 26.3999 28 24.721 28 22.6499V6.1499C28 4.07883 26.3211 2.3999 24.25 2.3999Z" fill="#4BC2FD"/>
<g filter="url(#filter1_f_31_3902)">
<circle cx="16.002" cy="5.52987" r="16.1739" fill="#2245FA"/>
</g>
<g filter="url(#filter2_f_31_3902)">
<circle cx="29.8288" cy="19.8781" r="15.3913" fill="#A361DF"/>
</g>
<g filter="url(#filter3_f_31_3902)">
<circle cx="18.6056" cy="9.1823" r="8.34783" fill="#1E3CD4"/>
</g>
<g filter="url(#filter4_f_31_3902)">
<circle cx="24.606" cy="5.79104" r="7.04348" fill="#8C4CE7"/>
</g>
<g filter="url(#filter5_f_31_3902)">
<circle cx="26.1736" cy="15.1829" r="5.47826" fill="#9840DB"/>
</g>
</g>
<path d="M15.8589 8.66565C16.0421 8.65865 16.2502 8.65931 16.4336 8.66565C16.5159 8.6685 16.635 8.67266 16.7141 8.67813C16.8343 8.68667 16.9394 8.69367 17.0543 8.70943C18.5918 8.91804 20.1775 9.8223 21.1001 11.0072C22.6881 13.0471 22.7594 15.951 21.238 18.0316C20.7012 18.7657 19.8831 19.4496 19.0543 19.8699C18.4017 20.2006 17.7168 20.3998 16.9856 20.5044C16.8824 20.5191 16.4564 20.541 16.4145 20.5441C16.2835 20.5535 15.9143 20.5467 15.9143 20.5467L15.6541 20.5441L15.4536 20.5285L15.3499 20.5169L15.2449 20.4974L15.1755 20.4841C15.1755 20.4841 14.6587 20.3838 14.3649 20.2639C14.1725 20.1853 13.9906 20.0842 13.8132 19.9793C13.5051 19.7974 13.2541 19.8592 12.96 20.0628C12.8613 20.1312 12.7588 20.1919 12.6637 20.242C12.4485 20.3554 12.1708 20.4596 11.9331 20.5202C11.9253 20.5222 11.9109 20.525 11.8924 20.5283C11.7196 20.5592 11.4424 20.592 11.2668 20.592C11.2329 20.592 11.1993 20.5867 11.1671 20.5759C11.0564 20.5387 10.9153 20.4859 10.8366 20.4169C10.8343 20.4149 10.8321 20.4129 10.8299 20.4108C10.6281 20.2223 10.6566 19.9049 10.641 19.6293C10.6373 19.5636 10.6297 19.4969 10.618 19.4323C10.6152 19.4163 10.5952 19.4119 10.595 19.4104C10.5922 19.396 10.5945 19.3812 10.5933 19.3666C10.5332 18.6263 10.2581 17.9163 10.0819 17.1963C9.91199 16.5021 9.829 15.8229 9.7444 15.1213C9.73199 14.5273 9.77038 13.931 9.89314 13.3481C10.0251 12.7209 10.1745 12.3935 10.4483 11.8294C11.2462 10.4722 12.6051 9.42785 14.158 8.95022C14.3046 8.90513 14.4688 8.85194 14.6178 8.81888C14.9292 8.74971 15.2869 8.71119 15.6063 8.68754C15.6911 8.6812 15.7748 8.66894 15.8591 8.66565H15.8589ZM15.6166 11.6215C15.6165 11.6216 15.6163 11.6216 15.6161 11.6217C15.4898 11.6344 15.2039 11.7013 15.0778 11.7401C14.1166 12.0358 13.386 12.8257 13.1084 13.7379C13.1037 13.7532 13.0844 13.7607 13.078 13.7753C12.8012 14.7391 12.7971 15.8522 13.0472 16.8239C13.0918 16.9973 13.2738 17.6008 13.4617 17.6548C14.1036 17.8398 14.7282 17.3744 15.3747 17.5427C15.5176 17.5799 15.6637 17.6055 15.8129 17.6154C15.8357 17.617 15.8591 17.6144 15.8819 17.6154C15.9906 17.6205 16.1178 17.62 16.2267 17.6154C16.5702 17.6008 16.8037 17.548 17.1233 17.4403C17.4529 17.3293 17.623 17.2365 17.9049 17.0465C19.3778 16.0534 19.6994 14.2261 18.627 12.8249C18.5157 12.6796 18.3745 12.4808 18.2049 12.3661C18.1833 12.3477 18.1711 12.339 18.1529 12.3249C18.1024 12.2954 18.0637 12.2639 18.0201 12.2321C17.6943 11.9951 17.1401 11.7214 16.7426 11.6637C16.5014 11.6286 16.0387 11.6028 16.0387 11.6028C16.0387 11.6028 15.8419 11.5962 15.7863 11.6026C15.7308 11.6089 15.6533 11.6176 15.6171 11.6214C15.6169 11.6214 15.6168 11.6214 15.6166 11.6215Z" fill="white"/>
</g>
<defs>
<filter id="filter0_d_31_3902" x="0" y="-9.76324e-05" width="32" height="32" filterUnits="userSpaceOnUse" color-interpolation-filters="sRGB">
<feFlood flood-opacity="0" result="BackgroundImageFix"/>
<feColorMatrix in="SourceAlpha" type="matrix" values="0 0 0 0 0 0 0 0 0 0 0 0 0 0 0 0 0 0 127 0" result="hardAlpha"/>
<feOffset dy="1.6"/>
<feGaussianBlur stdDeviation="2"/>
<feComposite in2="hardAlpha" operator="out"/>
<feColorMatrix type="matrix" values="0 0 0 0 0 0 0 0 0 0 0 0 0 0 0 0 0 0 0.2 0"/>
<feBlend mode="normal" in2="BackgroundImageFix" result="effect1_dropShadow_31_3902"/>
<feBlend mode="normal" in="SourceGraphic" in2="effect1_dropShadow_31_3902" result="shape"/>
</filter>
<filter id="filter1_f_31_3902" x="-15.3719" y="-25.844" width="62.7516" height="62.7477" filterUnits="userSpaceOnUse" color-interpolation-filters="sRGB">
<feFlood flood-opacity="0" result="BackgroundImageFix"/>
<feBlend mode="normal" in="SourceGraphic" in2="BackgroundImageFix" result="shape"/>
<feGaussianBlur stdDeviation="7.6" result="effect1_foregroundBlur_31_3902"/>
</filter>
<filter id="filter2_f_31_3902" x="-0.7625" y="-10.7132" width="61.1812" height="61.1827" filterUnits="userSpaceOnUse" color-interpolation-filters="sRGB">
<feFlood flood-opacity="0" result="BackgroundImageFix"/>
<feBlend mode="normal" in="SourceGraphic" in2="BackgroundImageFix" result="shape"/>
<feGaussianBlur stdDeviation="7.6" result="effect1_foregroundBlur_31_3902"/>
</filter>
<filter id="filter3_f_31_3902" x="-4.94219" y="-14.3655" width="47.0953" height="47.0958" filterUnits="userSpaceOnUse" color-interpolation-filters="sRGB">
<feFlood flood-opacity="0" result="BackgroundImageFix"/>
<feBlend mode="normal" in="SourceGraphic" in2="BackgroundImageFix" result="shape"/>
<feGaussianBlur stdDeviation="7.6" result="effect1_foregroundBlur_31_3902"/>
</filter>
<filter id="filter4_f_31_3902" x="2.3625" y="-16.4524" width="44.4859" height="44.4869" filterUnits="userSpaceOnUse" color-interpolation-filters="sRGB">
<feFlood flood-opacity="0" result="BackgroundImageFix"/>
<feBlend mode="normal" in="SourceGraphic" in2="BackgroundImageFix" result="shape"/>
<feGaussianBlur stdDeviation="7.6" result="effect1_foregroundBlur_31_3902"/>
</filter>
<filter id="filter5_f_31_3902" x="11.0953" y="0.104589" width="30.1531" height="30.1565" filterUnits="userSpaceOnUse" color-interpolation-filters="sRGB">
<feFlood flood-opacity="0" result="BackgroundImageFix"/>
<feBlend mode="normal" in="SourceGraphic" in2="BackgroundImageFix" result="shape"/>
<feGaussianBlur stdDeviation="4.8" result="effect1_foregroundBlur_31_3902"/>
</filter>
<clipPath id="clip0_31_3902">
<rect x="4" y="2.3999" width="24" height="24" rx="7" fill="white"/>
</clipPath>
</defs>
</svg>
