<svg width="22" height="22" viewBox="0 0 22 22" fill="none" xmlns="http://www.w3.org/2000/svg">
<path d="M19.9375 19.4219H17.7031V2.57812H18.5625C18.6993 2.57812 18.8304 2.5238 18.9271 2.4271C19.0238 2.3304 19.0781 2.19925 19.0781 2.0625C19.0781 1.92575 19.0238 1.7946 18.9271 1.6979C18.8304 1.6012 18.6993 1.54688 18.5625 1.54688H3.4375C3.30075 1.54688 3.1696 1.6012 3.0729 1.6979C2.9762 1.7946 2.92188 1.92575 2.92188 2.0625C2.92188 2.19925 2.9762 2.3304 3.0729 2.4271C3.1696 2.5238 3.30075 2.57812 3.4375 2.57812H4.29688V19.4219H2.0625C1.92575 19.4219 1.7946 19.4762 1.6979 19.5729C1.6012 19.6696 1.54688 19.8007 1.54688 19.9375C1.54688 20.0743 1.6012 20.2054 1.6979 20.3021C1.7946 20.3988 1.92575 20.4531 2.0625 20.4531H19.9375C20.0743 20.4531 20.2054 20.3988 20.3021 20.3021C20.3988 20.2054 20.4531 20.0743 20.4531 19.9375C20.4531 19.8007 20.3988 19.6696 20.3021 19.5729C20.2054 19.4762 20.0743 19.4219 19.9375 19.4219ZM5.32812 2.57812H16.6719V19.4219H13.5781V15.8125C13.5781 15.6757 13.5238 15.5446 13.4271 15.4479C13.3304 15.3512 13.1993 15.2969 13.0625 15.2969H8.9375C8.80075 15.2969 8.6696 15.3512 8.5729 15.4479C8.4762 15.5446 8.42188 15.6757 8.42188 15.8125V19.4219H5.32812V2.57812ZM12.5469 19.4219H9.45312V16.3281H12.5469V19.4219ZM7.73438 5.5C7.73438 5.36325 7.7887 5.2321 7.8854 5.1354C7.9821 5.0387 8.11325 4.98438 8.25 4.98438H9.625C9.76175 4.98438 9.8929 5.0387 9.9896 5.1354C10.0863 5.2321 10.1406 5.36325 10.1406 5.5C10.1406 5.63675 10.0863 5.7679 9.9896 5.8646C9.8929 5.9613 9.76175 6.01562 9.625 6.01562H8.25C8.11325 6.01562 7.9821 5.9613 7.8854 5.8646C7.7887 5.7679 7.73438 5.63675 7.73438 5.5ZM11.8594 5.5C11.8594 5.36325 11.9137 5.2321 12.0104 5.1354C12.1071 5.0387 12.2382 4.98438 12.375 4.98438H13.75C13.8868 4.98438 14.0179 5.0387 14.1146 5.1354C14.2113 5.2321 14.2656 5.36325 14.2656 5.5C14.2656 5.63675 14.2113 5.7679 14.1146 5.8646C14.0179 5.9613 13.8868 6.01562 13.75 6.01562H12.375C12.2382 6.01562 12.1071 5.9613 12.0104 5.8646C11.9137 5.7679 11.8594 5.63675 11.8594 5.5ZM7.73438 8.9375C7.73438 8.80075 7.7887 8.6696 7.8854 8.5729C7.9821 8.4762 8.11325 8.42188 8.25 8.42188H9.625C9.76175 8.42188 9.8929 8.4762 9.9896 8.5729C10.0863 8.6696 10.1406 8.80075 10.1406 8.9375C10.1406 9.07425 10.0863 9.2054 9.9896 9.3021C9.8929 9.3988 9.76175 9.45312 9.625 9.45312H8.25C8.11325 9.45312 7.9821 9.3988 7.8854 9.3021C7.7887 9.2054 7.73438 9.07425 7.73438 8.9375ZM11.8594 8.9375C11.8594 8.80075 11.9137 8.6696 12.0104 8.5729C12.1071 8.4762 12.2382 8.42188 12.375 8.42188H13.75C13.8868 8.42188 14.0179 8.4762 14.1146 8.5729C14.2113 8.6696 14.2656 8.80075 14.2656 8.9375C14.2656 9.07425 14.2113 9.2054 14.1146 9.3021C14.0179 9.3988 13.8868 9.45312 13.75 9.45312H12.375C12.2382 9.45312 12.1071 9.3988 12.0104 9.3021C11.9137 9.2054 11.8594 9.07425 11.8594 8.9375ZM8.25 12.8906C8.11325 12.8906 7.9821 12.8363 7.8854 12.7396C7.7887 12.6429 7.73438 12.5118 7.73438 12.375C7.73438 12.2382 7.7887 12.1071 7.8854 12.0104C7.9821 11.9137 8.11325 11.8594 8.25 11.8594H9.625C9.76175 11.8594 9.8929 11.9137 9.9896 12.0104C10.0863 12.1071 10.1406 12.2382 10.1406 12.375C10.1406 12.5118 10.0863 12.6429 9.9896 12.7396C9.8929 12.8363 9.76175 12.8906 9.625 12.8906H8.25ZM11.8594 12.375C11.8594 12.2382 11.9137 12.1071 12.0104 12.0104C12.1071 11.9137 12.2382 11.8594 12.375 11.8594H13.75C13.8868 11.8594 14.0179 11.9137 14.1146 12.0104C14.2113 12.1071 14.2656 12.2382 14.2656 12.375C14.2656 12.5118 14.2113 12.6429 14.1146 12.7396C14.0179 12.8363 13.8868 12.8906 13.75 12.8906H12.375C12.2382 12.8906 12.1071 12.8363 12.0104 12.7396C11.9137 12.6429 11.8594 12.5118 11.8594 12.375Z" fill="#1C1C1C"/>
</svg>
