<svg width="20" height="20" viewBox="0 0 20 20" fill="none" xmlns="http://www.w3.org/2000/svg">
<path d="M19.5454 19.0909H0.454559C0.203309 19.0909 0 19.2942 0 19.5454C0 19.7967 0.203309 20 0.454559 20H19.5454C19.7967 20 20 19.7967 20 19.5454C20 19.2942 19.7967 19.0909 19.5454 19.0909Z" fill="#888888"/>
<path d="M4.54546 17.2727H7.27273C8.27547 17.2727 9.09092 16.4573 9.09092 15.4545V1.81815C9.09088 0.815411 8.27547 0 7.27273 0H4.54546C3.54268 0 2.72727 0.815411 2.72727 1.81819V15.4545C2.72727 16.4573 3.54268 17.2727 4.54546 17.2727ZM3.63634 1.81819C3.63634 1.31706 4.04428 0.909118 4.54542 0.909118H7.27269C7.77382 0.909118 8.18176 1.31706 8.18176 1.81819V15.4545C8.18176 15.9557 7.77382 16.3636 7.27269 16.3636H4.54542C4.04428 16.3636 3.63634 15.9557 3.63634 15.4545V1.81819Z" fill="#888888"/>
<path d="M3.63634 1.81819C3.63634 1.31706 4.04428 0.909118 4.54542 0.909118H7.27269C7.77382 0.909118 8.18176 1.31706 8.18176 1.81819V15.4545C8.18176 15.9557 7.77382 16.3636 7.27269 16.3636H4.54542C4.04428 16.3636 3.63634 15.9557 3.63634 15.4545V1.81819Z" fill="#888888"/>
<path d="M12.7228 17.2727H15.4589C16.459 17.2727 17.2727 16.459 17.2727 15.4589V7.26825C17.2727 6.26816 16.459 5.45449 15.4589 5.45449H12.7228C11.7227 5.45454 10.9091 6.2682 10.9091 7.26825V15.4589C10.9091 16.4591 11.7227 17.2727 12.7228 17.2727ZM11.8182 7.26825C11.8182 6.76934 12.2239 6.36361 12.7228 6.36361H15.4589C15.9578 6.36361 16.3636 6.76934 16.3636 7.26825V15.4589C16.3636 15.9578 15.9578 16.3636 15.4589 16.3636H12.7228C12.2239 16.3636 11.8182 15.9578 11.8182 15.4589V7.26825Z" fill="#888888"/>
<path d="M11.8182 7.26825C11.8182 6.76934 12.2239 6.36361 12.7228 6.36361H15.4589C15.9578 6.36361 16.3636 6.76934 16.3636 7.26825V15.4589C16.3636 15.9578 15.9578 16.3636 15.4589 16.3636H12.7228C12.2239 16.3636 11.8182 15.9578 11.8182 15.4589V7.26825Z" fill="#888888"/>
</svg>
