<svg width="16" height="20" viewBox="0 0 16 20" fill="none" xmlns="http://www.w3.org/2000/svg">
<path d="M8.00002 3.45795C5.66123 3.45795 3.7585 5.18981 3.7585 7.31853C3.7585 9.44716 5.66123 11.1789 8.00002 11.1789C10.3388 11.1789 12.2415 9.44717 12.2415 7.31853C12.2415 5.1898 10.3388 3.45795 8.00002 3.45795ZM8.00002 10.5187C6.06124 10.5187 4.48392 9.08309 4.48392 7.31853C4.48392 5.55386 6.06124 4.11821 8.00002 4.11821C9.93879 4.11821 11.5161 5.55386 11.5161 7.31853C11.5161 9.08309 9.93879 10.5187 8.00002 10.5187ZM13.6673 2.15678C12.2487 0.85747 10.3862 0.10243 8.38936 0.01017V0L7.61073 0.00073V0.01017C5.61387 0.10243 3.75125 0.85744 2.33273 2.15677C0.828444 3.5346 0 5.36325 0 7.30583C0 13.6574 6.97092 19.2077 7.76577 19.8196L8.00002 20L8.23427 19.8196C9.02911 19.2077 16 13.6574 16 7.30583C16 5.36325 15.1715 3.53462 13.6673 2.15678ZM8.00002 19.131C6.58405 17.9944 0.725411 12.9499 0.725411 7.30583C0.725411 3.66657 3.97798 0.68572 7.97592 0.661L7.99662 0.66082L8.02417 0.661C12.0221 0.68572 15.2746 3.66657 15.2746 7.30583C15.2746 12.9499 9.41594 17.9944 8.00002 19.131Z" fill="#ADADAD"/>
<path fill-rule="evenodd" clip-rule="evenodd" d="M8.00002 19.131C6.58405 17.9944 0.725411 12.9499 0.725411 7.30583C0.725411 3.66657 3.97798 0.68572 7.97592 0.661L7.99662 0.66082L8.02417 0.661C12.0221 0.68572 15.2746 3.66657 15.2746 7.30583C15.2746 12.9499 9.41594 17.9944 8.00002 19.131ZM3.7585 7.31853C3.7585 5.18981 5.66123 3.45795 8.00002 3.45795C10.3388 3.45795 12.2415 5.1898 12.2415 7.31853C12.2415 9.44717 10.3388 11.1789 8.00002 11.1789C5.66123 11.1789 3.7585 9.44716 3.7585 7.31853Z" fill="#ADADAD"/>
</svg>
