<svg width="20" height="20" viewBox="0 0 20 20" fill="none" xmlns="http://www.w3.org/2000/svg">
<path d="M17.7786 1.43666L1.4375 17.7778L2.22317 18.5634L18.5643 2.22231L17.7786 1.43666Z" fill="#E20714"/>
<path d="M0 4.44444C0 6.89889 1.99 8.88889 4.44444 8.88889C6.89889 8.88889 8.88889 6.89889 8.88889 4.44444C8.88889 1.99 6.89889 0 4.44444 0C1.99 0 0 1.99 0 4.44444ZM4.44444 1.11111C6.28222 1.11111 7.77778 2.60667 7.77778 4.44444C7.77778 6.28222 6.28222 7.77778 4.44444 7.77778C2.60667 7.77778 1.11111 6.28222 1.11111 4.44444C1.11111 2.60667 2.60667 1.11111 4.44444 1.11111Z" fill="#E20714"/>
<path d="M15.5538 20C18.0083 20 19.9983 18.01 19.9983 15.5556C19.9983 13.1011 18.0083 11.1111 15.5538 11.1111C13.0994 11.1111 11.1094 13.1011 11.1094 15.5556C11.1094 18.01 13.0994 20 15.5538 20ZM15.5538 12.2223C17.3916 12.2223 18.8872 13.7178 18.8872 15.5556C18.8872 17.3934 17.3916 18.8889 15.5538 18.8889C13.716 18.8889 12.2205 17.3934 12.2205 15.5556C12.2205 13.7178 13.716 12.2223 15.5538 12.2223Z" fill="#E20714"/>
</svg>
