<svg width="24" height="24" viewBox="0 0 24 24" fill="none" xmlns="http://www.w3.org/2000/svg">
<path d="M3.5 4.5H5.058C5.754 4.5 6.102 4.5 6.364 4.689C6.626 4.878 6.736 5.208 6.956 5.868L7.5 7.5" stroke="#1C1C1C" stroke-linecap="round"/>
<path d="M17.5037 17.5H8.05375C7.90875 17.5 7.83574 17.5 7.77974 17.494C7.6409 17.4785 7.50684 17.4341 7.3862 17.3636C7.26557 17.2932 7.16104 17.1982 7.07936 17.0848C6.99767 16.9715 6.94065 16.8423 6.91195 16.7056C6.88325 16.5688 6.88352 16.4276 6.91274 16.291C6.93574 16.2025 6.96277 16.1151 6.99374 16.029C7.04574 15.875 7.07075 15.798 7.09975 15.729C7.2421 15.388 7.47611 15.0932 7.77583 14.8771C8.07556 14.6611 8.42927 14.5323 8.79774 14.505C8.87174 14.5 8.95274 14.5 9.11474 14.5H14.5037" stroke="#1C1C1C" stroke-linecap="round" stroke-linejoin="round"/>
<path d="M14.1762 14.5H11.1352C9.85517 14.5 9.21517 14.5 8.71517 14.17C8.21417 13.84 7.96217 13.252 7.45817 12.076L7.28917 11.682C6.47917 9.792 6.07517 8.849 6.51917 8.174C6.96517 7.5 7.99317 7.5 10.0472 7.5H15.3272C17.6272 7.5 18.7762 7.5 19.2102 8.247C19.6432 8.994 19.0732 9.992 17.9322 11.988L17.6492 12.485C17.0872 13.468 16.8062 13.96 16.3402 14.23C15.8742 14.5 15.3082 14.5 14.1762 14.5Z" stroke="#1C1C1C" stroke-linecap="round"/>
<path d="M17 21C17.5523 21 18 20.5523 18 20C18 19.4477 17.5523 19 17 19C16.4477 19 16 19.4477 16 20C16 20.5523 16.4477 21 17 21Z" fill="#1C1C1C"/>
<path d="M9 21C9.55228 21 10 20.5523 10 20C10 19.4477 9.55228 19 9 19C8.44772 19 8 19.4477 8 20C8 20.5523 8.44772 21 9 21Z" fill="#1C1C1C"/>
</svg>
