<svg width="22" height="22" viewBox="0 0 22 22" fill="none" xmlns="http://www.w3.org/2000/svg">
<path fill-rule="evenodd" clip-rule="evenodd" d="M16.254 15.1128C17.6303 13.4715 18.417 11.4426 18.417 9.27476C18.417 6.8323 17.4656 4.53684 15.7387 2.81161C14.0119 1.08638 11.7165 0.133301 9.2741 0.133301C6.83168 0.133301 4.53627 1.08476 2.81107 2.81161C1.08587 4.53845 0.132812 6.8323 0.132812 9.27476C0.132812 11.7172 1.08426 14.0127 2.81107 15.7395C4.53788 17.4664 6.8333 18.4178 9.2741 18.4178C11.4419 18.4178 13.4708 17.6311 15.112 16.2548L19.7529 20.8958C19.9112 21.0541 20.118 21.1333 20.3247 21.1333C20.5315 21.1333 20.7383 21.0541 20.8966 20.8975C21.2116 20.5825 21.2116 20.0704 20.8966 19.7554L16.254 15.1128ZM9.2741 16.8025C11.2852 16.8025 13.1752 16.019 14.5967 14.5975C16.0182 13.1759 16.8016 11.2859 16.8016 9.27476C16.8016 7.26522 16.0182 5.37522 14.5967 3.95369C13.1752 2.53053 11.2852 1.74869 9.2741 1.74869C7.2646 1.74869 5.37463 2.53215 3.95312 3.95369C2.53 5.37361 1.74817 7.26522 1.74817 9.27476C1.74817 11.2859 2.53161 13.1759 3.95312 14.5975C5.37302 16.0206 7.2646 16.8025 9.2741 16.8025Z" fill="#E20714" stroke="white" stroke-width="0.266667"/>
</svg>
