<svg width="16" height="16" viewBox="0 0 16 16" fill="none" xmlns="http://www.w3.org/2000/svg">
<path d="M4.65039 11.8506H3.90039C3.46285 11.8506 3.04283 11.6765 2.7334 11.3672C2.42395 11.0577 2.25 10.6378 2.25 10.2002V5.40039C2.25 4.96277 2.42395 4.54285 2.7334 4.2334C3.04285 3.92395 3.46277 3.75 3.90039 3.75H11.1006C11.538 3.75009 11.9572 3.92413 12.2666 4.2334C12.576 4.54285 12.75 4.96277 12.75 5.40039V10.2002C12.75 10.6378 12.576 11.0577 12.2666 11.3672C11.9573 11.6764 11.5379 11.8505 11.1006 11.8506H8.05469L7.86523 11.9766L4.65039 14.1191V11.8506Z" fill="#728096" stroke="#728096" stroke-width="1.5"/>
</svg>
