<svg width="24" height="24" viewBox="0 0 24 24" fill="none" xmlns="http://www.w3.org/2000/svg">
<path d="M23.4545 23H0.545471C0.243971 23 0 23.2236 0 23.5C0 23.7764 0.243971 24 0.545471 24H23.4545C23.756 24 24 23.7764 24 23.5C23.9999 23.2236 23.756 23 23.4545 23Z" fill="#1C1C1C"/>
<path d="M4.78572 21H8.21428C9.47486 21 10.5 20.0086 10.5 18.7895V2.21049C10.4999 0.99137 9.47486 0 8.21428 0H4.78572C3.52508 0 2.5 0.99137 2.5 2.21055V18.7895C2.5 20.0086 3.52508 21 4.78572 21ZM3.64283 2.21055C3.64283 1.60127 4.15567 1.1053 4.78567 1.1053H8.21422C8.84422 1.1053 9.35706 1.60127 9.35706 2.21055V18.7895C9.35706 19.3988 8.84422 19.8948 8.21422 19.8948H4.78567C4.15567 19.8948 3.64283 19.3988 3.64283 18.7895V2.21055Z" fill="#1C1C1C"/>
<path d="M3.64283 2.21055C3.64283 1.60127 4.15567 1.1053 4.78567 1.1053H8.21422C8.84422 1.1053 9.35706 1.60127 9.35706 2.21055V18.7895C9.35706 19.3988 8.84422 19.8948 8.21422 19.8948H4.78567C4.15567 19.8948 3.64283 19.3988 3.64283 18.7895V2.21055Z" fill="#1C1C1C"/>
<path d="M14.7801 21H18.2198C19.4771 21 20.5 20.0361 20.5 18.8514V9.14861C20.5 7.96388 19.4771 7 18.2198 7H14.7801C13.5229 7.00005 12.5 7.96393 12.5 9.14861V18.8514C12.5 20.0362 13.5229 21 14.7801 21ZM13.6428 9.14861C13.6428 8.55758 14.1529 8.07695 14.7801 8.07695H18.2198C18.847 8.07695 19.3571 8.55758 19.3571 9.14861V18.8514C19.3571 19.4424 18.847 19.923 18.2198 19.923H14.7801C14.1529 19.923 13.6428 19.4424 13.6428 18.8514V9.14861Z" fill="#1C1C1C"/>
<path d="M13.6428 9.14861C13.6428 8.55758 14.1529 8.07695 14.7801 8.07695H18.2198C18.847 8.07695 19.3571 8.55758 19.3571 9.14861V18.8514C19.3571 19.4424 18.847 19.923 18.2198 19.923H14.7801C14.1529 19.923 13.6428 19.4424 13.6428 18.8514V9.14861Z" fill="#1C1C1C"/>
</svg>
