<svg width="48" height="48" viewBox="0 0 48 48" fill="none" xmlns="http://www.w3.org/2000/svg">
<g filter="url(#filter0_d_1_2691)">
<rect x="4" y="2.39999" width="40" height="40" rx="9.6" fill="#039BE5"/>
</g>
<path d="M14.9765 21.5354C20.3452 19.1963 23.9251 17.6543 25.7164 16.9092C30.8307 14.782 31.8935 14.4124 32.5861 14.4001C32.7385 14.3976 33.0791 14.4353 33.2998 14.6144C33.4861 14.7655 33.5373 14.9698 33.5619 15.1131C33.5864 15.2564 33.617 15.5829 33.5927 15.8381C33.3155 18.7501 32.1163 25.8169 31.5062 29.0784C31.248 30.4585 30.7397 30.9212 30.2476 30.9665C29.1782 31.0649 28.3661 30.2597 27.3302 29.5807C25.7094 28.5182 24.7937 27.8568 23.2203 26.82C21.4021 25.6218 22.5808 24.9632 23.617 23.887C23.8882 23.6053 28.6003 19.3193 28.6915 18.9305C28.7029 18.8819 28.7135 18.7006 28.6058 18.6049C28.4981 18.5092 28.3392 18.5419 28.2245 18.568C28.0619 18.6049 25.4726 20.3163 20.4564 23.7024C19.7214 24.2071 19.0557 24.453 18.4593 24.4401C17.8017 24.4259 16.5368 24.0683 15.5965 23.7626C14.4432 23.3877 13.5266 23.1895 13.6064 22.5528C13.648 22.2212 14.1047 21.882 14.9765 21.5354Z" fill="white"/>
<defs>
<filter id="filter0_d_1_2691" x="0" y="-6.07967e-06" width="48" height="48" filterUnits="userSpaceOnUse" color-interpolation-filters="sRGB">
<feFlood flood-opacity="0" result="BackgroundImageFix"/>
<feColorMatrix in="SourceAlpha" type="matrix" values="0 0 0 0 0 0 0 0 0 0 0 0 0 0 0 0 0 0 127 0" result="hardAlpha"/>
<feOffset dy="1.6"/>
<feGaussianBlur stdDeviation="2"/>
<feComposite in2="hardAlpha" operator="out"/>
<feColorMatrix type="matrix" values="0 0 0 0 0 0 0 0 0 0 0 0 0 0 0 0 0 0 0.2 0"/>
<feBlend mode="normal" in2="BackgroundImageFix" result="effect1_dropShadow_1_2691"/>
<feBlend mode="normal" in="SourceGraphic" in2="effect1_dropShadow_1_2691" result="shape"/>
</filter>
</defs>
</svg>
