<svg width="22" height="22" viewBox="0 0 22 22" fill="none" xmlns="http://www.w3.org/2000/svg">
<path d="M20.5806 0H1.41935C0.635467 0 0 0.635467 0 1.41935V20.5806C0 21.3645 0.635467 22 1.41935 22H20.5806C21.3645 22 22 21.3645 22 20.5806V1.41935C22 0.635467 21.3645 0 20.5806 0Z" fill="#E21743"/>
<path d="M13.1233 8.51611V10.2903L11.3516 11L13.1233 11.7097V13.4839L14.5405 12.0645L16.3119 12.4193L15.2491 11L16.3193 9.19918L14.5405 9.93547L13.1233 8.51611Z" fill="#E9EDF5"/>
<path d="M12.0642 8.5161C11.5993 7.75697 10.9474 7.12991 10.1708 6.69499C9.39411 6.26007 8.5188 6.03186 7.62867 6.03223C6.73126 6.03783 5.85092 6.27806 5.07505 6.72907C4.29918 7.18008 3.65477 7.82618 3.2058 8.60323C2.75683 9.38028 2.51891 10.2612 2.51566 11.1587C2.51241 12.0561 2.74395 12.9388 3.18729 13.719C3.63063 14.4993 4.27035 15.1501 5.04294 15.6067C5.81552 16.0633 6.6941 16.3099 7.59145 16.322C8.4888 16.3341 9.37371 16.1112 10.1583 15.6756C10.9429 15.24 11.6 14.6067 12.0642 13.8387C10.9996 14.9032 10.192 14.9032 8.87061 14.9032C7.83541 14.9032 6.84261 14.492 6.11061 13.76C5.37862 13.028 4.96738 12.0352 4.96738 11C4.96738 9.96477 5.37862 8.97197 6.11061 8.23997C6.84261 7.50797 7.83541 7.09674 8.87061 7.09674C9.47279 7.09552 10.0685 7.2213 10.6187 7.46587C11.169 7.71044 11.6615 8.0683 12.0642 8.5161Z" fill="#E9EDF5"/>
<path d="M14.1936 13.4839H7.80645C7.06969 13.4838 6.33665 13.3794 5.62916 13.1738C5.98579 13.7062 6.46816 14.1426 7.03359 14.4443C7.59903 14.7459 8.2301 14.9036 8.87097 14.9032C10.1924 14.9032 11 14.9032 12.0645 13.8387C11.5999 14.598 10.948 15.2252 10.1713 15.6601C9.39461 16.0951 8.51921 16.3232 7.62903 16.3226C6.30311 16.3219 5.02871 15.809 4.072 14.891C3.11528 13.9729 2.55024 12.7208 2.49487 11.396C1.70707 10.6665 1.07873 9.78179 0.649373 8.79764C0.220015 7.81349 -0.00107525 6.75116 3.93179e-06 5.67743V20.5807C3.93179e-06 20.9571 0.149543 21.3181 0.415723 21.5843C0.681904 21.8505 1.04292 22 1.41936 22H20.5806C20.9571 22 21.3181 21.8505 21.5843 21.5843C21.8505 21.3181 22 20.9571 22 20.5807V5.67743C22 7.74783 21.1775 9.73343 19.7135 11.1974C18.2495 12.6614 16.2639 13.4839 14.1936 13.4839Z" fill="#C7002B"/>
<path d="M7.62635 16.3226C8.51652 16.3232 9.39192 16.0951 10.1686 15.6601C10.9453 15.2252 11.5972 14.598 12.0618 13.8387C10.9973 14.9032 10.1897 14.9032 8.86828 14.9032C8.22741 14.9035 7.59634 14.7459 7.0309 14.4442C6.46547 14.1426 5.9831 13.7062 5.62648 13.1737C4.45713 12.8343 3.38365 12.2254 2.49219 11.396C2.54755 12.7208 3.1126 13.9729 4.06931 14.891C5.02602 15.809 6.30042 16.3219 7.62635 16.3226Z" fill="#DCE1EB"/>
<path d="M20.5806 20.5806H1.41935C1.04292 20.5806 0.6819 20.4311 0.415719 20.1649C0.149539 19.8987 0 19.5377 0 19.1613V20.5806C0 20.9571 0.149539 21.3181 0.415719 21.5843C0.6819 21.8505 1.04292 22 1.41935 22H20.5806C20.9571 22 21.3181 21.8505 21.5843 21.5843C21.8505 21.3181 22 20.9571 22 20.5806V19.1613C22 19.5377 21.8505 19.8987 21.5843 20.1649C21.3181 20.4311 20.9571 20.5806 20.5806 20.5806Z" fill="#B51135"/>
<path d="M20.5806 0H1.41935C1.04292 0 0.6819 0.149539 0.415719 0.415719C0.149539 0.6819 0 1.04292 0 1.41935V2.83871C0 2.46227 0.149539 2.10125 0.415719 1.83507C0.6819 1.56889 1.04292 1.41935 1.41935 1.41935H20.5806C20.9571 1.41935 21.3181 1.56889 21.5843 1.83507C21.8505 2.10125 22 2.46227 22 2.83871V1.41935C22 1.04292 21.8505 0.6819 21.5843 0.415719C21.3181 0.149539 20.9571 0 20.5806 0Z" fill="#EA5172"/>
</svg>
