<svg width="48" height="48" viewBox="0 0 48 48" fill="none" xmlns="http://www.w3.org/2000/svg">
<rect width="48" height="48" rx="10.8667" fill="#F4F4F4"/>
<path d="M23.4663 37H24.5489C30.4259 37 33.3651 37 35.1907 35.1749C37.0157 33.3493 37 30.4116 37 24.5489V23.4511C37 17.5894 37 14.6507 35.1907 12.8251C33.3808 11 30.4259 11 24.5489 11H23.4663C17.5884 11 14.6507 11 12.8251 12.8251C11 14.6507 11 17.5873 11 23.4511V24.5489C11 30.4116 11 33.3493 12.8251 35.1749C14.6507 37 17.5884 37 23.4663 37ZM24.9521 29.7459C19.0895 29.7459 15.5317 25.6783 15.3936 18.9193H18.3628C18.4552 23.8847 20.7139 25.9916 22.4456 26.4212V18.9193H25.2919V23.2032C26.9621 23.0179 28.7094 21.0694 29.298 18.9193H32.0971C31.6487 21.564 29.7464 23.513 28.4007 24.3169C29.7464 24.9674 31.9117 26.6686 32.7466 29.7459H29.6692C29.0192 27.6887 27.4262 26.0957 25.2919 25.8794V29.7459H24.9521Z" fill="#E20613"/>
</svg>
