<svg width="40" height="40" viewBox="0 0 40 40" fill="none" xmlns="http://www.w3.org/2000/svg">
<rect width="40" height="40" rx="10" fill="#F4F4F4"/>
<path d="M19.5526 30.8334H20.4549C25.3523 30.8334 27.8016 30.8334 29.3229 29.3125C30.8438 27.7911 30.8307 25.3431 30.8307 20.4575V19.5426C30.8307 14.6578 30.8307 12.2089 29.3229 10.6876C27.8147 9.16669 25.3523 9.16669 20.4549 9.16669H19.5526C14.6544 9.16669 12.2063 9.16669 10.685 10.6876C9.16406 12.2089 9.16406 14.6561 9.16406 19.5426V20.4575C9.16406 25.3431 9.16406 27.7911 10.685 29.3125C12.2063 30.8334 14.6544 30.8334 19.5526 30.8334ZM20.7909 24.7883C15.9053 24.7883 12.9405 21.3986 12.8254 15.7661H15.2997C15.3767 19.904 17.259 21.6597 18.7021 22.0177V15.7661H21.074V19.3361C22.4658 19.1816 23.9219 17.5579 24.4124 15.7661H26.745C26.3713 17.97 24.7861 19.5942 23.6646 20.2641C24.7861 20.8062 26.5905 22.2238 27.2862 24.7883H24.7217C24.1801 23.074 22.8526 21.7465 21.074 21.5662V24.7883H20.7909Z" fill="#E20613"/>
</svg>
