<svg width="40" height="40" viewBox="0 0 40 40" fill="none" xmlns="http://www.w3.org/2000/svg">
<rect width="40" height="40" rx="10" fill="#F4F4F4"/>
<g style="mix-blend-mode:multiply">
<path d="M9.16412 15.3469C9.16412 14.5155 9.32845 13.7071 9.65254 12.9443C9.96475 12.2093 10.4109 11.5488 10.9787 10.9811C11.5464 10.4134 12.2069 9.9672 12.9418 9.65499C13.7047 9.3309 14.5131 9.16657 15.3445 9.16657L24.6503 9.1665C25.4817 9.1665 26.2901 9.33084 27.053 9.65493C27.7879 9.96715 28.4484 10.4133 29.0162 10.9811C29.5839 11.5488 30.0301 12.2093 30.3423 12.9442C30.6664 13.7071 30.8307 14.5155 30.8307 15.3469L30.8307 24.6528C30.8307 25.4842 30.6663 26.2926 30.3422 27.0554C30.03 27.7904 29.5839 28.4508 29.0161 29.0186C28.4484 29.5863 27.7879 30.0325 27.053 30.3447C26.2901 30.6688 25.4817 30.8331 24.6503 30.8331L15.3445 30.8332C14.5131 30.8332 13.7047 30.6688 12.9418 30.3447C12.2069 30.0325 11.5464 29.5863 10.9786 29.0186C10.4109 28.4509 9.96471 27.7904 9.65249 27.0555C9.3284 26.2926 9.16406 25.4842 9.16406 24.6528L9.16412 15.3469Z" fill="#E20613"/>
</g>
<path d="M13.8937 19.7354C17.3833 18.183 19.7103 17.1596 20.8746 16.6652C24.199 15.2534 24.8897 15.0081 25.34 15C25.439 14.9983 25.6604 15.0233 25.8038 15.1421C25.9249 15.2425 25.9583 15.378 25.9742 15.4731C25.9901 15.5683 26.01 15.785 25.9942 15.9543C25.8141 17.8869 25.0346 22.5768 24.638 24.7414C24.4702 25.6573 24.1398 25.9644 23.8199 25.9944C23.1248 26.0597 22.5969 25.5254 21.9236 25.0747C20.8701 24.3696 20.2749 23.9307 19.2522 23.2426C18.0703 22.4474 18.8365 22.0103 19.51 21.296C19.6863 21.1091 22.7492 18.2646 22.8084 18.0066C22.8159 17.9743 22.8227 17.854 22.7527 17.7905C22.6828 17.727 22.5794 17.7487 22.5049 17.766C22.3992 17.7905 20.7162 18.9263 17.4557 21.1735C16.9779 21.5085 16.5452 21.6717 16.1575 21.6631C15.7301 21.6537 14.9079 21.4164 14.2967 21.2135C13.5471 20.9647 12.9513 20.8332 13.0031 20.4106C13.0302 20.1905 13.327 19.9654 13.8937 19.7354Z" fill="white"/>
</svg>
