<svg width="30" height="30" viewBox="0 0 30 30" fill="none" xmlns="http://www.w3.org/2000/svg">
<path d="M15 7C12.911 7 11.212 8.72 11.212 10.8338V11.4444H9.71238C9.04473 11.4444 8.41924 11.7458 7.99669 12.2711C7.57414 12.7964 7.41074 13.4764 7.54691 14.1396L9.00432 21.2196C9.21779 22.2507 10.1288 23 11.1707 23H18.8302C19.8721 23 20.7831 22.2507 20.9957 21.2178L22.4531 14.1387C22.5893 13.4764 22.4259 12.7956 22.0033 12.2702C21.5808 11.7449 20.9553 11.4444 20.2876 11.4444H18.7889V10.8338C18.7889 8.72 17.089 7 15 7ZM12.0904 10.8338C12.0904 9.20978 13.3959 7.88889 15 7.88889C16.6041 7.88889 17.9104 9.20978 17.9104 10.8338V11.4444H12.0904V10.8338ZM21.3216 12.832C21.5755 13.1484 21.6739 13.5591 21.5931 13.9591L20.1356 21.0373C20.0065 21.6596 19.4574 22.1111 18.8293 22.1111H11.1707C10.5426 22.1111 9.9935 21.6596 9.86524 21.0373L8.40782 13.9582C8.32612 13.5591 8.42539 13.1484 8.67928 12.8311C8.93316 12.5147 9.30915 12.3333 9.71238 12.3333H11.6503H18.3488H20.2867C20.6908 12.3333 21.0668 12.5147 21.3216 12.832Z" fill="white"/>
<path d="M21.3216 12.832C21.5755 13.1484 21.6739 13.5591 21.5931 13.9591L20.1356 21.0373C20.0065 21.6596 19.4574 22.1111 18.8293 22.1111H11.1707C10.5426 22.1111 9.9935 21.6596 9.86524 21.0373L8.40782 13.9582C8.32612 13.5591 8.42539 13.1484 8.67928 12.8311C8.93316 12.5147 9.30915 12.3333 9.71238 12.3333H11.6503H18.3488H20.2867C20.6908 12.3333 21.0668 12.5147 21.3216 12.832Z" fill="white"/>
</svg>
