<svg width="30" height="30" viewBox="0 0 30 30" fill="none" xmlns="http://www.w3.org/2000/svg">
<path d="M19.05 7C17.4375 7.00241 15.927 7.76506 15 9.04448C14.073 7.76506 12.5625 7.00241 10.95 7C8.31299 7 6 9.37914 6 12.091C6 14.7339 7.53896 17.4559 10.4508 19.963C11.7999 21.1224 13.2798 22.1302 14.8623 22.9676C14.9487 23.0108 15.0513 23.0108 15.1377 22.9676C16.7196 22.1302 18.1991 21.1223 19.5478 19.963C22.461 17.4559 24 14.7339 24 12.091C24 9.37914 21.687 7 19.05 7ZM15 22.3784C13.8981 21.7888 6.6 17.6694 6.6 12.091C6.6 9.68894 8.63247 7.58182 10.95 7.58182C12.52 7.58452 13.9673 8.40584 14.7387 9.73198C14.7964 9.8175 14.8947 9.86892 15 9.86892C15.1053 9.86892 15.2036 9.8175 15.2613 9.73198C16.0327 8.40584 17.48 7.58452 19.05 7.58182C21.3675 7.58182 23.4 9.68894 23.4 12.091C23.4 17.6694 16.1019 21.7888 15 22.3784Z" fill="white"/>
<path d="M15 22.3784C13.8981 21.7888 6.6 17.6694 6.6 12.091C6.6 9.68894 8.63247 7.58182 10.95 7.58182C12.52 7.58452 13.9673 8.40584 14.7387 9.73198C14.7964 9.8175 14.8947 9.86892 15 9.86892C15.1053 9.86892 15.2036 9.8175 15.2613 9.73198C16.0327 8.40584 17.48 7.58452 19.05 7.58182C21.3675 7.58182 23.4 9.68894 23.4 12.091C23.4 17.6694 16.1019 21.7888 15 22.3784Z" fill="white"/>
<path d="M19.05 7C17.4375 7.00241 15.927 7.76506 15 9.04448C14.073 7.76506 12.5625 7.00241 10.95 7C8.31299 7 6 9.37914 6 12.091C6 14.7339 7.53896 17.4559 10.4508 19.963C11.7999 21.1224 13.2798 22.1302 14.8623 22.9676C14.9487 23.0108 15.0513 23.0108 15.1377 22.9676C16.7196 22.1302 18.1991 21.1223 19.5478 19.963C22.461 17.4559 24 14.7339 24 12.091C24 9.37914 21.687 7 19.05 7ZM15 22.3784C13.8981 21.7888 6.6 17.6694 6.6 12.091C6.6 9.68894 8.63247 7.58182 10.95 7.58182C12.52 7.58452 13.9673 8.40584 14.7387 9.73198C14.7964 9.8175 14.8947 9.86892 15 9.86892C15.1053 9.86892 15.2036 9.8175 15.2613 9.73198C16.0327 8.40584 17.48 7.58452 19.05 7.58182C21.3675 7.58182 23.4 9.68894 23.4 12.091C23.4 17.6694 16.1019 21.7888 15 22.3784Z" stroke="white" stroke-width="0.334477"/>
<path d="M15 22.3784C13.8981 21.7888 6.6 17.6694 6.6 12.091C6.6 9.68894 8.63247 7.58182 10.95 7.58182C12.52 7.58452 13.9673 8.40584 14.7387 9.73198C14.7964 9.8175 14.8947 9.86892 15 9.86892C15.1053 9.86892 15.2036 9.8175 15.2613 9.73198C16.0327 8.40584 17.48 7.58452 19.05 7.58182C21.3675 7.58182 23.4 9.68894 23.4 12.091C23.4 17.6694 16.1019 21.7888 15 22.3784Z" stroke="white" stroke-width="0.334477"/>
</svg>
