<svg width="30" height="30" viewBox="0 0 30 30" fill="none" xmlns="http://www.w3.org/2000/svg">
<path d="M15.0001 7C13.4032 7.00147 11.8431 7.47997 10.5204 8.37402C9.19772 9.26807 8.17282 10.5368 7.5774 12.0173C6.98197 13.4977 6.84323 15.1222 7.17898 16.682C7.51474 18.2419 8.30966 19.6658 9.46161 20.7708L9.49364 20.8001C10.9785 22.2123 12.95 23 15.0001 23C17.0502 23 19.0218 22.2123 20.5066 20.8001L20.5386 20.7708C21.6906 19.6658 22.4855 18.2419 22.8213 16.682C23.157 15.1222 23.0183 13.4977 22.4229 12.0173C21.8274 10.5368 20.8025 9.26807 19.4798 8.37402C18.1572 7.47997 16.5971 7.00147 15.0001 7ZM9.92871 20.4774V18.7334C9.92871 18.0969 10.1818 17.4864 10.6323 17.0364C11.0828 16.5863 11.6938 16.3334 12.331 16.3334H17.6693C18.3064 16.3334 18.9174 16.5863 19.3679 17.0364C19.8184 17.4864 20.0715 18.0969 20.0715 18.7334V20.4774C18.6928 21.7559 16.8812 22.4664 15.0001 22.4664C13.119 22.4664 11.3075 21.7559 9.92871 20.4774ZM20.6054 19.9308V18.7334C20.6054 17.9555 20.296 17.2093 19.7454 16.6592C19.1948 16.1091 18.448 15.8001 17.6693 15.8001H12.331C11.5523 15.8001 10.8055 16.1091 10.2548 16.6592C9.70421 17.2093 9.39488 17.9555 9.39488 18.7334V19.9308C8.44354 18.8531 7.82367 17.524 7.60966 16.103C7.39565 14.6821 7.59658 13.2296 8.18835 11.9199C8.78011 10.6102 9.73757 9.49893 10.9458 8.71942C12.1541 7.9399 13.5618 7.52527 15.0001 7.52527C16.4384 7.52527 17.8462 7.9399 19.0544 8.71942C20.2627 9.49893 21.2201 10.6102 21.8119 11.9199C22.4037 13.2296 22.6046 14.6821 22.3906 16.103C22.1766 17.524 21.5567 18.8531 20.6054 19.9308Z" fill="white"/>
<path d="M9.92871 20.4774V18.7334C9.92871 18.0969 10.1818 17.4864 10.6323 17.0364C11.0828 16.5863 11.6938 16.3334 12.331 16.3334H17.6693C18.3064 16.3334 18.9174 16.5863 19.3679 17.0364C19.8184 17.4864 20.0715 18.0969 20.0715 18.7334V20.4774C18.6928 21.7559 16.8812 22.4664 15.0001 22.4664C13.119 22.4664 11.3075 21.7559 9.92871 20.4774Z" fill="white"/>
<path d="M15.0001 7C13.4032 7.00147 11.8431 7.47997 10.5204 8.37402C9.19772 9.26807 8.17282 10.5368 7.5774 12.0173C6.98197 13.4977 6.84323 15.1222 7.17898 16.682C7.51474 18.2419 8.30966 19.6658 9.46161 20.7708L9.49364 20.8001C10.9785 22.2123 12.95 23 15.0001 23C17.0502 23 19.0218 22.2123 20.5066 20.8001L20.5386 20.7708C21.6906 19.6658 22.4855 18.2419 22.8213 16.682C23.157 15.1222 23.0183 13.4977 22.4229 12.0173C21.8274 10.5368 20.8025 9.26807 19.4798 8.37402C18.1572 7.47997 16.5971 7.00147 15.0001 7ZM9.92871 20.4774V18.7334C9.92871 18.0969 10.1818 17.4864 10.6323 17.0364C11.0828 16.5863 11.6938 16.3334 12.331 16.3334H17.6693C18.3064 16.3334 18.9174 16.5863 19.3679 17.0364C19.8184 17.4864 20.0715 18.0969 20.0715 18.7334V20.4774C18.6928 21.7559 16.8812 22.4664 15.0001 22.4664C13.119 22.4664 11.3075 21.7559 9.92871 20.4774ZM20.6054 19.9308V18.7334C20.6054 17.9555 20.296 17.2093 19.7454 16.6592C19.1948 16.1091 18.448 15.8001 17.6693 15.8001H12.331C11.5523 15.8001 10.8055 16.1091 10.2548 16.6592C9.70421 17.2093 9.39488 17.9555 9.39488 18.7334V19.9308C8.44354 18.8531 7.82367 17.524 7.60966 16.103C7.39565 14.6821 7.59658 13.2296 8.18835 11.9199C8.78011 10.6102 9.73757 9.49893 10.9458 8.71942C12.1541 7.9399 13.5618 7.52527 15.0001 7.52527C16.4384 7.52527 17.8462 7.9399 19.0544 8.71942C20.2627 9.49893 21.2201 10.6102 21.8119 11.9199C22.4037 13.2296 22.6046 14.6821 22.3906 16.103C22.1766 17.524 21.5567 18.8531 20.6054 19.9308Z" stroke="white" stroke-width="0.334477"/>
<path d="M9.92871 20.4774V18.7334C9.92871 18.0969 10.1818 17.4864 10.6323 17.0364C11.0828 16.5863 11.6938 16.3334 12.331 16.3334H17.6693C18.3064 16.3334 18.9174 16.5863 19.3679 17.0364C19.8184 17.4864 20.0715 18.0969 20.0715 18.7334V20.4774C18.6928 21.7559 16.8812 22.4664 15.0001 22.4664C13.119 22.4664 11.3075 21.7559 9.92871 20.4774Z" stroke="white" stroke-width="0.334477"/>
<path d="M14.9974 9.00012C14.3381 9.00012 13.6937 9.19562 13.1455 9.56189C12.5973 9.92816 12.1701 10.4488 11.9178 11.0578C11.6655 11.6669 11.5995 12.3372 11.7281 12.9838C11.8567 13.6304 12.1742 14.2243 12.6404 14.6905C13.1065 15.1567 13.7005 15.4741 14.3471 15.6027C14.9937 15.7314 15.6639 15.6653 16.273 15.4131C16.8821 15.1608 17.4027 14.7335 17.769 14.1854C18.1352 13.6372 18.3307 12.9927 18.3307 12.3335C18.3307 11.4494 17.9795 10.6016 17.3544 9.97643C16.7293 9.35131 15.8815 9.00012 14.9974 9.00012ZM14.9974 15.1112C14.448 15.1112 13.9109 14.9483 13.4541 14.6431C12.9973 14.3379 12.6413 13.904 12.4311 13.3965C12.2208 12.8889 12.1658 12.3304 12.273 11.7915C12.3802 11.2527 12.6447 10.7577 13.0332 10.3693C13.4217 9.98079 13.9166 9.71623 14.4555 9.60905C14.9943 9.50187 15.5528 9.55688 16.0604 9.76712C16.568 9.97737 17.0018 10.3334 17.307 10.7902C17.6123 11.247 17.7752 11.7841 17.7752 12.3335C17.7752 13.0702 17.4825 13.7767 16.9616 14.2976C16.4406 14.8186 15.7341 15.1112 14.9974 15.1112Z" fill="white"/>
<path d="M14.9974 15.1112C14.448 15.1112 13.9109 14.9483 13.4541 14.6431C12.9973 14.3379 12.6413 13.904 12.4311 13.3965C12.2208 12.8889 12.1658 12.3304 12.273 11.7915C12.3802 11.2527 12.6447 10.7577 13.0332 10.3693C13.4217 9.98079 13.9166 9.71623 14.4555 9.60905C14.9943 9.50187 15.5528 9.55688 16.0604 9.76712C16.568 9.97737 17.0018 10.3334 17.307 10.7902C17.6123 11.247 17.7752 11.7841 17.7752 12.3335C17.7752 13.0702 17.4825 13.7767 16.9616 14.2976C16.4406 14.8186 15.7341 15.1112 14.9974 15.1112Z" fill="white"/>
<path d="M14.9974 9.00012C14.3381 9.00012 13.6937 9.19562 13.1455 9.56189C12.5973 9.92816 12.1701 10.4488 11.9178 11.0578C11.6655 11.6669 11.5995 12.3372 11.7281 12.9838C11.8567 13.6304 12.1742 14.2243 12.6404 14.6905C13.1065 15.1567 13.7005 15.4741 14.3471 15.6027C14.9937 15.7314 15.6639 15.6653 16.273 15.4131C16.8821 15.1608 17.4027 14.7335 17.769 14.1854C18.1352 13.6372 18.3307 12.9927 18.3307 12.3335C18.3307 11.4494 17.9795 10.6016 17.3544 9.97643C16.7293 9.35131 15.8815 9.00012 14.9974 9.00012ZM14.9974 15.1112C14.448 15.1112 13.9109 14.9483 13.4541 14.6431C12.9973 14.3379 12.6413 13.904 12.4311 13.3965C12.2208 12.8889 12.1658 12.3304 12.273 11.7915C12.3802 11.2527 12.6447 10.7577 13.0332 10.3693C13.4217 9.98079 13.9166 9.71623 14.4555 9.60905C14.9943 9.50187 15.5528 9.55688 16.0604 9.76712C16.568 9.97737 17.0018 10.3334 17.307 10.7902C17.6123 11.247 17.7752 11.7841 17.7752 12.3335C17.7752 13.0702 17.4825 13.7767 16.9616 14.2976C16.4406 14.8186 15.7341 15.1112 14.9974 15.1112Z" stroke="white" stroke-width="0.334477"/>
<path d="M14.9974 15.1112C14.448 15.1112 13.9109 14.9483 13.4541 14.6431C12.9973 14.3379 12.6413 13.904 12.4311 13.3965C12.2208 12.8889 12.1658 12.3304 12.273 11.7915C12.3802 11.2527 12.6447 10.7577 13.0332 10.3693C13.4217 9.98079 13.9166 9.71623 14.4555 9.60905C14.9943 9.50187 15.5528 9.55688 16.0604 9.76712C16.568 9.97737 17.0018 10.3334 17.307 10.7902C17.6123 11.247 17.7752 11.7841 17.7752 12.3335C17.7752 13.0702 17.4825 13.7767 16.9616 14.2976C16.4406 14.8186 15.7341 15.1112 14.9974 15.1112Z" stroke="white" stroke-width="0.334477"/>
</svg>
