<svg width="17" height="17" viewBox="0 0 17 17" fill="none" xmlns="http://www.w3.org/2000/svg">
<path fill-rule="evenodd" clip-rule="evenodd" d="M12.4157 11.5463C13.4643 10.2958 14.0636 8.74995 14.0636 7.09826C14.0636 5.23733 13.3387 3.48841 12.023 2.17395C10.7074 0.859485 8.95849 0.133331 7.0976 0.133331C5.23671 0.133331 3.48782 0.858254 2.17339 2.17395C0.858952 3.48964 0.132812 5.23733 0.132812 7.09826C0.132812 8.95918 0.857721 10.7081 2.17339 12.0238C3.48906 13.3395 5.23795 14.0644 7.0976 14.0644C8.74926 14.0644 10.2951 13.465 11.5455 12.4164L15.0815 15.9524C15.2021 16.073 15.3596 16.1333 15.5171 16.1333C15.6747 16.1333 15.8322 16.073 15.9528 15.9536C16.1928 15.7136 16.1928 15.3235 15.9528 15.0835L12.4157 11.5463ZM7.0976 12.8336C8.62988 12.8336 10.0699 12.2367 11.1529 11.1536C12.236 10.0706 12.8329 8.63056 12.8329 7.09826C12.8329 5.56718 12.236 4.12718 11.1529 3.0441C10.0699 1.95979 8.62988 1.3641 7.0976 1.3641C5.56655 1.3641 4.12658 1.96102 3.04353 3.0441C1.95924 4.12595 1.36356 5.56718 1.36356 7.09826C1.36356 8.63056 1.96047 10.0706 3.04353 11.1536C4.12535 12.2379 5.56655 12.8336 7.0976 12.8336Z" fill="#6D778B" stroke="white" stroke-width="0.266667"/>
</svg>
