<svg width="23" height="23" viewBox="0 0 23 23" fill="none" xmlns="http://www.w3.org/2000/svg">
<path d="M17.375 0.25C20.2055 0.25 22.5 2.54454 22.5 5.375V17.375C22.5 20.2055 20.2055 22.5 17.375 22.5H5.375C2.54454 22.5 0.25 20.2055 0.25 17.375V5.375C0.25 2.54454 2.54454 0.25 5.375 0.25H17.375ZM5.375 1.5C3.23489 1.5 1.5 3.23489 1.5 5.375V17.375C1.5 19.5151 3.23489 21.25 5.375 21.25H17.375C19.5151 21.25 21.25 19.5151 21.25 17.375V5.375C21.25 3.23489 19.5151 1.5 17.375 1.5H5.375ZM6.625 6.97559C6.625 5.30084 8.47184 4.28457 9.88672 5.18066L17.334 9.89648C18.4187 10.5836 18.4187 12.1664 17.334 12.8535L9.88672 17.5693C8.47184 18.4654 6.625 17.4492 6.625 15.7744V6.97559ZM9.21777 6.23633C8.63525 5.86767 7.875 6.28608 7.875 6.97559V15.7744C7.875 16.4639 8.63525 16.8823 9.21777 16.5137L16.665 11.7979C16.975 11.6015 16.975 11.1485 16.665 10.9521L9.21777 6.23633Z" fill="#E20613" stroke="#E20613" stroke-width="0.5"/>
</svg>
