<svg width="48" height="48" viewBox="0 0 48 48" fill="none" xmlns="http://www.w3.org/2000/svg">
<rect width="48" height="48" rx="10.8667" fill="#F4F4F4"/>
<g style="mix-blend-mode:multiply">
<path d="M11.0001 18.4165C11.0001 17.4188 11.1973 16.4488 11.5862 15.5333C11.9608 14.6514 12.4962 13.8588 13.1775 13.1775C13.8588 12.4962 14.6514 11.9608 15.5333 11.5862C16.4487 11.1973 17.4188 11.0001 18.4165 11.0001L29.5835 11C30.5812 11 31.5513 11.1972 32.4667 11.5861C33.3486 11.9608 34.1412 12.4962 34.8225 13.1775C35.5038 13.8588 36.0392 14.6514 36.4139 15.5333C36.8028 16.4487 37 17.4188 37 18.4165L36.9999 29.5835C36.9999 30.5812 36.8027 31.5513 36.4138 32.4667C36.0392 33.3486 35.5037 34.1412 34.8225 34.8225C34.1412 35.5038 33.3486 36.0392 32.4667 36.4138C31.5512 36.8027 30.5812 36.9999 29.5835 36.9999L18.4165 37C17.4188 37 16.4487 36.8028 15.5333 36.4139C14.6514 36.0392 13.8588 35.5038 13.1775 34.8225C12.4962 34.1412 11.9608 33.3486 11.5861 32.4667C11.1972 31.5513 11 30.5812 11 29.5835L11.0001 18.4165Z" fill="#E20613"/>
</g>
<path d="M21.0139 28.8919L21.2684 29.0451C22.2031 29.6069 23.2663 29.904 24.3429 29.904C27.6637 29.904 30.3656 27.1786 30.3656 23.8284C30.3656 20.4782 27.6638 17.7529 24.3429 17.7529C21.0221 17.7529 18.3203 20.4782 18.3203 23.8284C18.3203 24.9346 18.6249 26.0238 19.2011 26.9784L19.3573 27.2371L18.7555 29.5024L21.0139 28.8919L21.0139 28.8919Z" fill="#E20613"/>
<path d="M16.7734 31.5063L17.8514 27.449C17.2411 26.3381 16.9199 25.0933 16.9199 23.8298C16.9199 19.6991 20.2514 16.3383 24.3462 16.3383C28.4411 16.3383 31.7727 19.6991 31.7727 23.8298C31.7727 27.9606 28.4412 31.3215 24.3462 31.3215C23.1169 31.3215 21.9028 31.0084 20.8162 30.4138L16.7734 31.5063ZM21.0172 28.8933L21.2717 29.0465C22.2064 29.6083 23.2696 29.9054 24.3462 29.9054C27.6671 29.9054 30.3689 27.18 30.3689 23.8298C30.3689 20.4797 27.6671 17.7543 24.3462 17.7543C21.0254 17.7543 18.3236 20.4797 18.3236 23.8298C18.3236 24.936 18.6283 26.0252 19.2044 26.9798L19.3606 27.2385L18.7589 29.5038L21.0172 28.8933L21.0172 28.8933Z" fill="white"/>
<path fill-rule="evenodd" clip-rule="evenodd" d="M27.1112 24.8722C26.8055 24.6877 26.4078 24.4818 26.0477 24.6305C25.7714 24.7445 25.595 25.1807 25.4161 25.4035C25.3242 25.5178 25.2145 25.5357 25.0735 25.4784C24.0364 25.0618 23.2417 24.3633 22.6695 23.4011C22.5726 23.2515 22.59 23.1336 22.7068 22.9949C22.8797 22.7897 23.0967 22.5565 23.1435 22.2797C23.1903 22.0031 23.0616 21.6795 22.9483 21.4332C22.8033 21.1183 22.6413 20.6693 22.3288 20.4912C22.0412 20.3274 21.6627 20.4191 21.4067 20.6294C20.9648 20.9925 20.7515 21.5613 20.758 22.1252C20.7597 22.2854 20.7793 22.4453 20.8163 22.5998C20.9055 22.9718 21.0759 23.319 21.2677 23.6492C21.4123 23.8982 21.5694 24.1398 21.7389 24.3721C22.2936 25.1322 22.9837 25.7928 23.7827 26.2865C24.182 26.5331 24.612 26.7495 25.0573 26.8979C25.5567 27.0643 26.0016 27.2376 26.5409 27.1343C27.1055 27.0262 27.6622 26.6736 27.8863 26.1248C27.9526 25.9622 27.9858 25.7812 27.9487 25.6096C27.8719 25.2548 27.3957 25.0438 27.1112 24.8722L27.1112 24.8722Z" fill="white"/>
<path d="M29.1814 18.1474C29.5275 18.4421 29.8479 18.7683 30.1361 19.1219C30.4234 19.4761 30.6802 19.8561 30.8993 20.2577C31.0087 20.4586 31.1094 20.6643 31.2005 20.8744L31.2341 20.9535C31.2451 20.9799 31.2569 21.006 31.267 21.0328L31.3299 21.1927L31.3886 21.3542C31.3986 21.3811 31.4076 21.4083 31.4166 21.4355L31.4437 21.5171C31.5147 21.735 31.5761 21.9562 31.6277 22.1798C31.6787 22.4036 31.7188 22.6298 31.7491 22.8574L31.7601 22.9428L31.7656 22.9855L31.7699 23.0284L31.7871 23.1998L31.7996 23.3716C31.8021 23.4002 31.8032 23.4289 31.8045 23.4576L31.8084 23.5436C31.8175 23.7731 31.8173 24.0031 31.8063 24.2326C31.7843 24.6918 31.7191 25.1488 31.6135 25.5962C31.4032 26.4914 31.0249 27.3461 30.5072 28.104C30.2488 28.4832 29.9558 28.8384 29.6333 29.1641C29.3107 29.4896 28.9587 29.7854 28.5828 30.0463C27.8316 30.5687 26.9848 30.9521 26.0968 31.1643C25.6531 31.2707 25.1998 31.3364 24.7445 31.3595C24.6876 31.3623 24.6306 31.3638 24.5737 31.366C24.5452 31.3673 24.5167 31.3676 24.4882 31.3678L24.4027 31.3687C24.3458 31.37 24.2888 31.368 24.2318 31.3672C24.1748 31.3659 24.1178 31.366 24.0609 31.3624L23.8902 31.3538C23.8334 31.3496 23.7766 31.3445 23.7198 31.3399L23.6773 31.3363C23.6631 31.3352 23.6489 31.334 23.6347 31.3322L23.5498 31.3224L23.4649 31.3126L23.4225 31.3077L23.3802 31.3015L23.2111 31.2766C23.197 31.2747 23.183 31.2721 23.169 31.2695L23.1269 31.262L23.0428 31.2469C23.0148 31.2417 22.9867 31.2371 22.9588 31.2315L22.8752 31.2137L22.7916 31.196L22.7498 31.1872C22.7359 31.1843 22.7221 31.1805 22.7083 31.1772L22.5423 31.1366C22.5145 31.1302 22.4872 31.1219 22.4597 31.1144L22.3774 31.0915L22.2951 31.0686L22.2135 31.0431L22.132 31.0177C22.1048 31.009 22.0774 31.0012 22.0507 30.9915L21.8892 30.9355C21.8758 30.9307 21.8622 30.9264 21.8489 30.9213L21.809 30.906L21.7291 30.8755L21.6493 30.845C21.6228 30.8346 21.5967 30.8231 21.5704 30.8122C21.518 30.79 21.4652 30.7685 21.413 30.7457C21.2046 30.6533 21.0007 30.5513 20.8007 30.442L20.8246 30.4449L19.8123 30.7121L18.7997 30.978L17.7868 31.2428L16.7734 31.5057L17.7814 31.2224L18.7899 30.9408L19.7986 30.6605L20.8078 30.3814L20.8201 30.378L20.8317 30.3843C21.6271 30.8131 22.4987 31.0968 23.392 31.2116L23.4338 31.2174L23.4757 31.222L23.5597 31.2309L23.6436 31.2399C23.6576 31.2416 23.6716 31.2427 23.6856 31.2437L23.7277 31.2469L23.896 31.2594L24.0646 31.267C24.1208 31.2704 24.177 31.2699 24.2333 31.271C24.2895 31.2715 24.3458 31.2732 24.402 31.2716L24.4864 31.2704C24.5145 31.27 24.5426 31.2696 24.5707 31.2682C24.6269 31.2657 24.6832 31.2639 24.7393 31.2609C25.1886 31.2359 25.6354 31.1689 26.0724 31.0619C26.2909 31.0082 26.5069 30.9447 26.7197 30.8715C26.9325 30.7984 27.1417 30.7145 27.3468 30.6217C27.7568 30.4356 28.1502 30.2123 28.5202 29.9547C28.8901 29.6971 29.2371 29.4059 29.5554 29.0855C29.8733 28.7647 30.1624 28.415 30.4182 28.042C30.674 27.6689 30.8959 27.2723 31.081 26.8589C31.2664 26.4454 31.4127 26.0143 31.5191 25.5733C31.5722 25.3528 31.6154 25.1298 31.6484 24.9052C31.6814 24.6807 31.7054 24.4547 31.7177 24.2279C31.7304 24.0012 31.7325 23.7738 31.7252 23.5468L31.722 23.4616C31.7209 23.4332 31.7201 23.4048 31.7179 23.3765L31.7068 23.2065L31.6912 23.0368L31.6872 22.9944L31.6821 22.9521L31.6719 22.8675C31.5625 21.9649 31.2824 21.0842 30.8582 20.2802C30.7527 20.0788 30.6362 19.8833 30.5123 19.6928C30.3881 19.5025 30.2561 19.3173 30.1158 19.1384C29.8343 18.7814 29.5208 18.4499 29.1814 18.1473L29.1814 18.1474Z" fill="#BABABA"/>
<path d="M16.7735 31.5054L16.9016 30.9964L17.0304 30.4876L17.2895 29.4705L17.5501 28.4537L17.8124 27.4374L17.8161 27.4678C17.3913 26.7061 17.0985 25.8687 16.9573 25.0046L16.9333 24.8422L16.9273 24.8016C16.9252 24.788 16.9232 24.7745 16.9218 24.7609L16.9124 24.6793L16.903 24.5978C16.9 24.5706 16.8963 24.5434 16.8945 24.5161L16.8809 24.3524L16.8775 24.3115C16.8764 24.2979 16.876 24.2842 16.8752 24.2705L16.871 24.1885L16.8668 24.1065L16.8648 24.0655L16.864 24.0244L16.8608 23.8602C16.86 23.8328 16.8604 23.8054 16.8607 23.778L16.8614 23.6959C16.8645 23.4769 16.8769 23.258 16.8986 23.04C16.9202 22.822 16.9525 22.6051 16.9931 22.3898C17.0338 22.1745 17.084 21.961 17.1432 21.7501C17.2025 21.5393 17.2719 21.3313 17.3494 21.1265C17.4271 20.9218 17.5136 20.7204 17.6087 20.5233C17.6331 20.4743 17.6568 20.425 17.6816 20.3762L17.7577 20.2308L17.8372 20.0873C17.8502 20.0632 17.8646 20.0399 17.8782 20.0162L17.9197 19.9455C18.1436 19.5696 18.4001 19.2136 18.6847 18.8822C18.9699 18.5513 19.2834 18.2454 19.6206 17.9689C19.9574 17.6918 20.3188 17.4455 20.6985 17.2325C20.8882 17.1259 21.0826 17.0275 21.2807 16.9378L21.4301 16.8722L21.581 16.8104C21.6822 16.7708 21.7837 16.732 21.8865 16.6968C22.2971 16.5543 22.7197 16.4466 23.1486 16.3799C23.363 16.3462 23.5787 16.3215 23.7951 16.3064C24.0114 16.291 24.2284 16.2871 24.4451 16.2907C24.8785 16.2987 25.311 16.3455 25.736 16.4295C25.9484 16.4715 26.159 16.5229 26.3669 16.5835C26.5747 16.6443 26.7797 16.7147 26.9812 16.7938C27.3843 16.9519 27.7732 17.1458 28.1417 17.3729C28.5103 17.5996 28.8587 17.859 29.1814 18.147C28.8507 17.8684 28.4971 17.6183 28.1255 17.4004C27.7535 17.1829 27.3638 16.9971 26.9611 16.8473C26.7598 16.7724 26.5553 16.7066 26.3484 16.6497C26.1416 16.5925 25.9324 16.5446 25.7216 16.506C25.3 16.4286 24.8719 16.3895 24.4439 16.3862C23.5877 16.3791 22.7314 16.5224 21.9256 16.8097C21.7241 16.8814 21.5256 16.9616 21.3312 17.0509C21.1368 17.1401 20.9462 17.2378 20.7602 17.3436C20.3882 17.5553 20.0336 17.7983 19.7035 18.0715C19.5383 18.2079 19.3789 18.3515 19.2258 18.5015C19.0726 18.6515 18.9256 18.808 18.7858 18.9707C18.5066 19.2966 18.2551 19.6464 18.0346 20.0151C17.8135 20.3836 17.6269 20.7728 17.4726 21.1742C17.3958 21.3751 17.3271 21.5792 17.2681 21.7862C17.2093 21.9933 17.1594 22.2029 17.1182 22.4142C17.0772 22.6256 17.0444 22.8387 17.022 23.053C16.9997 23.2673 16.9864 23.4825 16.9817 23.698L16.9804 23.7788C16.9799 23.8058 16.9793 23.8327 16.98 23.8597L16.9819 24.0213L16.9824 24.0617L16.9841 24.1021L16.9877 24.1828L16.9913 24.2636C16.9919 24.277 16.9923 24.2905 16.9932 24.304L16.9963 24.3443L17.0085 24.5055C17.0102 24.5324 17.0136 24.5591 17.0163 24.5859L17.025 24.6663L17.0335 24.7467C17.0348 24.7601 17.0366 24.7735 17.0385 24.7868L17.0441 24.8269L17.0663 24.987C17.0748 25.0403 17.0843 25.0933 17.0932 25.1465L17.1069 25.2262L17.123 25.3054C17.1338 25.3582 17.1442 25.4111 17.1554 25.4639L17.1926 25.6213L17.2019 25.6606C17.2049 25.6738 17.2081 25.6869 17.2117 25.6998L17.2327 25.7779L17.2537 25.856C17.2608 25.882 17.2673 25.9082 17.2755 25.9339L17.3222 26.0887L17.3339 26.1275C17.3379 26.1403 17.3425 26.153 17.3467 26.1658L17.3725 26.2425C17.5088 26.6518 17.6838 27.0477 17.8868 27.4282L17.8947 27.4431L17.8905 27.4586L17.6138 28.471L17.3354 29.4829L17.0555 30.4944L16.9148 31L16.7734 31.5054L16.7735 31.5054Z" fill="white"/>
<path d="M18.7578 29.5035L19.32 29.3421L19.8826 29.1819L20.4454 29.0225L21.0084 28.8638L21.0203 28.8605L21.0315 28.8671L21.2821 29.0142L21.4078 29.0855C21.4288 29.0973 21.4495 29.1095 21.4707 29.1209L21.5347 29.1544C21.7043 29.2457 21.8796 29.3255 22.0571 29.3993L22.1909 29.453L22.3263 29.5024C22.3489 29.5104 22.3713 29.5191 22.3941 29.5267L22.4626 29.5489L22.5311 29.5712C22.5539 29.5786 22.5766 29.5864 22.5998 29.5927L22.7381 29.6327C22.7496 29.6359 22.7611 29.6395 22.7727 29.6425L22.8076 29.6514L22.8773 29.6691L22.9471 29.6868C22.9703 29.6929 22.9939 29.6973 23.0172 29.7026L23.1578 29.7333L23.2993 29.7592L23.3346 29.7657L23.3523 29.7689L23.3701 29.7716L23.4412 29.7821L23.5123 29.7926L23.5478 29.798L23.5835 29.8021L23.7263 29.8185C23.75 29.8216 23.774 29.8229 23.7978 29.825L23.8694 29.8308L23.941 29.8365C23.9649 29.838 23.9889 29.8388 24.0128 29.84C24.0606 29.842 24.1084 29.8448 24.1563 29.8463L24.2999 29.8479C24.6829 29.8491 25.0659 29.8136 25.4417 29.7412C26.1937 29.5976 26.9167 29.3049 27.5589 28.8862C27.8804 28.6774 28.1818 28.4373 28.458 28.1705C28.7345 27.9041 28.9857 27.6111 29.2071 27.2966C29.4286 26.9822 29.6206 26.6466 29.7786 26.2952C29.937 25.9441 30.0618 25.5774 30.15 25.2018C30.2389 24.8263 30.2911 24.4419 30.3072 24.0559L30.3103 23.9835L30.3116 23.9111L30.3129 23.8386C30.3132 23.8145 30.3126 23.7903 30.3125 23.7662L30.3118 23.6937C30.3115 23.6695 30.3116 23.6454 30.3104 23.6212L30.3047 23.4764C30.2939 23.2834 30.275 23.0908 30.2472 22.8995L30.2246 22.7562L30.1979 22.6137L30.1912 22.578L30.1835 22.5426L30.168 22.4717L30.1525 22.4009L30.135 22.3305C30.1128 22.2364 30.086 22.1434 30.0595 22.0504L30.0164 21.9118C30.0129 21.9002 30.0091 21.8888 30.0051 21.8773L29.9933 21.843L29.9698 21.7744C29.9055 21.5919 29.8327 21.4124 29.7518 21.2365L29.6893 21.1055C29.6679 21.0621 29.6452 21.0194 29.6234 20.9762L29.6069 20.9438C29.6014 20.9331 29.5954 20.9226 29.5897 20.9119L29.5548 20.8482L29.5199 20.7846L29.4833 20.7219C29.3857 20.5547 29.2813 20.3913 29.1677 20.2345C29.0543 20.0775 28.9342 19.9253 28.8073 19.7789C28.6807 19.6322 28.5457 19.4928 28.4054 19.3592C28.2651 19.2254 28.1184 19.0985 27.9664 18.9778C28.5908 19.438 29.128 20.0226 29.5346 20.6907C29.6363 20.8577 29.7311 21.0291 29.816 21.2056C29.9009 21.3821 29.9776 21.5627 30.0458 21.7465L30.0708 21.8157L30.0833 21.8503C30.0875 21.8618 30.0916 21.8733 30.0954 21.885L30.1414 22.0248C30.1699 22.1187 30.1986 22.2126 30.2228 22.3077L30.2417 22.3789L30.2585 22.4506L30.2752 22.5224L30.2835 22.5583L30.2908 22.5944L30.3198 22.7389L30.3447 22.8841C30.3755 23.0783 30.3974 23.2739 30.4103 23.4701L30.4177 23.6175C30.4193 23.642 30.4194 23.6666 30.42 23.6912L30.4215 23.765C30.4218 23.7896 30.4227 23.8142 30.4227 23.8388L30.4222 23.9125L30.4216 23.9863L30.4193 24.0601C30.4068 24.4534 30.3565 24.8458 30.2691 25.2298C30.1813 25.6138 30.0565 25.9892 29.8963 26.3488C29.7361 26.7083 29.5414 27.0523 29.3157 27.3742C29.0899 27.696 28.8334 27.996 28.551 28.2686C28.2684 28.5409 27.9599 28.786 27.631 28.9991C27.302 29.212 26.9526 29.3927 26.5892 29.5377C26.2258 29.6825 25.8483 29.7912 25.4642 29.8623C25.08 29.9327 24.6892 29.966 24.2991 29.9608L24.1528 29.9574C24.104 29.9554 24.0554 29.9521 24.0067 29.9495C23.9823 29.948 23.958 29.9469 23.9337 29.9451L23.8608 29.9385L23.788 29.9318C23.7637 29.9294 23.7394 29.9279 23.7152 29.9244L23.5701 29.9061L23.5338 29.9015L23.4977 29.8957L23.4255 29.884L23.3533 29.8723L23.3353 29.8694L23.3174 29.8659L23.2815 29.8588L23.138 29.8305L22.9956 29.7975C22.9719 29.7918 22.948 29.7869 22.9245 29.7805L22.8539 29.7615L22.7833 29.7426L22.748 29.7331C22.7362 29.7299 22.7246 29.7261 22.713 29.7226L22.5732 29.6798C22.5498 29.673 22.5268 29.6648 22.5038 29.6569L22.4347 29.6331L22.3656 29.6094C22.3426 29.6013 22.32 29.5921 22.2972 29.5836L22.1607 29.5313L22.026 29.4745C21.8474 29.3967 21.6713 29.3129 21.5012 29.2177L21.4371 29.1828C21.4158 29.1708 21.395 29.1581 21.374 29.1459L21.2483 29.0715L21.0008 28.919L21.0239 28.9222L20.4578 29.0688L19.8914 29.2146L19.3248 29.3598L18.7579 29.5035L18.7578 29.5035Z" fill="white"/>
<path d="M22.3242 20.4908C22.2766 20.4662 22.2263 20.4471 22.1745 20.4353C22.1488 20.429 22.1225 20.4248 22.0963 20.4215C22.07 20.4188 22.0436 20.4168 22.0172 20.417C21.9115 20.4165 21.8066 20.438 21.7083 20.4753C21.6592 20.494 21.6115 20.5165 21.5658 20.5425C21.5203 20.5688 21.4767 20.5982 21.436 20.6313C21.4154 20.6474 21.3964 20.6661 21.3766 20.6836C21.357 20.7013 21.3369 20.7185 21.319 20.738C21.3006 20.757 21.2819 20.7758 21.2638 20.795L21.2122 20.8552L21.1994 20.8703L21.1874 20.8861L21.1635 20.9178L21.1397 20.9495C21.1319 20.9601 21.125 20.9714 21.1175 20.9824L21.0956 21.0154C21.0884 21.0265 21.0805 21.0371 21.0741 21.0487L21.034 21.1172C20.9832 21.21 20.9396 21.3068 20.9043 21.4067C20.8702 21.507 20.8425 21.6095 20.8227 21.7138C20.8041 21.8182 20.7933 21.924 20.7894 22.03C20.7814 22.2422 20.8061 22.4551 20.8613 22.6604C20.8883 22.7634 20.9214 22.865 20.9592 22.9648C20.9685 22.9898 20.9784 23.0146 20.9885 23.0393C20.9982 23.0642 21.0091 23.0886 21.0193 23.1133C21.0296 23.138 21.0408 23.1623 21.0514 23.1868L21.085 23.2598C21.1306 23.3566 21.1801 23.4518 21.2309 23.5462C21.2818 23.6407 21.3349 23.7341 21.3895 23.8267C21.498 24.0121 21.6138 24.1933 21.7344 24.3717C21.6014 24.2025 21.4776 24.0259 21.3605 23.8448C21.2443 23.6632 21.1336 23.4776 21.0362 23.2839L21.0004 23.2109C20.989 23.1863 20.9771 23.162 20.966 23.1372C20.955 23.1124 20.9437 23.0877 20.9334 23.0626C20.9228 23.0376 20.9123 23.0125 20.9025 22.9872C20.8624 22.8861 20.827 22.783 20.7977 22.6778C20.739 22.4672 20.7128 22.2467 20.7199 22.0277C20.7245 21.9181 20.7362 21.8089 20.756 21.7011C20.7772 21.5935 20.8055 21.4874 20.8425 21.3842C20.8806 21.2814 20.9273 21.182 20.9812 21.0868C21.0354 20.9915 21.1003 20.9029 21.1711 20.8198L21.2259 20.759C21.2451 20.7396 21.2648 20.7208 21.2843 20.7017C21.3033 20.6821 21.3244 20.6648 21.345 20.6471C21.3659 20.6295 21.386 20.6114 21.4082 20.595C21.4521 20.562 21.4986 20.5329 21.5468 20.5073C21.5952 20.482 21.6454 20.4602 21.697 20.443C21.8004 20.4092 21.9095 20.3912 22.0178 20.3977C22.0448 20.3989 22.0717 20.4025 22.0984 20.4067C22.1117 20.4093 22.125 20.4114 22.1381 20.4148C22.1447 20.4164 22.1513 20.4178 22.1578 20.4196L22.1772 20.4251C22.229 20.4405 22.2783 20.4631 22.3242 20.4908L22.3242 20.4908Z" fill="white"/>
<path d="M26.772 24.6902C26.716 24.6671 26.659 24.6468 26.601 24.6304C26.543 24.6138 26.484 24.6012 26.4244 24.5944C26.3649 24.5877 26.3048 24.5864 26.2456 24.5928C26.1864 24.5991 26.1282 24.6131 26.0731 24.6349C26.045 24.6448 26.0193 24.6584 25.9943 24.674C25.9817 24.6815 25.9699 24.6904 25.9579 24.6989C25.9464 24.7082 25.9346 24.7171 25.9237 24.7271C25.9123 24.7366 25.9018 24.7472 25.891 24.7574C25.8807 24.7681 25.8701 24.7785 25.8602 24.7897C25.8401 24.8117 25.8211 24.8349 25.8027 24.8585C25.7292 24.9534 25.6665 25.0572 25.6036 25.1612C25.5721 25.2132 25.5406 25.2655 25.507 25.3169C25.4902 25.3426 25.4727 25.368 25.4542 25.3929C25.4359 25.4174 25.4153 25.4429 25.391 25.4647C25.3668 25.4866 25.3385 25.5053 25.3071 25.5174C25.2758 25.5297 25.2419 25.535 25.209 25.5344C25.1759 25.5338 25.1438 25.5277 25.1131 25.5188L25.0903 25.5116L25.0681 25.5034C25.0537 25.4977 25.04 25.4917 25.0259 25.4859L24.9418 25.4506L24.8998 25.4328C24.8858 25.4268 24.8717 25.4212 24.858 25.4145L24.6929 25.3367C24.6386 25.3093 24.5849 25.2806 24.5308 25.2526C24.5036 25.239 24.4775 25.2232 24.451 25.2081L24.3719 25.1625C24.1626 25.0378 23.9624 24.8974 23.7746 24.7419C23.5872 24.5858 23.4111 24.4158 23.2502 24.2323C23.0889 24.0492 22.9431 23.8527 22.8108 23.648L22.7858 23.6097C22.7776 23.5969 22.769 23.5843 22.7614 23.5711L22.7145 23.4927L22.6677 23.4143C22.6599 23.4013 22.6519 23.388 22.6445 23.3746L22.634 23.3538C22.6304 23.347 22.6279 23.3395 22.6248 23.3324C22.6132 23.3036 22.6048 23.2732 22.6023 23.2421C22.5998 23.2109 22.6037 23.1794 22.6127 23.1499C22.6217 23.1203 22.6356 23.0926 22.6518 23.0667C22.6682 23.0409 22.6874 23.0172 22.7071 22.9941C22.6884 23.0181 22.6705 23.0426 22.6554 23.0689C22.6405 23.0953 22.6282 23.1231 22.6207 23.1521C22.6132 23.1811 22.6106 23.2114 22.6142 23.2409C22.6177 23.2705 22.6267 23.2992 22.6389 23.3263C22.6421 23.333 22.6448 23.34 22.6485 23.3465L22.6593 23.3661C22.6672 23.3789 22.6752 23.3915 22.6834 23.4044L22.7326 23.4811L22.7818 23.5577C22.7898 23.5706 22.7987 23.5829 22.8074 23.5954L22.8333 23.6327C22.9012 23.7333 22.974 23.8302 23.0483 23.9258C23.0867 23.9726 23.1242 24.0201 23.1628 24.0667L23.2823 24.2031C23.3235 24.2474 23.3655 24.2909 23.407 24.3347C23.4274 24.357 23.4497 24.3774 23.4711 24.3987L23.536 24.4619L23.5685 24.4934L23.6022 24.5236L23.6696 24.584C23.7138 24.6252 23.7614 24.6623 23.8077 24.7009C23.9945 24.8535 24.1926 24.9918 24.3999 25.1144L24.478 25.1597C24.5041 25.1748 24.5298 25.1904 24.5567 25.204C24.6101 25.2318 24.6631 25.2604 24.7167 25.2878L24.8799 25.3653C24.8933 25.372 24.9073 25.3776 24.9211 25.3836L24.9627 25.4013L25.0457 25.437C25.0594 25.4429 25.0734 25.4492 25.087 25.4547L25.1073 25.4625L25.1277 25.4692C25.1549 25.4774 25.1827 25.4828 25.21 25.4836C25.2374 25.4844 25.2644 25.4804 25.2895 25.4708C25.3147 25.4614 25.3381 25.4466 25.359 25.4281C25.38 25.4096 25.3981 25.3878 25.4164 25.3639C25.4345 25.3403 25.4516 25.3156 25.4686 25.2908C25.5024 25.2411 25.5346 25.1897 25.567 25.1382C25.5994 25.0868 25.6319 25.0351 25.6659 24.9843C25.7 24.9334 25.7355 24.8833 25.7745 24.8357C25.794 24.8119 25.8141 24.7885 25.8356 24.7663C25.8461 24.755 25.8573 24.7444 25.8683 24.7335C25.8799 24.7232 25.8911 24.7125 25.9032 24.7027C25.9149 24.6926 25.9275 24.6835 25.9399 24.6741C25.9528 24.6653 25.9655 24.6563 25.9791 24.6486C26.0058 24.6329 26.0344 24.6186 26.0637 24.6093C26.1218 24.5885 26.1826 24.5759 26.2437 24.5714C26.3048 24.5668 26.3663 24.5698 26.4265 24.5792C26.4867 24.5884 26.5458 24.6034 26.6034 24.6224C26.661 24.6416 26.7172 24.6646 26.772 24.6902L26.772 24.6902Z" fill="white"/>
<path d="M22.6615 23.3997C22.6349 23.363 22.6123 23.3223 22.6011 23.277C22.5893 23.2318 22.5922 23.1826 22.6063 23.1377C22.6206 23.0926 22.6448 23.0519 22.6717 23.0143C22.6851 22.9954 22.6998 22.9777 22.714 22.9602L22.757 22.9075C22.8139 22.8373 22.8714 22.7679 22.9235 22.6949C22.9495 22.6584 22.9748 22.6216 22.998 22.5835C23.021 22.5454 23.0423 22.5063 23.0607 22.4661C23.0979 22.3859 23.1235 22.3006 23.1301 22.2128C23.1381 22.1249 23.1291 22.0355 23.1133 21.9474C23.0969 21.8593 23.0725 21.7724 23.044 21.6867C23.0157 21.6008 22.9826 21.5163 22.9494 21.4318C22.992 21.5119 23.0309 21.5942 23.0655 21.6786C23.0825 21.7209 23.0982 21.7638 23.1125 21.8073C23.1269 21.8508 23.1388 21.8951 23.1491 21.94C23.1542 21.9624 23.1586 21.9851 23.1626 22.0078C23.1661 22.0306 23.1694 22.0535 23.1715 22.0766C23.176 22.1228 23.1773 22.1695 23.1743 22.2162C23.1686 22.31 23.1415 22.4016 23.103 22.4859C23.0637 22.5702 23.0137 22.6481 22.959 22.7214C22.9038 22.7944 22.8449 22.8638 22.7846 22.9314L22.7396 22.9822C22.7246 22.9993 22.7097 23.0158 22.6958 23.033C22.6681 23.0674 22.6436 23.1045 22.6278 23.1453C22.6118 23.1858 22.6063 23.2305 22.6137 23.2743C22.6171 23.2963 22.6237 23.3178 22.6319 23.3387C22.64 23.3597 22.6501 23.38 22.6615 23.3996L22.6615 23.3997Z" fill="#BABABA"/>
<path d="M25.0547 26.8972L25.236 26.9545C25.2963 26.9737 25.3567 26.9929 25.4173 27.0111C25.5385 27.0477 25.6606 27.081 25.7844 27.1055C25.908 27.1303 26.0333 27.1462 26.1589 27.1485C26.2844 27.151 26.41 27.1405 26.533 27.116C26.656 27.0913 26.7769 27.0558 26.8938 27.0101C27.0105 26.9639 27.1233 26.9077 27.2294 26.8406C27.3352 26.7733 27.4354 26.6967 27.525 26.6089C27.6144 26.5211 27.6945 26.4234 27.7598 26.3164C27.7926 26.263 27.8219 26.2075 27.8474 26.1502C27.873 26.093 27.8942 26.034 27.9099 25.9736C27.9177 25.9434 27.9243 25.9129 27.9289 25.8821C27.9316 25.8667 27.9331 25.8513 27.935 25.8358C27.9362 25.8204 27.9379 25.8049 27.9382 25.7894C27.9398 25.7584 27.939 25.7274 27.9364 25.6966C27.9342 25.6658 27.929 25.6352 27.9226 25.6053C27.9089 25.546 27.8829 25.4897 27.8488 25.4384C27.8147 25.3871 27.7732 25.3404 27.7278 25.2977C27.6824 25.2548 27.6331 25.2159 27.5821 25.1791C27.5312 25.1424 27.4783 25.1081 27.4244 25.075C27.3706 25.042 27.3159 25.0103 27.2609 24.9787C27.2059 24.9471 27.1506 24.9156 27.0964 24.8821C26.9887 24.8156 26.879 24.7524 26.7645 24.6995C26.6503 24.6465 26.5306 24.6034 26.406 24.5844C26.3439 24.575 26.2806 24.572 26.2178 24.5774C26.155 24.5825 26.0928 24.5967 26.0337 24.6197C26.0919 24.5945 26.1539 24.5779 26.2171 24.5705C26.2803 24.563 26.3445 24.5644 26.4077 24.5722C26.5344 24.5879 26.6568 24.6282 26.7737 24.6786C26.8907 24.7295 27.0024 24.7913 27.112 24.8558C27.2209 24.9197 27.3335 24.9785 27.443 25.0437C27.5525 25.1089 27.6602 25.1795 27.7554 25.2675C27.8029 25.3114 27.847 25.36 27.8839 25.4145C27.9208 25.4689 27.9498 25.5299 27.9654 25.595C27.9727 25.6274 27.9785 25.6598 27.9809 25.6927C27.9838 25.7255 27.9847 25.7585 27.9831 25.7913C27.9828 25.8077 27.9811 25.8241 27.9799 25.8404C27.9779 25.8567 27.9763 25.873 27.9736 25.8891C27.9688 25.9215 27.962 25.9535 27.9539 25.9851C27.9377 26.0483 27.9158 26.1099 27.8894 26.1691C27.8633 26.2284 27.8331 26.2859 27.7994 26.3411C27.7316 26.4516 27.6487 26.5519 27.5565 26.6419C27.5105 26.687 27.4615 26.7289 27.4107 26.7683C27.3599 26.8077 27.3071 26.8445 27.2526 26.8783C27.0341 27.0132 26.791 27.1059 26.5397 27.152C26.4139 27.175 26.2856 27.1843 26.158 27.1792C26.0304 27.1743 25.9038 27.1557 25.7797 27.1279C25.6556 27.0998 25.534 27.0629 25.4136 27.023C25.3534 27.003 25.2935 26.9822 25.2338 26.9612L25.0547 26.8973L25.0547 26.8972Z" fill="#BABABA"/>
</svg>
