<svg width="40" height="40" viewBox="0 0 40 40" fill="none" xmlns="http://www.w3.org/2000/svg">
<rect width="40" height="40" rx="10" fill="#F4F4F4"/>
<g style="mix-blend-mode:multiply">
<path d="M9.16412 15.3469C9.16412 14.5154 9.32845 13.7071 9.65254 12.9442C9.96475 12.2093 10.4109 11.5488 10.9787 10.981C11.5464 10.4133 12.2069 9.96714 12.9418 9.65493C13.7047 9.33083 14.5131 9.16651 15.3445 9.16651L24.6503 9.16644C25.4817 9.16644 26.2901 9.33077 27.053 9.65487C27.7879 9.96709 28.4484 10.4133 29.0162 10.981C29.5839 11.5488 30.0301 12.2093 30.3423 12.9442C30.6664 13.7071 30.8307 14.5154 30.8307 15.3469L30.8307 24.6527C30.8307 25.4841 30.6663 26.2925 30.3422 27.0554C30.03 27.7903 29.5839 28.4508 29.0161 29.0185C28.4484 29.5863 27.7879 30.0324 27.053 30.3446C26.2901 30.6687 25.4817 30.8331 24.6503 30.8331L15.3445 30.8331C14.5131 30.8331 13.7047 30.6688 12.9418 30.3447C12.2069 30.0325 11.5464 29.5863 10.9786 29.0185C10.4109 28.4508 9.96471 27.7903 9.65249 27.0554C9.3284 26.2925 9.16406 25.4841 9.16406 24.6527L9.16412 15.3469Z" fill="#E20613"/>
</g>
<path d="M17.5102 24.076L17.7224 24.2037C18.5013 24.6718 19.3873 24.9194 20.2845 24.9194C23.0518 24.9194 25.3034 22.6483 25.3034 19.8564C25.3034 17.0646 23.0518 14.7935 20.2845 14.7935C17.5171 14.7935 15.2656 17.0646 15.2656 19.8564C15.2656 20.7783 15.5195 21.6859 15.9996 22.4814L16.1298 22.697L15.6283 24.5848L17.5102 24.076L17.5102 24.076Z" fill="#E20613"/>
<path d="M13.9766 26.2551L14.8749 22.874C14.3663 21.9483 14.0986 20.9109 14.0986 19.858C14.0986 16.4157 16.8749 13.6151 20.2872 13.6151C23.6996 13.6151 26.4759 16.4157 26.4759 19.858C26.4759 23.3004 23.6997 26.1011 20.2872 26.1011C19.2628 26.1011 18.2511 25.8402 17.3455 25.3447L13.9766 26.2551ZM17.513 24.0776L17.7252 24.2052C18.504 24.6734 19.3901 24.921 20.2872 24.921C23.0546 24.921 25.3061 22.6499 25.3061 19.858C25.3061 17.0662 23.0546 14.7951 20.2872 14.7951C17.5199 14.7951 15.2684 17.0662 15.2684 19.858C15.2684 20.7799 15.5222 21.6875 16.0024 22.483L16.1325 22.6986L15.6311 24.5864L17.513 24.0776L17.513 24.0776Z" fill="white"/>
<path fill-rule="evenodd" clip-rule="evenodd" d="M22.5914 20.7267C22.3366 20.5729 22.0052 20.4014 21.7051 20.5252C21.4749 20.6202 21.3279 20.9838 21.1787 21.1694C21.1022 21.2647 21.0108 21.2796 20.8933 21.2318C20.0291 20.8846 19.3668 20.3026 18.89 19.5007C18.8092 19.3761 18.8237 19.2779 18.921 19.1623C19.0651 18.9912 19.246 18.7969 19.285 18.5663C19.3239 18.3357 19.2167 18.0661 19.1223 17.8608C19.0015 17.5984 18.8665 17.2243 18.606 17.0758C18.3664 16.9393 18.051 17.0158 17.8376 17.191C17.4694 17.4936 17.2916 17.9676 17.297 18.4375C17.2985 18.571 17.3148 18.7042 17.3456 18.833C17.42 19.143 17.562 19.4323 17.7218 19.7075C17.8423 19.915 17.9732 20.1163 18.1145 20.3099C18.5767 20.9433 19.1518 21.4938 19.8176 21.9052C20.1503 22.1108 20.5087 22.291 20.8798 22.4147C21.2959 22.5535 21.6667 22.6978 22.1161 22.6117C22.5866 22.5216 23.0505 22.2279 23.2373 21.7705C23.2926 21.635 23.3202 21.4842 23.2892 21.3412C23.2253 21.0455 22.8285 20.8697 22.5913 20.7266L22.5914 20.7267Z" fill="white"/>
<path d="M24.3165 15.1222C24.6049 15.3679 24.8719 15.6397 25.1121 15.9343C25.3516 16.2295 25.5656 16.5462 25.7482 16.8808C25.8393 17.0482 25.9232 17.2197 25.9991 17.3948L26.0271 17.4606C26.0363 17.4826 26.0461 17.5044 26.0545 17.5267L26.107 17.66L26.1558 17.7946C26.1642 17.817 26.1717 17.8397 26.1792 17.8623L26.2018 17.9303C26.261 18.1119 26.3121 18.2963 26.3551 18.4826C26.3976 18.6691 26.4311 18.8576 26.4563 19.0473L26.4654 19.1184L26.47 19.154L26.4736 19.1897L26.4879 19.3325L26.4984 19.4757C26.5004 19.4996 26.5013 19.5235 26.5024 19.5474L26.5057 19.6191C26.5133 19.8104 26.5131 20.002 26.5039 20.1933C26.4856 20.5759 26.4313 20.9568 26.3433 21.3296C26.168 22.0755 25.8528 22.7878 25.4214 23.4194C25.206 23.7354 24.9618 24.0314 24.6931 24.3028C24.4243 24.574 24.1309 24.8206 23.8177 25.038C23.1917 25.4733 22.486 25.7929 21.7461 25.9697C21.3763 26.0583 20.9985 26.1131 20.6191 26.1323C20.5717 26.1347 20.5242 26.1359 20.4767 26.1378C20.453 26.1389 20.4293 26.1391 20.4055 26.1393L20.3343 26.14C20.2868 26.1411 20.2394 26.1395 20.1919 26.1387C20.1444 26.1376 20.0969 26.1378 20.0495 26.1347L19.9072 26.1276C19.8599 26.1241 19.8126 26.1198 19.7652 26.116L19.7297 26.113C19.7179 26.1121 19.7061 26.1111 19.6943 26.1096L19.6236 26.1014L19.5528 26.0933L19.5174 26.0892L19.4822 26.084L19.3413 26.0632C19.3295 26.0616 19.3179 26.0595 19.3062 26.0573L19.2711 26.051L19.2011 26.0385C19.1777 26.0342 19.1543 26.0303 19.131 26.0256L19.0614 26.0109L18.9917 25.9961L18.9569 25.9887C18.9453 25.9863 18.9338 25.9832 18.9222 25.9804L18.7839 25.9466C18.7608 25.9412 18.7381 25.9343 18.7152 25.9281L18.6466 25.909L18.578 25.8899L18.51 25.8687L18.442 25.8475C18.4194 25.8402 18.3966 25.8337 18.3742 25.8256L18.2397 25.779C18.2285 25.775 18.2172 25.7714 18.2061 25.7671L18.1728 25.7544L18.1063 25.729L18.0398 25.7036C18.0177 25.6949 17.996 25.6853 17.974 25.6763C17.9303 25.6577 17.8863 25.6398 17.8429 25.6208C17.6692 25.5438 17.4993 25.4588 17.3326 25.3678L17.3525 25.3702L16.509 25.5928L15.6652 25.8144L14.8211 26.035L13.9766 26.2542L14.8165 26.0181L15.6569 25.7834L16.4976 25.5498L17.3385 25.3173L17.3488 25.3144L17.3585 25.3196C18.0213 25.677 18.7476 25.9134 19.492 26.0091L19.5269 26.0139L19.5618 26.0177L19.6318 26.0252L19.7017 26.0327C19.7133 26.0341 19.725 26.035 19.7367 26.0358L19.7718 26.0385L19.912 26.0489L20.0525 26.0553C20.0993 26.0581 20.1462 26.0577 20.1931 26.0585C20.24 26.059 20.2868 26.0604 20.3337 26.0591L20.404 26.058C20.4275 26.0577 20.4509 26.0574 20.4743 26.0562C20.5211 26.0542 20.568 26.0527 20.6148 26.0502C20.9892 26.0293 21.3615 25.9735 21.7257 25.8843C21.9077 25.8396 22.0878 25.7867 22.2651 25.7257C22.4425 25.6648 22.6168 25.5948 22.7877 25.5175C23.1293 25.3624 23.4572 25.1764 23.7655 24.9617C24.0738 24.747 24.363 24.5043 24.6282 24.2373C24.8931 23.97 25.134 23.6786 25.3472 23.3677C25.5604 23.0569 25.7453 22.7263 25.8996 22.3818C26.054 22.0373 26.176 21.678 26.2646 21.3105C26.3089 21.1267 26.3449 20.9409 26.3724 20.7538C26.3999 20.5667 26.4199 20.3783 26.4301 20.1893C26.4407 20.0004 26.4424 19.8109 26.4364 19.6217L26.4337 19.5508C26.4328 19.5271 26.4321 19.5034 26.4303 19.4798L26.421 19.3382L26.408 19.1967L26.4047 19.1614L26.4004 19.1261L26.3919 19.0557C26.3008 18.3035 26.0674 17.5695 25.7139 16.8996C25.6259 16.7318 25.5289 16.5689 25.4256 16.4101C25.3221 16.2515 25.2121 16.0971 25.0952 15.9481C24.8606 15.6506 24.5994 15.3743 24.3165 15.1222L24.3165 15.1222Z" fill="#BABABA"/>
<path d="M13.9766 26.2535L14.0833 25.8293L14.1907 25.4054L14.4066 24.5578L14.6237 23.7104L14.8424 22.8635L14.8454 22.8888C14.4915 22.2541 14.2474 21.5563 14.1298 20.8362L14.1098 20.7008L14.1048 20.667C14.103 20.6557 14.1014 20.6444 14.1002 20.6331L14.0923 20.5651L14.0845 20.4972C14.082 20.4745 14.079 20.4519 14.0774 20.4291L14.0661 20.2927L14.0633 20.2586C14.0624 20.2473 14.062 20.2358 14.0614 20.2245L14.0579 20.1561L14.0544 20.0878L14.0527 20.0536L14.052 20.0194L14.0494 19.8825C14.0487 19.8597 14.049 19.8369 14.0493 19.814L14.0499 19.7456C14.0525 19.5631 14.0628 19.3807 14.0808 19.199C14.0989 19.0173 14.1257 18.8366 14.1596 18.6572C14.1935 18.4778 14.2353 18.2999 14.2847 18.1241C14.3341 17.9484 14.3919 17.7751 14.4566 17.6044C14.5213 17.4338 14.5933 17.266 14.6727 17.1018C14.6929 17.0609 14.7127 17.0198 14.7334 16.9792L14.7968 16.858L14.863 16.7384C14.8738 16.7183 14.8859 16.699 14.8972 16.6792L14.9318 16.6202C15.1184 16.307 15.3321 16.0104 15.5693 15.7342C15.8069 15.4585 16.0682 15.2035 16.3492 14.9731C16.6298 14.7422 16.9311 14.5369 17.2474 14.3594C17.4056 14.2706 17.5675 14.1886 17.7326 14.1139L17.8571 14.0592L17.9828 14.0077C18.0672 13.9747 18.1518 13.9424 18.2375 13.913C18.5796 13.7943 18.9318 13.7045 19.2892 13.6489C19.4679 13.6208 19.6476 13.6003 19.8279 13.5877C20.0082 13.5748 20.189 13.5716 20.3696 13.5746C20.7308 13.5813 21.0912 13.6203 21.4453 13.6903C21.6224 13.7253 21.7979 13.7681 21.9711 13.8186C22.1443 13.8693 22.3151 13.928 22.4831 13.9938C22.8189 14.1256 23.1431 14.2872 23.4501 14.4765C23.7573 14.6653 24.0476 14.8815 24.3165 15.1215C24.041 14.8894 23.7463 14.6809 23.4366 14.4993C23.1266 14.3181 22.8019 14.1632 22.4663 14.0384C22.2985 13.976 22.1281 13.9212 21.9557 13.8737C21.7834 13.8261 21.6091 13.7862 21.4334 13.754C21.082 13.6895 20.7253 13.6569 20.3686 13.6542C19.6551 13.6483 18.9416 13.7677 18.27 14.0071C18.1021 14.0669 17.9367 14.1337 17.7747 14.2081C17.6127 14.2825 17.4539 14.3639 17.2988 14.452C16.9889 14.6284 16.6934 14.8309 16.4183 15.0586C16.2806 15.1723 16.1478 15.292 16.0202 15.417C15.8925 15.542 15.7701 15.6723 15.6535 15.8079C15.4209 16.0795 15.2113 16.371 15.0275 16.6783C14.8433 16.9854 14.6878 17.3097 14.5592 17.6442C14.4952 17.8116 14.4379 17.9817 14.3888 18.1542C14.3398 18.3268 14.2982 18.5014 14.2638 18.6775C14.2297 18.8537 14.2023 19.0313 14.1837 19.2098C14.1651 19.3884 14.154 19.5678 14.1501 19.7474L14.149 19.8147C14.1486 19.8372 14.1481 19.8596 14.1487 19.8821L14.1503 20.0168L14.1507 20.0504L14.1522 20.0841L14.1551 20.1514L14.1581 20.2187C14.1587 20.2299 14.1589 20.2411 14.1597 20.2523L14.1623 20.2859L14.1725 20.4203C14.1738 20.4427 14.1767 20.465 14.179 20.4873L14.1862 20.5543L14.1933 20.6213C14.1944 20.6325 14.1959 20.6436 14.1975 20.6547L14.2021 20.6881L14.2206 20.8216C14.2277 20.8659 14.2356 20.9101 14.2431 20.9544L14.2544 21.0208L14.2678 21.0869C14.2769 21.1309 14.2855 21.175 14.2949 21.2189L14.3259 21.3501L14.3336 21.3829C14.3361 21.3938 14.3388 21.4047 14.3418 21.4156L14.3593 21.4806L14.3768 21.5457C14.3827 21.5674 14.3881 21.5892 14.3949 21.6106L14.4339 21.7396L14.4437 21.7719C14.447 21.7826 14.4508 21.7932 14.4543 21.8039L14.4758 21.8677C14.5894 22.2089 14.7352 22.5388 14.9044 22.8559L14.911 22.8683L14.9074 22.8812L14.6769 23.7248L14.4448 24.5681L14.2116 25.4111L14.0944 25.8324L13.9766 26.2535L13.9766 26.2535Z" fill="white"/>
<path d="M15.6328 24.5855L16.1013 24.4509L16.5702 24.3175L17.0391 24.1846L17.5083 24.0524L17.5182 24.0496L17.5275 24.0551L17.7364 24.1777L17.8411 24.2371C17.8586 24.247 17.8759 24.2571 17.8936 24.2667L17.9469 24.2946C18.0882 24.3706 18.2343 24.4371 18.3822 24.4987L18.4937 24.5434L18.6065 24.5845C18.6254 24.5912 18.644 24.5985 18.663 24.6048L18.7201 24.6233L18.7772 24.6419C18.7962 24.648 18.8152 24.6545 18.8345 24.6598L18.9497 24.6931C18.9593 24.6958 18.9689 24.6988 18.9786 24.7013L19.0076 24.7087L19.0657 24.7235L19.1239 24.7382C19.1432 24.7433 19.1629 24.747 19.1823 24.7514L19.2995 24.7769L19.4174 24.7985L19.4468 24.8039L19.4616 24.8066L19.4764 24.8088L19.5356 24.8176L19.5949 24.8264L19.6245 24.8308L19.6542 24.8343L19.7732 24.848C19.793 24.8506 19.813 24.8516 19.8328 24.8534L19.8925 24.8582L19.9522 24.863C19.9721 24.8642 19.992 24.8649 20.012 24.8659C20.0518 24.8676 20.0917 24.8699 20.1315 24.8711L20.2512 24.8725C20.5704 24.8735 20.8895 24.8439 21.2027 24.7836C21.8294 24.6639 22.4319 24.42 22.9671 24.0711C23.235 23.897 23.4862 23.6969 23.7163 23.4747C23.9467 23.2527 24.1561 23.0085 24.3405 22.7464C24.5251 22.4844 24.6851 22.2047 24.8168 21.9119C24.9488 21.6193 25.0528 21.3137 25.1263 21.0007C25.2004 20.6878 25.2439 20.3675 25.2573 20.0458L25.2599 19.9855L25.261 19.9251L25.2621 19.8647C25.2623 19.8446 25.2618 19.8245 25.2617 19.8043L25.2611 19.744C25.2609 19.7238 25.261 19.7037 25.2599 19.6836L25.2552 19.5629C25.2462 19.402 25.2304 19.2416 25.2073 19.0821L25.1885 18.9627L25.1663 18.8439L25.1607 18.8142L25.1543 18.7847L25.1413 18.7257L25.1284 18.6666L25.1138 18.608C25.0953 18.5295 25.073 18.452 25.0509 18.3745L25.015 18.259C25.0121 18.2494 25.0089 18.2398 25.0055 18.2303L24.9957 18.2017L24.9761 18.1445C24.9225 17.9925 24.8619 17.8428 24.7945 17.6963L24.7423 17.5872C24.7245 17.551 24.7057 17.5153 24.6875 17.4793L24.6738 17.4524C24.6691 17.4434 24.6641 17.4347 24.6593 17.4258L24.6303 17.3727L24.6012 17.3197L24.5707 17.2674C24.4894 17.1281 24.4024 16.992 24.3077 16.8613C24.2132 16.7304 24.1131 16.6036 24.0074 16.4816C23.9019 16.3594 23.7894 16.2432 23.6725 16.1318C23.5556 16.0204 23.4333 15.9146 23.3067 15.814C23.827 16.1976 24.2746 16.6847 24.6134 17.2415C24.6982 17.3806 24.7772 17.5235 24.848 17.6705C24.9187 17.8176 24.9826 17.9681 25.0394 18.1213L25.0603 18.1789L25.0707 18.2078C25.0743 18.2173 25.0777 18.227 25.0808 18.2367L25.1191 18.3532C25.1429 18.4314 25.1668 18.5097 25.187 18.589L25.2027 18.6483L25.2167 18.7081L25.2306 18.7678L25.2375 18.7978L25.2436 18.8278L25.2678 18.9483L25.2885 19.0693C25.3142 19.2311 25.3325 19.3941 25.3432 19.5577L25.3494 19.6805C25.3507 19.7009 25.3508 19.7214 25.3513 19.7419L25.3525 19.8034C25.3528 19.8238 25.3535 19.8443 25.3535 19.8648L25.3531 19.9263L25.3526 19.9878L25.3507 20.0493C25.3403 20.3771 25.2984 20.7041 25.2256 21.0241C25.1524 21.344 25.0483 21.6569 24.9149 21.9565C24.7814 22.2561 24.6192 22.5428 24.4311 22.8111C24.2429 23.0792 24.0292 23.3292 23.7938 23.5564C23.5583 23.7833 23.3012 23.9876 23.0272 24.1652C22.753 24.3426 22.4618 24.4931 22.159 24.614C21.8561 24.7346 21.5416 24.8252 21.2215 24.8844C20.9013 24.9431 20.5756 24.9709 20.2505 24.9665L20.1286 24.9637C20.088 24.9621 20.0474 24.9593 20.0069 24.9571C19.9866 24.9559 19.9663 24.9549 19.946 24.9535L19.8853 24.9479L19.8246 24.9424C19.8044 24.9404 19.7841 24.9391 19.764 24.9362L19.643 24.921L19.6128 24.9171L19.5827 24.9123L19.5226 24.9025L19.4624 24.8928L19.4474 24.8904L19.4324 24.8874L19.4025 24.8815L19.283 24.858L19.1643 24.8304C19.1445 24.8257 19.1246 24.8216 19.105 24.8163L19.0462 24.8005L18.9874 24.7847L18.958 24.7768C18.9481 24.7741 18.9385 24.7709 18.9288 24.7681L18.8123 24.7324C18.7928 24.7267 18.7737 24.7199 18.7544 24.7133L18.6969 24.6935L18.6393 24.6737C18.6201 24.6669 18.6013 24.6593 18.5823 24.6522L18.4686 24.6086L18.3563 24.5613C18.2075 24.4965 18.0607 24.4266 17.919 24.3473L17.8655 24.3182C17.8478 24.3082 17.8305 24.2977 17.813 24.2874L17.7082 24.2254L17.502 24.0984L17.5212 24.1011L17.0494 24.2232L16.5774 24.3447L16.1053 24.4657L15.6329 24.5855L15.6328 24.5855Z" fill="white"/>
<path d="M18.6035 17.0751C18.5638 17.0546 18.522 17.0386 18.4788 17.0289C18.4573 17.0236 18.4355 17.0201 18.4136 17.0174C18.3917 17.0151 18.3697 17.0134 18.3477 17.0136C18.2596 17.0131 18.1722 17.0311 18.0903 17.0622C18.0493 17.0778 18.0095 17.0965 17.9715 17.1182C17.9336 17.1401 17.8972 17.1646 17.8633 17.1922C17.8462 17.2056 17.8303 17.2212 17.8138 17.2357C17.7975 17.2505 17.7807 17.2648 17.7658 17.2811C17.7505 17.297 17.7349 17.3126 17.7198 17.3286L17.6769 17.3788L17.6661 17.3913L17.6561 17.4045L17.6363 17.4309L17.6164 17.4573C17.6099 17.4662 17.6041 17.4756 17.598 17.4847L17.5797 17.5123C17.5737 17.5215 17.567 17.5303 17.5618 17.54L17.5283 17.5971C17.486 17.6745 17.4497 17.7551 17.4202 17.8383C17.3918 17.9219 17.3688 18.0074 17.3523 18.0942C17.3367 18.1813 17.3277 18.2694 17.3245 18.3578C17.3179 18.5346 17.3384 18.712 17.3844 18.8831C17.4069 18.969 17.4345 19.0536 17.466 19.1367C17.4737 19.1576 17.482 19.1783 17.4904 19.1989C17.4985 19.2196 17.5076 19.24 17.5161 19.2605C17.5247 19.2811 17.534 19.3014 17.5429 19.3218L17.5708 19.3826C17.6088 19.4633 17.65 19.5426 17.6924 19.6213C17.7349 19.7 17.7791 19.7779 17.8246 19.855C17.915 20.0095 18.0115 20.1605 18.112 20.3092C18.0012 20.1682 17.898 20.021 17.8004 19.8701C17.7036 19.7188 17.6113 19.5641 17.5302 19.4027L17.5004 19.3419C17.4908 19.3214 17.4809 19.3011 17.4717 19.2804C17.4625 19.2598 17.4531 19.2392 17.4445 19.2183C17.4357 19.1974 17.4269 19.1765 17.4187 19.1554C17.3853 19.0712 17.3558 18.9852 17.3314 18.8976C17.2825 18.7221 17.2607 18.5383 17.2666 18.3558C17.2704 18.2645 17.2802 18.1735 17.2967 18.0837C17.3144 17.994 17.3379 17.9056 17.3688 17.8196C17.4005 17.7339 17.4394 17.6511 17.4844 17.5717C17.5295 17.4924 17.5836 17.4185 17.6426 17.3493L17.6883 17.2986C17.7042 17.2824 17.7207 17.2667 17.7369 17.2508C17.7527 17.2345 17.7703 17.2201 17.7875 17.2053C17.8049 17.1906 17.8217 17.1756 17.8402 17.162C17.8767 17.1344 17.9155 17.1102 17.9557 17.0888C17.996 17.0677 18.0378 17.0496 18.0809 17.0352C18.167 17.0071 18.2579 16.9921 18.3482 16.9975C18.3707 16.9985 18.3931 17.0015 18.4153 17.005C18.4264 17.0072 18.4375 17.0089 18.4484 17.0118C18.4539 17.0131 18.4594 17.0143 18.4648 17.0157L18.481 17.0204C18.5241 17.0332 18.5652 17.052 18.6035 17.0751L18.6035 17.0751Z" fill="white"/>
<path d="M22.3035 20.5746C22.2568 20.5554 22.2093 20.5384 22.161 20.5247C22.1127 20.5109 22.0635 20.5004 22.0139 20.4947C21.9642 20.4891 21.9142 20.4881 21.8648 20.4934C21.8155 20.4987 21.767 20.5104 21.7211 20.5285C21.6976 20.5368 21.6763 20.5481 21.6554 20.5611C21.6449 20.5673 21.6351 20.5747 21.6251 20.5819C21.6155 20.5896 21.6057 20.597 21.5965 20.6053C21.5871 20.6133 21.5784 20.6221 21.5694 20.6306C21.5607 20.6395 21.5519 20.6482 21.5437 20.6575C21.5269 20.6758 21.5111 20.6951 21.4957 20.7148C21.4345 20.7939 21.3823 20.8804 21.3298 20.967C21.3036 21.0104 21.2774 21.054 21.2493 21.0968C21.2353 21.1182 21.2208 21.1394 21.2053 21.1601C21.19 21.1806 21.1729 21.2018 21.1527 21.22C21.1325 21.2382 21.1089 21.2538 21.0827 21.2639C21.0567 21.2741 21.0284 21.2786 21.001 21.278C20.9734 21.2776 20.9467 21.2725 20.9211 21.2651L20.9021 21.2591L20.8836 21.2522C20.8716 21.2475 20.8601 21.2425 20.8484 21.2376L20.7783 21.2082L20.7433 21.1934C20.7317 21.1884 20.7199 21.1838 20.7085 21.1782L20.5709 21.1133C20.5256 21.0905 20.4809 21.0666 20.4358 21.0432C20.4131 21.0319 20.3914 21.0188 20.3694 21.0062L20.3034 20.9682C20.129 20.8643 19.9622 20.7473 19.8056 20.6176C19.6495 20.4876 19.5028 20.3459 19.3687 20.193C19.2342 20.0404 19.1128 19.8767 19.0025 19.7061L18.9817 19.6742C18.9748 19.6635 18.9677 19.653 18.9613 19.642L18.9223 19.5767L18.8832 19.5114C18.8767 19.5005 18.8701 19.4894 18.8639 19.4782L18.8552 19.4609C18.8522 19.4552 18.8501 19.449 18.8475 19.4431C18.8378 19.4191 18.8308 19.3938 18.8288 19.3678C18.8266 19.3418 18.8299 19.3156 18.8374 19.291C18.8449 19.2663 18.8565 19.2432 18.87 19.2217C18.8837 19.2002 18.8996 19.1804 18.9161 19.1612C18.9005 19.1811 18.8855 19.2016 18.873 19.2235C18.8606 19.2455 18.8503 19.2686 18.8441 19.2929C18.8378 19.317 18.8357 19.3422 18.8386 19.3668C18.8416 19.3915 18.8491 19.4154 18.8592 19.438C18.8619 19.4436 18.8641 19.4494 18.8673 19.4548L18.8763 19.4712C18.8828 19.4819 18.8895 19.4924 18.8963 19.503L18.9373 19.567L18.9783 19.6308C18.985 19.6416 18.9924 19.6518 18.9996 19.6622L19.0213 19.6934C19.0778 19.7771 19.1385 19.858 19.2004 19.9376C19.2324 19.9766 19.2636 20.0162 19.2958 20.055L19.3954 20.1687C19.4297 20.2056 19.4647 20.2418 19.4993 20.2784C19.5163 20.2969 19.5349 20.3139 19.5528 20.3317L19.6068 20.3843L19.6339 20.4106L19.662 20.4358L19.7182 20.4861C19.755 20.5204 19.7946 20.5514 19.8333 20.5835C19.9889 20.7106 20.154 20.8259 20.3268 20.928L20.3918 20.9658C20.4136 20.9784 20.435 20.9914 20.4574 21.0027C20.5019 21.0259 20.5461 21.0497 20.5908 21.0726L20.7267 21.1372C20.7379 21.1428 20.7496 21.1474 20.7611 21.1524L20.7957 21.1672L20.8649 21.1969C20.8764 21.2018 20.888 21.207 20.8994 21.2117L20.9162 21.2182L20.9332 21.2237C20.9559 21.2306 20.979 21.2351 21.0019 21.2357C21.0247 21.2364 21.0471 21.233 21.0681 21.2251C21.0891 21.2173 21.1085 21.2049 21.126 21.1895C21.1435 21.174 21.1586 21.1559 21.1738 21.136C21.1889 21.1163 21.2031 21.0957 21.2173 21.0751C21.2455 21.0336 21.2723 20.9908 21.2993 20.9479C21.3263 20.9051 21.3534 20.862 21.3818 20.8196C21.4101 20.7773 21.4397 20.7355 21.4722 20.6958C21.4885 20.676 21.5052 20.6565 21.5231 20.638C21.5319 20.6286 21.5413 20.6197 21.5504 20.6107C21.56 20.602 21.5694 20.5931 21.5795 20.585C21.5893 20.5766 21.5998 20.569 21.6101 20.5611C21.6208 20.5538 21.6314 20.5463 21.6427 20.5399C21.665 20.5268 21.6888 20.5149 21.7132 20.5072C21.7616 20.4898 21.8123 20.4794 21.8632 20.4755C21.9142 20.4717 21.9654 20.4743 22.0156 20.482C22.0658 20.4898 22.115 20.5022 22.163 20.5181C22.211 20.534 22.2578 20.5533 22.3035 20.5746L22.3035 20.5746Z" fill="white"/>
<path d="M18.8767 19.4989C18.8546 19.4684 18.8358 19.4345 18.8265 19.3967C18.8166 19.359 18.819 19.3181 18.8308 19.2806C18.8427 19.243 18.8628 19.2091 18.8852 19.1778C18.8964 19.162 18.9087 19.1473 18.9205 19.1327L18.9563 19.0888C19.0038 19.0303 19.0517 18.9725 19.0951 18.9116C19.1168 18.8812 19.1378 18.8505 19.1572 18.8188C19.1764 18.7871 19.1941 18.7545 19.2094 18.7209C19.2405 18.6541 19.2617 18.583 19.2673 18.5099C19.274 18.4366 19.2664 18.3621 19.2533 18.2887C19.2396 18.2153 19.2193 18.1428 19.1955 18.0714C19.1719 17.9999 19.1443 17.9295 19.1167 17.859C19.1522 17.9258 19.1846 17.9944 19.2134 18.0647C19.2276 18.1 19.2407 18.1357 19.2526 18.1719C19.2646 18.2082 19.2745 18.2451 19.2831 18.2825C19.2874 18.3012 19.291 18.3201 19.2943 18.339C19.2973 18.3581 19.3 18.3772 19.3017 18.3964C19.3055 18.4348 19.3066 18.4738 19.3041 18.5127C19.2993 18.5909 19.2767 18.6672 19.2447 18.7375C19.2119 18.8077 19.1703 18.8726 19.1247 18.9337C19.0787 18.9945 19.0296 19.0524 18.9793 19.1087L18.9418 19.151C18.9293 19.1653 18.9169 19.1791 18.9054 19.1934C18.8823 19.2221 18.8618 19.253 18.8487 19.287C18.8353 19.3207 18.8307 19.358 18.837 19.3945C18.8398 19.4128 18.8453 19.4307 18.8521 19.4481C18.8589 19.4656 18.8673 19.4825 18.8767 19.4989L18.8767 19.4989Z" fill="#BABABA"/>
<path d="M20.875 22.4136L21.0261 22.4613C21.0764 22.4773 21.1267 22.4933 21.1772 22.5085C21.2781 22.539 21.3799 22.5667 21.4831 22.5871C21.5861 22.6078 21.6905 22.6211 21.7951 22.623C21.8997 22.625 22.0044 22.6163 22.1069 22.5959C22.2095 22.5753 22.3102 22.5457 22.4076 22.5077C22.5048 22.4691 22.5989 22.4223 22.6872 22.3664C22.7754 22.3103 22.8589 22.2465 22.9336 22.1733C23.0081 22.1001 23.0749 22.0188 23.1293 21.9296C23.1566 21.8851 23.181 21.8388 23.2022 21.791C23.2236 21.7434 23.2413 21.6942 23.2543 21.6439C23.2608 21.6187 23.2663 21.5933 23.2702 21.5676C23.2724 21.5548 23.2737 21.542 23.2753 21.5291C23.2763 21.5162 23.2777 21.5033 23.278 21.4904C23.2793 21.4646 23.2786 21.4387 23.2765 21.4131C23.2746 21.3874 23.2703 21.3619 23.2649 21.337C23.2535 21.2876 23.2318 21.2406 23.2034 21.1979C23.175 21.1551 23.1404 21.1162 23.1026 21.0806C23.0648 21.0449 23.0237 21.0125 22.9812 20.9818C22.9387 20.9512 22.8946 20.9226 22.8498 20.8951C22.805 20.8676 22.7593 20.8411 22.7135 20.8148C22.6677 20.7885 22.6216 20.7622 22.5765 20.7343C22.4867 20.6789 22.3953 20.6262 22.2999 20.5821C22.2047 20.538 22.1049 20.502 22.0011 20.4862C21.9493 20.4784 21.8966 20.4759 21.8443 20.4804C21.7919 20.4846 21.7401 20.4965 21.6909 20.5156C21.7394 20.4947 21.791 20.4808 21.8437 20.4746C21.8964 20.4684 21.9498 20.4695 22.0025 20.476C22.1081 20.4891 22.2101 20.5227 22.3075 20.5647C22.405 20.6071 22.4981 20.6586 22.5894 20.7124C22.6801 20.7656 22.774 20.8146 22.8653 20.869C22.9565 20.9233 23.0463 20.9822 23.1256 21.0555C23.1652 21.0921 23.2019 21.1326 23.2327 21.178C23.2634 21.2233 23.2876 21.2741 23.3006 21.3284C23.3067 21.3554 23.3115 21.3824 23.3135 21.4098C23.3159 21.4372 23.3167 21.4646 23.3154 21.492C23.3151 21.5057 23.3137 21.5193 23.3126 21.5329C23.311 21.5464 23.3097 21.5601 23.3074 21.5735C23.3034 21.6005 23.2977 21.6272 23.291 21.6535C23.2775 21.7061 23.2592 21.7575 23.2373 21.8068C23.2155 21.8562 23.1904 21.9041 23.1622 21.9502C23.1058 22.0422 23.0367 22.1258 22.9599 22.2008C22.9215 22.2384 22.8807 22.2733 22.8384 22.3062C22.796 22.339 22.752 22.3697 22.7066 22.3978C22.5245 22.5102 22.3219 22.5875 22.1125 22.6259C22.0076 22.645 21.9007 22.6529 21.7944 22.6486C21.6881 22.6445 21.5826 22.629 21.4792 22.6058C21.3758 22.5824 21.2744 22.5517 21.1741 22.5184C21.124 22.5017 21.074 22.4844 21.0242 22.4669L20.875 22.4136L20.875 22.4136Z" fill="#BABABA"/>
</svg>
