<svg width="62" height="62" viewBox="0 0 62 62" fill="none" xmlns="http://www.w3.org/2000/svg">
<rect width="62" height="61.704" rx="14" fill="#F4F4F4"/>
<g style="mix-blend-mode:multiply">
<path d="M14.0001 23.6141C14.0001 22.3207 14.258 21.0633 14.7665 19.8765C15.2565 18.7333 15.9566 17.7059 16.8475 16.8227C17.7384 15.9396 18.7749 15.2455 19.9282 14.7599C21.1253 14.2557 22.3938 14.0001 23.6985 14.0001L38.3015 14C39.6062 14 40.8747 14.2556 42.0719 14.7598C43.2251 15.2455 44.2616 15.9395 45.1525 16.8227C46.0434 17.7059 46.7436 18.7333 47.2335 19.8765C47.7421 21.0632 48 22.3207 48 23.6141L47.9999 38.09C47.9999 39.3833 47.742 40.6408 47.2334 41.8275C46.7435 42.9707 46.0434 43.9981 45.1525 44.8813C44.2616 45.7644 43.2251 46.4585 42.0718 46.9441C40.8747 47.4483 39.6062 47.7039 38.3015 47.7039L23.6985 47.704C22.3938 47.704 21.1253 47.4484 19.9281 46.9442C18.7749 46.4585 17.7384 45.7645 16.8475 44.8813C15.9566 43.9981 15.2564 42.9707 14.7665 41.8275C14.2579 40.6408 14 39.3833 14 38.09L14.0001 23.6141Z" fill="#E20613"/>
</g>
<path d="M27.1004 37.1937L27.4334 37.3923C28.6556 38.1205 30.046 38.5057 31.4538 38.5057C35.7965 38.5057 39.3297 34.9727 39.3297 30.6299C39.3297 26.287 35.7965 22.7542 31.4538 22.7542C27.1112 22.7542 23.5781 26.287 23.5781 30.6299C23.5781 32.0638 23.9765 33.4757 24.73 34.7133L24.9342 35.0486L24.1473 37.9851L27.1005 37.1937L27.1004 37.1937Z" fill="#E20613"/>
<path d="M21.5508 40.5812L22.9605 35.3216C22.1624 33.8816 21.7423 32.2679 21.7423 30.6301C21.7423 25.2753 26.0989 20.9187 31.4537 20.9187C36.8084 20.9187 41.1652 25.2753 41.1652 30.6301C41.1652 35.9849 36.8086 40.3416 31.4537 40.3416C29.8461 40.3416 28.2585 39.9357 26.8374 39.1649L21.5508 40.5812ZM27.1003 37.1939L27.4332 37.3925C28.6554 38.1207 30.0458 38.5059 31.4537 38.5059C35.7963 38.5059 39.3295 34.973 39.3295 30.6301C39.3295 26.2872 35.7963 22.7544 31.4537 22.7544C27.111 22.7544 23.578 26.2872 23.578 30.6301C23.578 32.0641 23.9763 33.476 24.7298 34.7135L24.934 35.0488L24.1471 37.9853L27.1003 37.1939L27.1003 37.1939Z" fill="white"/>
<path fill-rule="evenodd" clip-rule="evenodd" d="M35.0661 31.9811C34.6663 31.742 34.1463 31.4751 33.6753 31.6677C33.3141 31.8155 33.0834 32.3811 32.8494 32.6698C32.7292 32.818 32.5858 32.8412 32.4014 32.7669C31.0452 32.2268 30.006 31.3214 29.2578 30.0741C29.131 29.8801 29.1537 29.7274 29.3065 29.5476C29.5326 29.2815 29.8164 28.9792 29.8776 28.6204C29.9387 28.2618 29.7705 27.8424 29.6223 27.523C29.4327 27.1149 29.2209 26.5329 28.8121 26.3019C28.4361 26.0896 27.9412 26.2085 27.6064 26.4812C27.0285 26.9518 26.7496 27.6892 26.758 28.4201C26.7603 28.6278 26.7859 28.835 26.8343 29.0354C26.951 29.5176 27.1738 29.9677 27.4246 30.3957C27.6137 30.7185 27.8192 31.0316 28.0408 31.3328C28.7662 32.3181 29.6686 33.1744 30.7135 33.8145C31.2356 34.1342 31.7979 34.4146 32.3802 34.607C33.0332 34.8228 33.6151 35.0473 34.3203 34.9134C35.0587 34.7733 35.7866 34.3163 36.0797 33.6048C36.1664 33.3941 36.2098 33.1595 36.1612 32.937C36.0609 32.477 35.4382 32.2035 35.0661 31.9811L35.0661 31.9811Z" fill="white"/>
<path d="M37.7766 23.2649C38.2291 23.647 38.6481 24.0699 39.025 24.5282C39.4008 24.9873 39.7366 25.48 40.0231 26.0006C40.1662 26.2609 40.2978 26.5277 40.417 26.8L40.4609 26.9025C40.4753 26.9367 40.4907 26.9706 40.5039 27.0053L40.5862 27.2126L40.6629 27.422C40.676 27.4568 40.6877 27.4921 40.6995 27.5274L40.7349 27.6331C40.8278 27.9157 40.9081 28.2024 40.9755 28.4922C41.0422 28.7823 41.0948 29.0756 41.1343 29.3706L41.1487 29.4813L41.1559 29.5367L41.1616 29.5922L41.184 29.8144L41.2004 30.0371C41.2036 30.0742 41.205 30.1114 41.2067 30.1486L41.2118 30.2601C41.2238 30.5577 41.2235 30.8557 41.2091 31.1533C41.1803 31.7485 41.0951 32.341 40.957 32.9209C40.6819 34.0813 40.1874 35.1893 39.5104 36.1717C39.1724 36.6633 38.7892 37.1238 38.3676 37.546C37.9456 37.9679 37.4853 38.3514 36.9938 38.6897C36.0114 39.3668 34.904 39.8638 33.7429 40.1389C33.1626 40.2768 32.5699 40.3619 31.9745 40.3919C31.9 40.3955 31.8255 40.3975 31.7511 40.4004C31.7138 40.4021 31.6766 40.4024 31.6393 40.4027L31.5276 40.4038C31.4531 40.4056 31.3786 40.403 31.304 40.4019C31.2295 40.4002 31.155 40.4004 31.0806 40.3956L30.8573 40.3845C30.783 40.3791 30.7088 40.3725 30.6345 40.3665L30.5789 40.3619C30.5603 40.3604 30.5417 40.3589 30.5232 40.3565L30.4122 40.3438L30.3012 40.3311L30.2457 40.3248L30.1904 40.3167L29.9693 40.2844C29.9509 40.2819 29.9325 40.2786 29.9142 40.2753L29.8592 40.2655L29.7492 40.2459C29.7126 40.2392 29.6758 40.2332 29.6393 40.226L29.53 40.203L29.4207 40.18L29.366 40.1685C29.3478 40.1648 29.3298 40.1599 29.3117 40.1557L29.0946 40.1029C29.0583 40.0947 29.0227 40.0839 28.9867 40.0742L28.8791 40.0445L28.7714 40.0148L28.6648 39.9818L28.5581 39.9488C28.5226 39.9376 28.4868 39.9274 28.4518 39.9148L28.2406 39.8423C28.2231 39.8361 28.2053 39.8304 28.1879 39.8238L28.1357 39.8041L28.0313 39.7645L27.927 39.725C27.8923 39.7115 27.8582 39.6966 27.8237 39.6825C27.7551 39.6537 27.6861 39.6258 27.6179 39.5962C27.3454 39.4764 27.0787 39.3442 26.8171 39.2026L26.8485 39.2063L25.5247 39.5527L24.2006 39.8974L22.876 40.2406L21.5508 40.5814L22.8689 40.2142L24.1877 39.8492L25.5068 39.4858L26.8264 39.124L26.8426 39.1196L26.8577 39.1277C27.8979 39.6836 29.0377 40.0514 30.2058 40.2002L30.2605 40.2077L30.3153 40.2136L30.4251 40.2253L30.5348 40.2369C30.5531 40.2391 30.5714 40.2405 30.5898 40.2418L30.6448 40.2459L30.8649 40.2622L31.0854 40.272C31.1588 40.2764 31.2324 40.2758 31.306 40.2771C31.3795 40.2779 31.453 40.2801 31.5266 40.278L31.6369 40.2763C31.6737 40.2759 31.7105 40.2754 31.7472 40.2735C31.8207 40.2703 31.8943 40.268 31.9677 40.2641C32.5553 40.2317 33.1395 40.1448 33.7109 40.0061C33.9966 39.9366 34.2792 39.8542 34.5574 39.7593C34.8358 39.6646 35.1093 39.5558 35.3774 39.4355C35.9136 39.1943 36.428 38.9048 36.9119 38.5709C37.3957 38.2369 37.8495 37.8594 38.2657 37.4441C38.6814 37.0283 39.0594 36.5749 39.394 36.0914C39.7284 35.6078 40.0186 35.0937 40.2607 34.5577C40.5031 34.0218 40.6945 33.4628 40.8335 32.8912C40.9031 32.6053 40.9595 32.3163 41.0027 32.0252C41.0458 31.7341 41.0772 31.4412 41.0933 31.1472C41.1099 30.8532 41.1126 30.5585 41.1031 30.2642L41.0989 30.1538C41.0975 30.117 41.0964 30.0802 41.0935 30.0435L41.079 29.8231L41.0586 29.6031L41.0534 29.5481L41.0467 29.4933L41.0333 29.3837C40.8903 28.2137 40.5241 27.0719 39.9693 26.0297C39.8313 25.7687 39.679 25.5153 39.517 25.2683C39.3546 25.0216 39.1819 24.7815 38.9984 24.5496C38.6304 24.0868 38.2205 23.6571 37.7765 23.2649L37.7766 23.2649Z" fill="#BABABA"/>
<path d="M21.5508 40.5812L21.7183 39.9214L21.8868 39.2619L22.2257 37.9434L22.5664 36.6253L22.9094 35.3079L22.9142 35.3472C22.3588 34.3599 21.9758 33.2743 21.7912 32.1542L21.7598 31.9437L21.752 31.891C21.7493 31.8735 21.7467 31.8559 21.7448 31.8383L21.7325 31.7326L21.7202 31.6268C21.7163 31.5916 21.7115 31.5564 21.7091 31.521L21.6913 31.3088L21.6869 31.2558C21.6854 31.2381 21.6849 31.2203 21.6839 31.2026L21.6784 31.0963L21.6729 30.99L21.6703 30.9368L21.6692 30.8836L21.665 30.6707C21.6639 30.6352 21.6645 30.5997 21.6649 30.5642L21.6658 30.4578C21.6699 30.1739 21.6861 29.8901 21.7144 29.6075C21.7427 29.3249 21.7849 29.0437 21.838 28.7646C21.8912 28.4856 21.9568 28.2088 22.0343 27.9355C22.1119 27.6621 22.2026 27.3925 22.304 27.127C22.4056 26.8616 22.5187 26.6006 22.6431 26.3451C22.6749 26.2816 22.7059 26.2176 22.7384 26.1545L22.8379 25.9659L22.9419 25.7799C22.9588 25.7486 22.9777 25.7185 22.9955 25.6878L23.0498 25.596C23.3426 25.1088 23.6779 24.6473 24.0501 24.2178C24.423 23.7888 24.833 23.3922 25.2739 23.0338C25.7144 22.6746 26.1871 22.3553 26.6835 22.0791C26.9317 21.941 27.1858 21.8135 27.4449 21.6972L27.6402 21.6122L27.8376 21.5321C27.9699 21.4806 28.1027 21.4304 28.2371 21.3847C28.774 21.2 29.3267 21.0604 29.8876 20.974C30.1679 20.9302 30.45 20.8982 30.7329 20.8787C31.0158 20.8587 31.2996 20.8537 31.5829 20.8583C32.1497 20.8687 32.7153 20.9294 33.271 21.0382C33.5488 21.0927 33.8242 21.1594 34.0961 21.2379C34.3679 21.3168 34.6359 21.408 34.8995 21.5105C35.4265 21.7155 35.9351 21.9668 36.4169 22.2612C36.899 22.5551 37.3546 22.8914 37.7766 23.2647C37.3441 22.9035 36.8818 22.5793 36.3957 22.2968C35.9094 22.0149 35.3997 21.774 34.8732 21.5799C34.6099 21.4827 34.3424 21.3975 34.0719 21.3237C33.8015 21.2496 33.5279 21.1875 33.2522 21.1374C32.7008 21.0371 32.141 20.9864 31.5813 20.9821C30.4618 20.973 29.342 21.1587 28.2882 21.5312C28.0248 21.6241 27.7652 21.728 27.5109 21.8437C27.2567 21.9594 27.0075 22.0861 26.7642 22.2232C26.2778 22.4976 25.8141 22.8126 25.3824 23.1668C25.1663 23.3436 24.958 23.5298 24.7577 23.7243C24.5574 23.9187 24.3652 24.1215 24.1823 24.3324C23.8172 24.7549 23.4884 25.2084 23.2 25.6863C22.9108 26.164 22.6669 26.6685 22.4651 27.1889C22.3647 27.4493 22.2748 27.7139 22.1977 27.9823C22.1208 28.2506 22.0555 28.5223 22.0016 28.7963C21.948 29.0703 21.9051 29.3465 21.8759 29.6243C21.8467 29.9021 21.8293 30.1812 21.8231 30.4605L21.8214 30.5653C21.8208 30.6002 21.82 30.6351 21.8208 30.67L21.8234 30.8796L21.8241 30.9319L21.8263 30.9843L21.831 31.089L21.8356 31.1936C21.8365 31.2111 21.8369 31.2286 21.8382 31.246L21.8422 31.2982L21.8582 31.5072C21.8603 31.5421 21.8648 31.5768 21.8684 31.6115L21.8797 31.7157L21.8909 31.8199C21.8926 31.8373 21.895 31.8546 21.8975 31.8719L21.9047 31.9238L21.9337 32.1315C21.9449 32.2004 21.9573 32.2692 21.969 32.3381L21.9868 32.4415L22.0078 32.5442C22.0221 32.6126 22.0356 32.6812 22.0503 32.7496L22.0989 32.9536L22.1111 33.0046C22.115 33.0217 22.1192 33.0386 22.1239 33.0555L22.1514 33.1567L22.1788 33.2579C22.1881 33.2917 22.1966 33.3256 22.2073 33.3589L22.2685 33.5596L22.2838 33.6098C22.289 33.6265 22.2949 33.6429 22.3004 33.6595L22.3342 33.7589C22.5124 34.2895 22.7412 34.8027 23.0067 35.296L23.0171 35.3152L23.0115 35.3353L22.6498 36.6477L22.2856 37.9595L21.9197 39.2707L21.7357 39.9261L21.5508 40.5812L21.5508 40.5812Z" fill="white"/>
<path d="M24.1484 37.9857L24.8836 37.7763L25.6193 37.5688L26.3553 37.3621L27.0915 37.1564L27.107 37.1521L27.1217 37.1606L27.4494 37.3514L27.6138 37.4438C27.6412 37.4591 27.6684 37.4749 27.6961 37.4897L27.7797 37.5331C28.0015 37.6514 28.2308 37.7549 28.4628 37.8506L28.6378 37.9202L28.8149 37.9842C28.8445 37.9946 28.8738 38.0058 28.9036 38.0157L28.9931 38.0445L29.0827 38.0734C29.1126 38.083 29.1423 38.093 29.1726 38.1012L29.3534 38.1531C29.3685 38.1573 29.3835 38.162 29.3987 38.1658L29.4443 38.1773L29.5355 38.2003L29.6267 38.2233C29.657 38.2311 29.6879 38.2369 29.7185 38.2438L29.9023 38.2835L30.0873 38.3171L30.1335 38.3255L30.1566 38.3297L30.1799 38.3331L30.2729 38.3468L30.3658 38.3604L30.4123 38.3673L30.459 38.3727L30.6457 38.394C30.6767 38.398 30.708 38.3997 30.7392 38.4024L30.8329 38.4099L30.9265 38.4173C30.9578 38.4192 30.9891 38.4203 31.0203 38.4218C31.0829 38.4245 31.1454 38.428 31.208 38.4299L31.3958 38.4321C31.8966 38.4336 32.3974 38.3877 32.889 38.2938C33.8723 38.1076 34.8177 37.7282 35.6576 37.1855C36.078 36.9147 36.4722 36.6035 36.8333 36.2577C37.1948 35.9124 37.5234 35.5325 37.8128 35.1248C38.1025 34.7173 38.3536 34.2822 38.5602 33.8267C38.7674 33.3715 38.9306 32.8962 39.046 32.4093C39.1621 31.9225 39.2304 31.4243 39.2515 30.9239L39.2555 30.8301L39.2572 30.7361L39.259 30.6422C39.2593 30.6109 39.2585 30.5796 39.2584 30.5483L39.2575 30.4543C39.2571 30.423 39.2573 30.3917 39.2556 30.3604L39.2482 30.1726C39.2341 29.9225 39.2093 29.6729 39.173 29.4248L39.1435 29.2391L39.1086 29.0543L39.0998 29.0081L39.0898 28.9621L39.0695 28.8703L39.0492 28.7785L39.0263 28.6872C38.9972 28.5652 38.9623 28.4447 38.9275 28.3241L38.8712 28.1445C38.8666 28.1294 38.8616 28.1146 38.8564 28.0998L38.841 28.0553L38.8102 27.9663C38.7261 27.7298 38.631 27.497 38.5252 27.2691L38.4434 27.0993C38.4154 27.043 38.3859 26.9876 38.3573 26.9316L38.3358 26.8896C38.3285 26.8757 38.3207 26.8621 38.3132 26.8483L38.2676 26.7657L38.2219 26.6832L38.174 26.6019C38.0465 26.3852 37.9099 26.1734 37.7613 25.9701C37.6131 25.7666 37.456 25.5693 37.29 25.3796C37.1245 25.1894 36.948 25.0087 36.7645 24.8354C36.5811 24.6621 36.3891 24.4975 36.1905 24.3411C37.007 24.9377 37.7095 25.6954 38.2411 26.5616C38.3742 26.778 38.4982 27.0002 38.6092 27.229C38.7201 27.4578 38.8204 27.6919 38.9096 27.9302L38.9423 28.0198L38.9587 28.0647C38.9642 28.0796 38.9696 28.0946 38.9745 28.1097L39.0346 28.2909C39.072 28.4126 39.1095 28.5343 39.1411 28.6577L39.1658 28.75L39.1878 28.8429L39.2096 28.9359L39.2204 28.9825L39.23 29.0293L39.2679 29.2166L39.3005 29.4049C39.3407 29.6566 39.3695 29.9101 39.3863 30.1645L39.396 30.3556C39.398 30.3874 39.3982 30.4193 39.3989 30.4511L39.4009 30.5467C39.4014 30.5786 39.4025 30.6105 39.4025 30.6424L39.4018 30.738L39.4011 30.8337L39.398 30.9293C39.3817 31.4392 39.316 31.9479 39.2017 32.4457C39.0869 32.9433 38.9236 33.43 38.7142 33.8962C38.5047 34.3622 38.2501 34.8081 37.955 35.2254C37.6596 35.6426 37.3243 36.0314 36.955 36.3848C36.5853 36.7379 36.1819 37.0555 35.7519 37.3318C35.3216 37.6078 34.8647 37.842 34.3895 38.03C33.9142 38.2177 33.4206 38.3586 32.9183 38.4507C32.4159 38.542 31.9049 38.5852 31.3947 38.5784L31.2034 38.5741C31.1397 38.5715 31.076 38.5671 31.0123 38.5638C30.9805 38.5619 30.9487 38.5604 30.9169 38.5581L30.8216 38.5495L30.7263 38.5409C30.6946 38.5377 30.6628 38.5357 30.6312 38.5313L30.4414 38.5075L30.394 38.5016L30.3468 38.494L30.2524 38.4789L30.158 38.4637L30.1344 38.4599L30.1109 38.4554L30.064 38.4462L29.8764 38.4095L29.6901 38.3667C29.6592 38.3593 29.6279 38.353 29.5972 38.3446L29.5048 38.3201L29.4125 38.2955L29.3663 38.2832C29.351 38.2791 29.3358 38.2742 29.3206 38.2697L29.1377 38.2142C29.1072 38.2054 29.0771 38.1947 29.047 38.1845L28.9566 38.1537L28.8663 38.1228C28.8362 38.1124 28.8066 38.1005 28.7768 38.0894L28.5984 38.0216L28.4222 37.9481C28.1887 37.8472 27.9584 37.7385 27.7359 37.6152L27.6521 37.5699C27.6243 37.5544 27.5971 37.5379 27.5696 37.522L27.4052 37.4256L27.0816 37.2279L27.1118 37.2321L26.3714 37.4221L25.6308 37.6112L24.8899 37.7993L24.1485 37.9857L24.1484 37.9857Z" fill="white"/>
<path d="M28.8103 26.3018C28.7481 26.2699 28.6824 26.2452 28.6147 26.2299C28.5809 26.2218 28.5467 26.2163 28.5124 26.2121C28.4779 26.2085 28.4434 26.2059 28.4089 26.2062C28.2707 26.2055 28.1335 26.2334 28.005 26.2817C27.9407 26.3061 27.8783 26.3351 27.8186 26.3689C27.7592 26.403 27.7021 26.4411 27.6488 26.484C27.622 26.5049 27.5971 26.5291 27.5712 26.5518C27.5456 26.5748 27.5193 26.597 27.4958 26.6223C27.4718 26.647 27.4474 26.6713 27.4237 26.6962L27.3563 26.7743L27.3394 26.7938L27.3238 26.8143L27.2926 26.8554L27.2614 26.8964C27.2512 26.9102 27.2421 26.9249 27.2324 26.9391L27.2037 26.9819C27.1944 26.9963 27.1839 27.01 27.1756 27.0251L27.1232 27.1139C27.0568 27.2342 26.9998 27.3597 26.9536 27.4892C26.9089 27.6192 26.8728 27.7521 26.8469 27.8872C26.8225 28.0226 26.8084 28.1597 26.8033 28.2971C26.7929 28.5723 26.8251 28.8482 26.8973 29.1144C26.9326 29.2479 26.9759 29.3795 27.0254 29.5089C27.0375 29.5414 27.0505 29.5735 27.0637 29.6056C27.0764 29.6378 27.0906 29.6695 27.104 29.7015C27.1174 29.7335 27.132 29.765 27.146 29.7968L27.1898 29.8913C27.2495 30.0169 27.3142 30.1402 27.3807 30.2626C27.4473 30.3851 27.5167 30.5062 27.588 30.6262C27.73 30.8666 27.8815 31.1015 28.0391 31.3327C27.8651 31.1134 27.7032 30.8845 27.5501 30.6497C27.3982 30.4143 27.2534 30.1736 27.1261 29.9226L27.0793 29.828C27.0643 29.7961 27.0487 29.7645 27.0343 29.7324C27.0199 29.7003 27.0052 29.6683 26.9916 29.6357C26.9778 29.6033 26.964 29.5708 26.9512 29.5379C26.8988 29.4069 26.8525 29.2732 26.8142 29.1369C26.7374 28.8639 26.7032 28.578 26.7124 28.2941C26.7184 28.1521 26.7337 28.0106 26.7596 27.8708C26.7874 27.7314 26.8244 27.5938 26.8728 27.46C26.9226 27.3267 26.9836 27.1978 27.0542 27.0744C27.1251 26.951 27.2098 26.836 27.3025 26.7284L27.3741 26.6495C27.3992 26.6244 27.425 26.6 27.4505 26.5752C27.4753 26.5498 27.503 26.5275 27.5299 26.5045C27.5572 26.4816 27.5835 26.4582 27.6126 26.437C27.6699 26.3942 27.7308 26.3565 27.7938 26.3232C27.8571 26.2904 27.9227 26.2622 27.9902 26.2398C28.1254 26.196 28.268 26.1728 28.4097 26.1811C28.445 26.1828 28.4802 26.1873 28.5151 26.1928C28.5325 26.1962 28.5499 26.199 28.567 26.2033C28.5756 26.2054 28.5842 26.2072 28.5927 26.2095L28.6182 26.2167C28.6858 26.2367 28.7503 26.266 28.8103 26.3018L28.8103 26.3018Z" fill="white"/>
<path d="M34.6216 31.7464C34.5484 31.7166 34.4739 31.6902 34.398 31.6689C34.3222 31.6475 34.245 31.6311 34.1671 31.6223C34.0893 31.6135 34.0107 31.6119 33.9333 31.6202C33.8558 31.6284 33.7797 31.6466 33.7077 31.6748C33.6709 31.6877 33.6374 31.7052 33.6046 31.7254C33.5882 31.7352 33.5727 31.7467 33.557 31.7578C33.542 31.7698 33.5266 31.7813 33.5123 31.7943C33.4974 31.8067 33.4837 31.8204 33.4696 31.8335C33.4561 31.8475 33.4422 31.861 33.4293 31.8755C33.4029 31.9039 33.3781 31.934 33.354 31.9646C33.2579 32.0877 33.176 32.2222 33.0937 32.357C33.0525 32.4244 33.0114 32.4922 32.9674 32.5588C32.9454 32.5921 32.9226 32.6251 32.8983 32.6573C32.8744 32.6891 32.8475 32.7222 32.8157 32.7505C32.784 32.7789 32.747 32.8031 32.706 32.8188C32.665 32.8347 32.6208 32.8416 32.5777 32.8408C32.5344 32.84 32.4924 32.8321 32.4523 32.8206L32.4225 32.8113L32.3935 32.8006C32.3746 32.7932 32.3567 32.7854 32.3382 32.7779L32.2282 32.7321L32.1733 32.7091C32.1551 32.7013 32.1366 32.6941 32.1187 32.6854L31.9028 32.5846C31.8318 32.549 31.7615 32.5118 31.6908 32.4755C31.6552 32.4578 31.6211 32.4374 31.5865 32.4179L31.483 32.3587C31.2093 32.1971 30.9476 32.0151 30.7019 31.8134C30.4569 31.6111 30.2267 31.3907 30.0162 31.1529C29.8052 30.9156 29.6146 30.6608 29.4415 30.3955L29.409 30.3458C29.3982 30.3292 29.387 30.3129 29.377 30.2958L29.3157 30.1941L29.2544 30.0925C29.2443 30.0757 29.2338 30.0584 29.2241 30.041L29.2104 30.0141C29.2057 30.0052 29.2024 29.9956 29.1983 29.9864C29.1831 29.9491 29.1722 29.9096 29.169 29.8692C29.1657 29.8288 29.1707 29.788 29.1825 29.7497C29.1944 29.7113 29.2125 29.6755 29.2337 29.6419C29.2551 29.6085 29.2802 29.5777 29.306 29.5479C29.2816 29.5789 29.2581 29.6107 29.2384 29.6448C29.2189 29.679 29.2028 29.715 29.193 29.7527C29.1832 29.7903 29.1798 29.8294 29.1844 29.8678C29.189 29.9061 29.2009 29.9433 29.2168 29.9785C29.221 29.9872 29.2245 29.9962 29.2294 30.0046L29.2435 30.03C29.2538 30.0467 29.2642 30.063 29.275 30.0796L29.3394 30.179L29.4037 30.2784C29.4142 30.2952 29.4258 30.3111 29.4371 30.3273L29.4711 30.3757C29.5598 30.506 29.655 30.6317 29.7521 30.7556C29.8024 30.8162 29.8514 30.8778 29.9019 30.9382L30.0582 31.1151C30.112 31.1725 30.167 31.2288 30.2212 31.2857C30.2479 31.3146 30.2771 31.341 30.3051 31.3686L30.3899 31.4505L30.4324 31.4914L30.4765 31.5305L30.5647 31.6088C30.6225 31.6621 30.6846 31.7103 30.7453 31.7603C30.9895 31.9581 31.2485 32.1375 31.5197 32.2963L31.6218 32.3551C31.6559 32.3746 31.6896 32.3949 31.7247 32.4124C31.7945 32.4486 31.8639 32.4856 31.934 32.5211L32.1473 32.6216C32.1649 32.6303 32.1832 32.6375 32.2013 32.6453L32.2556 32.6683L32.3641 32.7146C32.3821 32.7222 32.4004 32.7303 32.4182 32.7375L32.4447 32.7476L32.4713 32.7562C32.507 32.7669 32.5432 32.7739 32.5791 32.7749C32.6149 32.776 32.6501 32.7707 32.683 32.7584C32.716 32.7462 32.7465 32.727 32.7738 32.703C32.8013 32.679 32.825 32.6508 32.8489 32.6198C32.8726 32.5892 32.8949 32.5572 32.9172 32.5251C32.9614 32.4606 33.0035 32.3939 33.0459 32.3273C33.0883 32.2606 33.1307 32.1936 33.1752 32.1277C33.2197 32.0618 33.2662 31.9968 33.3172 31.9351C33.3426 31.9042 33.369 31.8739 33.397 31.8451C33.4108 31.8304 33.4255 31.8167 33.4399 31.8026C33.455 31.7892 33.4696 31.7753 33.4855 31.7627C33.5008 31.7496 33.5173 31.7377 33.5335 31.7255C33.5503 31.7142 33.5669 31.7025 33.5847 31.6925C33.6197 31.6722 33.657 31.6536 33.6953 31.6416C33.7713 31.6146 33.8508 31.5984 33.9308 31.5924C34.0107 31.5864 34.0911 31.5904 34.1698 31.6025C34.2486 31.6145 34.3258 31.634 34.4012 31.6585C34.4765 31.6834 34.5499 31.7133 34.6216 31.7465L34.6216 31.7464Z" fill="white"/>
<path d="M29.2448 30.0739C29.2101 30.0265 29.1805 29.9737 29.1659 29.9149C29.1504 29.8564 29.1542 29.7926 29.1727 29.7343C29.1914 29.6759 29.223 29.6231 29.2581 29.5744C29.2757 29.5499 29.295 29.5269 29.3135 29.5042L29.3697 29.436C29.4442 29.3449 29.5194 29.255 29.5875 29.1604C29.6215 29.1131 29.6545 29.0653 29.6848 29.016C29.715 28.9666 29.7428 28.9159 29.7668 28.8638C29.8156 28.7598 29.849 28.6492 29.8577 28.5354C29.8681 28.4215 29.8563 28.3055 29.8357 28.1914C29.8142 28.0772 29.7824 27.9645 29.745 27.8534C29.708 27.7421 29.6647 27.6326 29.6213 27.5229C29.677 27.6269 29.7279 27.7335 29.7731 27.8429C29.7954 27.8978 29.816 27.9534 29.8347 28.0097C29.8534 28.0661 29.869 28.1236 29.8825 28.1818C29.8892 28.2108 29.8949 28.2402 29.9001 28.2697C29.9048 28.2993 29.909 28.329 29.9117 28.3589C29.9177 28.4187 29.9194 28.4792 29.9154 28.5398C29.9079 28.6614 29.8725 28.7801 29.8223 28.8895C29.7708 28.9987 29.7054 29.0997 29.6339 29.1947C29.5616 29.2893 29.4846 29.3794 29.4058 29.4669L29.3469 29.5328C29.3273 29.5549 29.3079 29.5764 29.2898 29.5987C29.2535 29.6433 29.2214 29.6914 29.2008 29.7442C29.1798 29.7968 29.1726 29.8547 29.1824 29.9115C29.1868 29.9399 29.1954 29.9678 29.2062 29.9949C29.2168 30.0221 29.23 30.0485 29.2448 30.0739L29.2448 30.0739Z" fill="#BABABA"/>
<path d="M32.3789 34.6068L32.616 34.681C32.6949 34.7059 32.7738 34.7308 32.8531 34.7545C33.0115 34.8018 33.1713 34.845 33.3331 34.8768C33.4948 34.9089 33.6586 34.9296 33.8228 34.9326C33.987 34.9357 34.1512 34.9222 34.312 34.8904C34.473 34.8584 34.6311 34.8123 34.7839 34.7531C34.9365 34.6932 35.084 34.6203 35.2227 34.5334C35.3611 34.4462 35.4921 34.3469 35.6093 34.233C35.7262 34.1192 35.831 33.9926 35.9164 33.8539C35.9592 33.7846 35.9976 33.7126 36.0309 33.6384C36.0644 33.5642 36.0921 33.4878 36.1126 33.4094C36.1228 33.3703 36.1314 33.3307 36.1375 33.2909C36.141 33.271 36.143 33.2509 36.1455 33.2309C36.147 33.2109 36.1493 33.1908 36.1497 33.1707C36.1517 33.1306 36.1507 33.0904 36.1474 33.0504C36.1444 33.0105 36.1376 32.9708 36.1292 32.9321C36.1113 32.8552 36.0773 32.7822 36.0327 32.7157C35.9881 32.6492 35.9338 32.5886 35.8745 32.5333C35.8151 32.4777 35.7507 32.4273 35.684 32.3796C35.6174 32.332 35.5482 32.2875 35.4778 32.2447C35.4074 32.2018 35.3358 32.1607 35.2639 32.1198C35.1921 32.0788 35.1198 32.038 35.0489 31.9945C34.908 31.9084 34.7646 31.8265 34.6149 31.7578C34.4655 31.6891 34.309 31.6332 34.146 31.6087C34.0647 31.5964 33.982 31.5926 33.8999 31.5997C33.8178 31.6062 33.7364 31.6246 33.6592 31.6544C33.7353 31.6218 33.8163 31.6002 33.899 31.5906C33.9817 31.581 34.0655 31.5827 34.1482 31.5928C34.3139 31.6132 34.474 31.6655 34.6269 31.7308C34.7798 31.7967 34.9259 31.8769 35.0692 31.9605C35.2116 32.0433 35.3589 32.1195 35.5021 32.2041C35.6452 32.2885 35.7862 32.3801 35.9106 32.4942C35.9728 32.5511 36.0304 32.6141 36.0786 32.6847C36.1269 32.7552 36.1648 32.8343 36.1852 32.9187C36.1947 32.9607 36.2023 33.0027 36.2055 33.0454C36.2093 33.0879 36.2104 33.1307 36.2084 33.1732C36.208 33.1945 36.2057 33.2156 36.2041 33.2368C36.2016 33.2579 36.1995 33.2791 36.1959 33.3C36.1896 33.342 36.1808 33.3834 36.1702 33.4244C36.149 33.5063 36.1203 33.5862 36.0859 33.6629C36.0516 33.7398 36.0122 33.8143 35.9681 33.8859C35.8795 34.0291 35.7711 34.1592 35.6506 34.2758C35.5903 34.3342 35.5263 34.3886 35.4599 34.4397C35.3934 34.4908 35.3244 34.5385 35.2531 34.5823C34.9674 34.7571 34.6495 34.8773 34.3208 34.937C34.1563 34.9668 33.9885 34.979 33.8217 34.9724C33.6548 34.9659 33.4892 34.9419 33.327 34.9059C33.1647 34.8694 33.0056 34.8216 32.8483 34.7698C32.7696 34.7439 32.6912 34.717 32.6131 34.6897L32.3789 34.6068L32.3789 34.6068Z" fill="#BABABA"/>
</svg>
