<svg width="27" height="24" viewBox="0 0 27 24" fill="none" xmlns="http://www.w3.org/2000/svg">
<path d="M0.000124335 22.4949C-0.00450316 22.8553 0.120174 23.2052 0.351446 23.4812C0.582718 23.7571 0.905195 23.9406 1.26014 23.9982H1.50014C1.82912 24.0143 2.15425 23.9215 2.42535 23.734C2.69645 23.5466 2.89844 23.2749 3.00015 22.9609C3.6963 20.5678 5.05005 18.4192 6.90678 16.7604C8.7635 15.1017 11.0483 13.9998 13.5002 13.5805V15.4746C13.4989 15.7466 13.5713 16.0139 13.7096 16.2479C13.8479 16.482 14.0469 16.674 14.2855 16.8036C14.5242 16.9332 14.7934 16.9955 15.0645 16.9838C15.3357 16.9722 15.5986 16.887 15.8253 16.7374L26.3254 9.71712C26.5327 9.58019 26.7029 9.39383 26.8206 9.17475C26.9384 8.95567 27 8.71072 27 8.46188C27 8.21304 26.9384 7.9681 26.8206 7.74902C26.7029 7.52994 26.5327 7.34357 26.3254 7.20665L15.8253 0.201401C15.5972 0.0694609 15.3386 0 15.0753 0C14.812 0 14.5533 0.0694609 14.3253 0.201401C14.091 0.319037 13.8915 0.496127 13.7468 0.715039C13.602 0.93395 13.517 1.18704 13.5002 1.44912V3.52363C4.18516 4.45566 0.000124335 13.4753 0.000124335 22.4949Z" fill="#888888"/>
</svg>
