<svg width="34" height="34" viewBox="0 0 34 34" fill="none" xmlns="http://www.w3.org/2000/svg">
<path d="M16.9654 33.9308C26.3351 33.9308 33.9308 26.3351 33.9308 16.9654C33.9308 7.59566 26.3351 0 16.9654 0C7.59566 0 0 7.59566 0 16.9654C0 26.3351 7.59566 33.9308 16.9654 33.9308Z" fill="#FC3F1D"/>
<path d="M23.1057 27.6155H19.3813V9.19568H17.7223C14.6812 9.19568 13.0882 10.7163 13.0882 12.9861C13.0882 15.5613 14.1869 16.7544 16.4599 18.275L18.3331 19.5374L12.9497 27.6124H8.94531L13.7903 20.4031C11.0042 18.4135 9.43634 16.471 9.43634 13.1939C9.43634 9.09815 12.2917 6.31201 17.6971 6.31201H23.0805V27.6093H23.1057V27.6155Z" fill="white"/>
</svg>
