<svg width="40" height="40" viewBox="0 0 40 40" fill="none" xmlns="http://www.w3.org/2000/svg">
<rect width="40" height="40" rx="10" fill="#F4F4F4"/>
<g clip-path="url(#clip0_1_2805)">
<rect x="9.16406" y="9.16669" width="21.6667" height="21.6667" rx="6.66667" fill="#E20613"/>
<path d="M19.9901 27.0095C19.9901 27.0095 26.3782 27.0095 27.9628 26.5889C28.855 26.3506 29.5259 25.6637 29.7614 24.8155C30.1968 23.2593 30.1968 19.9857 30.1968 19.9857C30.1968 19.9857 30.1968 16.7332 29.7614 15.191C29.5259 14.3218 28.855 13.6489 27.9628 13.4175C26.3782 12.9899 19.9901 12.9899 19.9901 12.9899C19.9901 12.9899 13.6162 12.9899 12.0388 13.4175C11.1608 13.6489 10.4756 14.3218 10.2258 15.191C9.80469 16.7332 9.80469 19.9857 9.80469 19.9857C9.80469 19.9857 9.80469 23.2593 10.2258 24.8155C10.4756 25.6637 11.1608 26.3506 12.0388 26.5889C13.6162 27.0095 19.9901 27.0095 19.9901 27.0095Z" fill="#E20613"/>
<path d="M23.1645 19.9999L17.8906 17.0207V22.979L23.1645 19.9999Z" fill="white"/>
</g>
<defs>
<clipPath id="clip0_1_2805">
<rect x="9.16406" y="9.16669" width="21.6667" height="21.6667" rx="6.66667" fill="white"/>
</clipPath>
</defs>
</svg>
