<svg width="48" height="48" viewBox="0 0 48 48" fill="none" xmlns="http://www.w3.org/2000/svg">
<rect width="48" height="48" rx="10.8667" fill="#F4F4F4"/>
<rect x="11" y="11" width="26" height="26" rx="8" fill="#E20613"/>
<path d="M23.9881 32.4113C23.9881 32.4113 31.6539 32.4113 33.5553 31.9066C34.626 31.6206 35.4311 30.7962 35.7137 29.7784C36.2362 27.911 36.2362 23.9827 36.2362 23.9827C36.2362 23.9827 36.2362 20.0797 35.7137 18.2291C35.4311 17.186 34.626 16.3785 33.5553 16.1009C31.6539 15.5878 23.9881 15.5878 23.9881 15.5878C23.9881 15.5878 16.3394 15.5878 14.4465 16.1009C13.393 16.3785 12.5707 17.186 12.271 18.2291C11.7656 20.0797 11.7656 23.9827 11.7656 23.9827C11.7656 23.9827 11.7656 27.911 12.271 29.7784C12.5707 30.7962 13.393 31.6206 14.4465 31.9066C16.3394 32.4113 23.9881 32.4113 23.9881 32.4113Z" fill="#E20613"/>
<path d="M27.7973 23.9997L21.4688 20.4247V27.5747L27.7973 23.9997Z" fill="white"/>
</svg>
