<svg width="45" height="33" viewBox="0 0 45 33" fill="none" xmlns="http://www.w3.org/2000/svg">
<path d="M10.106 0C12.974 0 15.425 1.11802 17.46 3.35202C18.427 4.38702 19.194 5.64603 19.761 7.12903C20.328 8.61303 20.612 10.106 20.612 11.607C20.612 14.776 19.578 17.985 17.51 21.237C15.442 24.489 12.674 27.249 9.205 29.516C6.27 31.451 3.969 32.418 2.301 32.418C1.634 32.418 1.083 32.218 0.650002 31.817C0.216002 31.417 0 30.882 0 30.216C0 29.215 0.633001 28.381 1.901 27.714C4.935 26.146 7.153 24.595 8.554 23.062C9.887 21.628 10.555 20.578 10.555 19.911C10.555 19.277 10.055 18.893 9.055 18.76L8.405 18.66L7.655 18.61C5.486 18.276 3.728 17.267 2.377 15.584C1.026 13.901 0.350998 11.856 0.350998 9.45502C0.350998 6.98802 1.184 4.853 2.852 3.052C4.754 1.018 7.171 0 10.106 0Z" fill="black"/>
<path d="M34.0688 0C36.9368 0 39.3878 1.11802 41.4228 3.35202C42.3898 4.38702 43.1568 5.64603 43.7248 7.12903C44.2918 8.61303 44.5758 10.106 44.5758 11.607C44.5758 14.776 43.5418 17.985 41.4738 21.237C39.4058 24.489 36.6378 27.249 33.1688 29.516C30.2328 31.451 27.9328 32.418 26.2648 32.418C25.5978 32.418 25.0478 32.218 24.6148 31.817C24.1808 31.417 23.9648 30.882 23.9648 30.216C23.9648 29.215 24.5978 28.381 25.8658 27.714C28.8998 26.146 31.1188 24.595 32.5188 23.062C33.8528 21.628 34.5198 20.578 34.5198 19.911C34.5198 19.277 34.0198 18.893 33.0188 18.76L32.3688 18.66L31.6188 18.61C29.4508 18.276 27.6908 17.267 26.3418 15.584C24.9898 13.9 24.3158 11.856 24.3158 9.45502C24.3158 6.98802 25.1488 4.853 26.8168 3.052C28.7168 1.018 31.1338 0 34.0688 0Z" fill="black"/>
</svg>
