<svg width="45" height="33" viewBox="0 0 45 33" fill="none" xmlns="http://www.w3.org/2000/svg">
<path d="M34.4708 32.418C31.6018 32.418 29.1508 31.3 27.1168 29.066C26.1498 28.031 25.3838 26.772 24.8148 25.289C24.2488 23.805 23.9648 22.312 23.9648 20.811C23.9648 17.642 24.9978 14.433 27.0668 11.181C29.1348 7.929 31.9028 5.16901 35.3718 2.90201C38.3068 0.967008 40.6078 0 42.2748 0C42.9418 0 43.4928 0.200013 43.9258 0.601013C44.3598 1.00101 44.5758 1.53603 44.5758 2.20203C44.5758 3.20303 43.9418 4.03701 42.6738 4.70401C39.6408 6.27201 37.4218 7.82302 36.0218 9.35602C34.6878 10.79 34.0198 11.84 34.0198 12.507C34.0198 13.141 34.5198 13.525 35.5208 13.658L36.1708 13.758L36.9218 13.808C39.0898 14.142 40.8488 15.151 42.1988 16.834C43.5488 18.517 44.2238 20.562 44.2238 22.963C44.2238 25.43 43.3918 27.565 41.7238 29.366C39.8228 31.4 37.4058 32.418 34.4708 32.418Z" fill="black"/>
<path d="M10.507 32.418C7.63802 32.418 5.18702 31.3 3.15302 29.066C2.18602 28.031 1.41901 26.772 0.850006 25.289C0.284006 23.805 0 22.312 0 20.811C0 17.642 1.03302 14.433 3.10202 11.181C5.17002 7.929 7.93801 5.16901 11.407 2.90201C14.343 0.967008 16.643 0 18.311 0C18.977 0 19.528 0.200013 19.961 0.601013C20.395 1.00101 20.611 1.53603 20.611 2.20203C20.611 3.20303 19.978 4.03701 18.709 4.70401C15.676 6.27201 13.457 7.82302 12.057 9.35602C10.723 10.79 10.055 11.84 10.055 12.507C10.055 13.141 10.555 13.525 11.557 13.658L12.207 13.758L12.957 13.808C15.125 14.142 16.885 15.151 18.234 16.834C19.586 18.518 20.259 20.562 20.259 22.963C20.259 25.43 19.427 27.565 17.759 29.366C15.859 31.4 13.443 32.418 10.507 32.418Z" fill="black"/>
</svg>
