<svg width="16" height="19" viewBox="0 0 16 19" fill="none" xmlns="http://www.w3.org/2000/svg">
<path fill-rule="evenodd" clip-rule="evenodd" d="M8.29809 3.75637C5.08348 3.75637 2.48204 6.32886 2.48204 9.49634C2.48246 10.5217 2.76038 11.5282 3.28688 12.4111C3.81338 13.294 4.56919 14.0209 5.47565 14.5162C5.84233 14.7181 6.23007 14.8791 6.63886 14.9993C6.74349 15.03 6.841 15.0808 6.92582 15.1488C7.01063 15.2168 7.08109 15.3007 7.13316 15.3957C7.18524 15.4907 7.21792 15.5949 7.22934 15.7024C7.24075 15.8099 7.23068 15.9186 7.19969 16.0222C7.1687 16.1258 7.11741 16.2224 7.04874 16.3064C6.98006 16.3904 6.89536 16.4602 6.79946 16.5118C6.70356 16.5634 6.59834 16.5957 6.48981 16.607C6.38128 16.6184 6.27156 16.6084 6.16692 16.5777C5.64685 16.4249 5.1451 16.2166 4.67054 15.9564C3.50447 15.3186 2.53229 14.383 1.85515 13.2469C1.17801 12.1108 0.820667 10.8156 0.820312 9.49634C0.820312 5.41458 4.17036 2.11133 8.29809 2.11133C9.32836 2.11133 10.3129 2.31706 11.2078 2.6915C11.4108 2.77629 11.5716 2.9375 11.6546 3.13968C11.7377 3.34185 11.7362 3.56842 11.6506 3.76954C11.565 3.97066 11.4023 4.12986 11.1981 4.21212C10.994 4.29438 10.7653 4.29296 10.5622 4.20816C9.84558 3.90917 9.0757 3.75554 8.29809 3.75637ZM7.79957 16.1103C7.78779 15.8925 7.86379 15.679 8.01085 15.5166C8.15792 15.3543 8.36403 15.2564 8.58391 15.2445C9.34605 15.2045 10.0928 15.0163 10.7815 14.6907C10.9795 14.6031 11.2043 14.5956 11.4077 14.6698C11.6112 14.7441 11.7773 14.8942 11.8706 15.0881C11.9639 15.282 11.9769 15.5043 11.907 15.7076C11.837 15.9109 11.6895 16.079 11.4961 16.1761C10.6115 16.5943 9.65247 16.8362 8.67364 16.8879C8.45362 16.8996 8.23793 16.8242 8.07401 16.6784C7.91009 16.5325 7.81138 16.3282 7.79957 16.1103ZM13.9413 5.92645C14.1406 5.83368 14.369 5.82308 14.5762 5.897C14.7834 5.97091 14.9525 6.12329 15.0464 6.32064C15.4646 7.19845 15.7046 8.14913 15.7526 9.11861C15.7636 9.33665 15.6867 9.55009 15.5389 9.71198C15.391 9.87387 15.1843 9.97095 14.9641 9.98187C14.744 9.99278 14.5285 9.91663 14.365 9.77017C14.2016 9.62371 14.1036 9.41894 14.0925 9.2009C14.0559 8.44593 13.8695 7.70548 13.5442 7.02177C13.4976 6.92403 13.471 6.81816 13.4658 6.71021C13.4605 6.60226 13.4768 6.49435 13.5137 6.39264C13.5506 6.29093 13.6073 6.19741 13.6807 6.11742C13.7541 6.03743 13.8426 5.97254 13.9413 5.92645ZM12.6585 14.5113C12.4948 14.3653 12.3963 14.1608 12.3848 13.9429C12.3733 13.725 12.4496 13.5115 12.597 13.3493C13.1072 12.7867 13.5022 12.1313 13.7602 11.4195C13.7967 11.3175 13.8532 11.2236 13.9265 11.1432C13.9997 11.0628 14.0883 10.9976 14.187 10.9511C14.2858 10.9047 14.3928 10.878 14.502 10.8727C14.6112 10.8673 14.7204 10.8833 14.8233 10.9198C14.9262 10.9563 15.0208 11.0125 15.1018 11.0853C15.1827 11.1581 15.2484 11.246 15.2949 11.3439C15.3415 11.4419 15.3681 11.548 15.3732 11.6561C15.3783 11.7643 15.3619 11.8724 15.3247 11.9742C14.9937 12.8876 14.4866 13.7286 13.8316 14.4504C13.6842 14.6125 13.4778 14.71 13.2578 14.7214C13.0378 14.7329 12.8222 14.6573 12.6585 14.5113Z" fill="#555555"/>
<path fill-rule="evenodd" clip-rule="evenodd" d="M10.7309 1.13441C10.8016 1.0905 10.8785 1.06437 10.9573 1.05749C11.0362 1.05062 11.1153 1.06315 11.1902 1.09436C11.2652 1.12558 11.3344 1.17486 11.394 1.2394C11.4536 1.30394 11.5024 1.38247 11.5376 1.47049L12.4721 3.81254C12.6594 4.2813 12.5043 4.85132 12.1262 5.08352L10.2384 6.24363C10.1673 6.2914 10.0892 6.32084 10.0087 6.3302C9.92826 6.33955 9.84712 6.32863 9.77013 6.29809C9.69315 6.26754 9.6219 6.218 9.56065 6.15242C9.4994 6.08684 9.4494 6.00657 9.41364 5.91641C9.37788 5.82624 9.35709 5.72803 9.35252 5.62765C9.34796 5.52726 9.3597 5.42676 9.38705 5.33215C9.41439 5.23754 9.45679 5.15075 9.5117 5.07699C9.56661 5.00322 9.63291 4.94399 9.70663 4.90282L11.1967 3.98625L10.458 2.1374C10.4229 2.04932 10.4021 1.95349 10.3967 1.85539C10.3914 1.75729 10.4017 1.65885 10.427 1.5657C10.4523 1.47255 10.492 1.38651 10.5441 1.31251C10.5961 1.2385 10.66 1.17799 10.7309 1.13441Z" fill="#555555"/>
</svg>
